SplineFontDB: 3.2
FontName: ParibartanF
FullName: ParibartanF
FamilyName: Paribartan
Weight: Regular
Copyright: Copyright 2024 The Paribartan Project Authors (github.com/mitradranirban/paribartan)
Version: 0.001
ItalicAngle: 0
UnderlinePosition: 0
UnderlineWidth: 0
Ascent: 800
Descent: 200
InvalidEm: 1
UFOAscent: 800
UFODescent: -250
LayerCount: 2
Layer: 0 0 "Back" 1
Layer: 1 0 "Fore" 0
StyleMap: 0x0000
FSType: 0
OS2Version: 0
OS2_WeightWidthSlopeOnly: 0
OS2_UseTypoMetrics: 0
CreationTime: 1733728903
ModificationTime: 1734456755
PfmFamily: 17
TTFWeight: 400
TTFWidth: 5
LineGap: 0
VLineGap: 0
OS2TypoAscent: 1200
OS2TypoAOffset: 0
OS2TypoDescent: -400
OS2TypoDOffset: 0
OS2TypoLinegap: 0
OS2WinAscent: 1160
OS2WinAOffset: 0
OS2WinDescent: 348
OS2WinDOffset: 0
HheadAscent: 1200
HheadAOffset: 0
HheadDescent: -400
HheadDOffset: 0
OS2CapHeight: 750
OS2XHeight: 500
OS2Vendor: 'anir'
MarkAttachClasses: 1
DEI: 91125
LangName: 1033 "" "" "" "" "" "" "" "" "Dr Anirban Mitra" "Dr Anirban Mitra" "Variable Color Bengali Font" "https://fonts.atipra.in" "https://github.com/mitradranirban" "This Font Software is licensed under the SIL Open Font License, Version 1.1. This license is available with a FAQ at: https://openfontlicense.org+ACIA" " https://openfontlicense.org"
PickledDataWithLists: "(dp0
Vxyz.fontra.lineMetricsHorizontalLayout.zones
p1
(dp2
Vascender
p3
I16
sVbaseline
p4
I-16
sVcapHeight
p5
I16
sVdescender
p6
I-16
sVxHeight
p7
I16
ss."
Encoding: UnicodeBmp
Compacted: 1
UnicodeInterp: none
NameList: AGL For New Fonts
DisplaySize: -128
AntiAlias: 1
FitToEm: 1
WidthSeparation: 150
WinInfo: 360 10 4
BeginPrivate: 0
EndPrivate
Grid
-1000 -402 m 0
 2000 -402 l 1024
-1000 510.5 m 0
 2000 510.5 l 1024
  Named: "XHGHT"
-982 752 m 0
 2018 752 l 1024
  Named: "CAPS"
-1000 1202 m 0
 2000 1202 l 1024
EndSplineSet
BeginChars: 65538 453

StartChar: exclam
Encoding: 33 33 0
Width: 252
VWidth: 0
Flags: HW
HStem: -2 142<100 252>
VStem: 100 152<-2 140 258 772>
LayerCount: 2
Fore
SplineSet
100 -2 m 1
 100 140 l 1
 252 140 l 1
 252 -2 l 1
 100 -2 l 1
100 258 m 1
 100 772 l 1
 252 772 l 1
 252 258 l 1
 100 258 l 1
EndSplineSet
EndChar

StartChar: quotedbl
Encoding: 34 34 1
Width: 452
VWidth: 0
Flags: HW
HStem: 532 257<100 252 300 452>
VStem: 100 152<532 789> 300 152<532 789>
LayerCount: 2
Fore
SplineSet
100 532 m 1
 100 789 l 1
 252 789 l 1
 252 532 l 1
 100 532 l 1
300 532 m 1
 300 789 l 1
 452 789 l 1
 452 532 l 1
 300 532 l 1
EndSplineSet
EndChar

StartChar: numbersign
Encoding: 35 35 2
Width: 644
VWidth: 0
Flags: HW
HStem: 216 152<105 114.845 293.718 414.845 593.718 649> 466 152<105 159.044 337.917 459.044 637.917 649>
LayerCount: 2
Fore
SplineSet
459.043945312 466 m 1
 311.043945312 466 l 1
 293.717773438 368 l 1
 441.717773438 368 l 1
 459.043945312 466 l 1
199 692 m 1
 351 692 l 1
 337.916992188 618 l 1
 485.916992188 618 l 1
 499 692 l 1
 651 692 l 1
 637.916992188 618 l 1
 649 618 l 1
 649 466 l 1
 611.043945312 466 l 1
 593.717773438 368 l 1
 649 368 l 1
 649 216 l 1
 566.845703125 216 l 1
 555 149 l 1
 403 149 l 1
 414.845703125 216 l 1
 266.845703125 216 l 1
 255 149 l 1
 103 149 l 1
 114.845703125 216 l 1
 105 216 l 1
 105 368 l 1
 141.717773438 368 l 1
 159.043945312 466 l 1
 105 466 l 1
 105 618 l 1
 185.916992188 618 l 1
 199 692 l 1
EndSplineSet
EndChar

StartChar: dollar
Encoding: 36 36 3
Width: 512
VWidth: 0
Flags: HW
VStem: 303 210.5<155.062 301.804> 303 79<-182 -0.345529 442.672 585.787 774.489 1030>
LayerCount: 2
Fore
SplineSet
303 585.787109375 m 1
 296.98046875 579.745117188 291.647460938 572.815429688 287 565 c 0
 270.333007812 537.666992188 268.833007812 507.666992188 282.5 475 c 0
 287.901367188 462.088867188 294.734375 451.313476562 303 442.671875 c 1
 303 585.787109375 l 1
110 57 m 2
 185 182 l 1
 190.333007812 178 197.666992188 173 207 167 c 0
 232.333007812 152.333007812 259.333007812 148.333007812 288 155 c 0
 293.245117188 156.219726562 298.245117188 157.741210938 303 159.563476562 c 1
 303 309.608398438 l 1
 296.412109375 311.99609375 289.412109375 313.79296875 282 315 c 0
 249.333007812 333 221 353 197 375 c 0
 173 397 154 421.666992188 140 449 c 0
 126 476.333007812 120 506.333007812 122 539 c 0
 124 571.666992188 135.333007812 605 156 639 c 0
 190.186523438 695.163085938 239.186523438 734.8359375 303 758.017578125 c 1
 303 1030 l 1
 382 1030 l 1
 382 774.489257812 l 1
 429.180664062 775.873046875 471.180664062 760.04296875 508 727 c 0
 510 725 513.5 722.5 518.5 719.5 c 0
 523.5 716.5 527 714 529 712 c 2
 454 587 l 1
 446 593.666992188 438.666992188 598.666992188 432 602 c 0
 415.936523438 610.876953125 399.26953125 615.533203125 382 615.966796875 c 1
 382 400.544921875 l 1
 401.361328125 388.936523438 418.361328125 377.254882812 433 365.5 c 0
 455 347.833007812 474.166992188 327.333007812 490.5 304 c 0
 506.833007812 280.666992188 514.5 254.333007812 513.5 225 c 0
 512.5 195.666992188 502 164 482 130 c 0
 458.666992188 90.6669921875 425.5 58.1669921875 382.5 32.5 c 0
 382.333007812 32.400390625 382.166992188 32.30078125 382 32.2021484375 c 2
 382 -182 l 1
 303 -182 l 1
 303 -0.345703125 l 1
 285.934570312 -4.318359375 268.767578125 -6.3701171875 251.5 -6.5 c 0
 207.166992188 -6.8330078125 167 9.3330078125 131 42 c 0
 129 44 125.5 46.5 120.5 49.5 c 0
 115.5 52.5 112 55 110 57 c 2
EndSplineSet
EndChar

StartChar: percent
Encoding: 37 37 4
Width: 691
VWidth: 0
Flags: HW
HStem: 82 75<548.188 571.812> 264 75<548.188 571.812> 483 75<243.188 266.812> 665 75<243.188 266.812>
VStem: 125 76<568.334 654.111> 309 76<568.933 653.698> 430 76<167.334 253.111> 614 76<167.933 252.698>
LayerCount: 2
Fore
SplineSet
585 818 m 1
 691 757 l 1
 206 -83 l 1
 100 -22 l 1
 585 818 l 1
560 264 m 0
 556 264 552 263 548 262 c 1
 548 263 l 1
 523 258 506 236 506 210 c 0
 506 184 523 163 548 158 c 1
 548 159 l 1
 552 158 556 157 560 157 c 0
 564 157 568 158 572 159 c 1
 572 158 l 1
 597 163 614 184 614 210 c 0
 614 236 597 258 572 263 c 1
 572 262 l 1
 568 263 564 264 560 264 c 0
559 82 m 0
 558 82 558 82 557 82 c 0
 555 82 552 82 550 82 c 0
 483 87 430 142 430 210 c 0
 430 278 483 334 550 339 c 0
 552 339 555 339 557 339 c 0
 558 339 558 339 559 339 c 0
 560 339 560 339 561 339 c 0
 633 339 690 282 690 210 c 0
 690 139 633 82 561 82 c 0
 560 82 560 82 559 82 c 0
255 665 m 4
 251 665 247 664 243 663 c 5
 243 664 l 5
 218 659 201 637 201 611 c 4
 201 585 218 564 243 559 c 5
 243 560 l 5
 247 559 251 558 255 558 c 4
 259 558 263 559 267 560 c 5
 267 559 l 5
 292 564 309 585 309 611 c 4
 309 637 292 659 267 664 c 5
 267 663 l 5
 263 664 259 665 255 665 c 4
254 483 m 4
 253 483 253 483 252 483 c 4
 250 483 247 483 245 483 c 4
 178 488 125 543 125 611 c 4
 125 679 178 735 245 740 c 4
 247 740 250 740 252 740 c 4
 253 740 253 740 254 740 c 4
 255 740 255 740 256 740 c 4
 328 740 385 683 385 611 c 4
 385 540 328 483 256 483 c 4
 255 483 255 483 254 483 c 4
EndSplineSet
EndChar

StartChar: ampersand
Encoding: 38 38 5
Width: 649
VWidth: 0
Flags: HW
HStem: 3 151<300.364 371.357> 498 20G<347.268 369.279>
VStem: 106.893 151<196.066 271.468>
LayerCount: 2
Fore
SplineSet
371.578125 157.893554688 m 1
 258.534179688 272.051757812 l 1
 258.110351562 268.1015625 257.892578125 264.081054688 257.892578125 260 c 0
 257.892578125 201 304.892578125 154 364.892578125 154 c 0
 365.63671875 154 367.953125 155.373046875 371.578125 157.893554688 c 1
438.892578125 810 m 1
 435.892578125 691 l 1
 410.892578125 689 292.892578125 624 273.892578125 605 c 0
 250.892578125 582 240.892578125 551 242.892578125 521 c 1
 265.551757812 498.340820312 l 1
 296.095703125 511.012695312 329.643554688 518 364.892578125 518 c 0
 373.666015625 518 382.338867188 517.560546875 390.892578125 516.704101562 c 1
 390.892578125 373 l 1
 502.024414062 261.868164062 l 1
 559.897460938 309.09375 614.953125 354.163085938 618.892578125 355.131835938 c 1
 618.892578125 202.295898438 l 2
 617.041015625 202.110351562 604.50390625 192.668945312 585.904296875 177.98828125 c 1
 649.892578125 114 l 1
 531.892578125 -4 l 1
 455.688476562 72.955078125 l 1
 408.41015625 34.77734375 368.403320312 3 364.892578125 3 c 0
 221.892578125 3 106.892578125 118 106.892578125 260 c 0
 106.892578125 307.479492188 119.5703125 351.873046875 141.741210938 389.995117188 c 1
 125.892578125 406 l 1
 70.81640625 505.021484375 112.696289062 608.463867188 166.892578125 712 c 0
 193.875 763.546875 406.1484375 829.728515625 438.892578125 810 c 1
EndSplineSet
EndChar

StartChar: quotesingle
Encoding: 39 39 6
Width: 252
VWidth: 0
Flags: HW
HStem: 532 257<100 252>
VStem: 100 152<532 789>
LayerCount: 2
Fore
SplineSet
100 532 m 1
 100 789 l 1
 252 789 l 1
 252 532 l 1
 100 532 l 1
EndSplineSet
EndChar

StartChar: parenleft
Encoding: 40 40 7
Width: 555
VWidth: 0
Flags: HW
HStem: -14 25<423.819 510.389> 744 29<414.924 505.227>
VStem: 100 104<252.783 504.708>
LayerCount: 2
Fore
SplineSet
482 744 m 1
 354 744 204 579 204 378 c 0
 204 176 354 11 482 11 c 1
 555 -7 l 1
 531 -12 507 -14 482 -14 c 0
 271 -14 100 162 100 380 c 0
 100 597 271 773 482 773 c 0
 507 773 531 771 555 766 c 1
 482 744 l 1
EndSplineSet
EndChar

StartChar: parenright
Encoding: 41 41 8
Width: 555
VWidth: 0
Flags: HW
HStem: -14 25<144.611 231.181> 744 29<149.773 240.076>
VStem: 451 104<252.783 504.708>
LayerCount: 2
Fore
SplineSet
173 744 m 1
 100 766 l 1
 124 771 148 773 173 773 c 0
 384 773 555 597 555 380 c 0
 555 162 384 -14 173 -14 c 0
 148 -14 124 -12 100 -7 c 1
 173 11 l 1
 301 11 451 176 451 378 c 0
 451 579 301 744 173 744 c 1
EndSplineSet
EndChar

StartChar: asterisk
Encoding: 42 42 9
Width: 644
VWidth: 0
Flags: HW
HStem: 344 152<100 189 555 644>
VStem: 296 152<149 237 603 692>
LayerCount: 2
Fore
SplineSet
644 496 m 1
 644 344 l 1
 555 344 l 1
 618 281 l 1
 511 174 l 1
 448 237 l 1
 448 149 l 1
 296 149 l 1
 296 237 l 1
 233 174 l 1
 126 281 l 1
 189 344 l 1
 100 344 l 1
 100 496 l 1
 189 496 l 1
 126 559 l 1
 233 666 l 1
 296 603 l 1
 296 692 l 1
 448 692 l 1
 448 603 l 1
 511 666 l 1
 618 559 l 1
 555 496 l 1
 644 496 l 1
EndSplineSet
EndChar

StartChar: plus
Encoding: 43 43 10
Width: 644
VWidth: 0
Flags: HW
HStem: 344 152<100 644>
VStem: 296 152<149 692>
LayerCount: 2
Fore
SplineSet
296 692 m 1
 448 692 l 1
 448 496 l 1
 644 496 l 1
 644 344 l 1
 448 344 l 1
 448 149 l 1
 296 149 l 1
 296 344 l 1
 100 344 l 1
 100 496 l 1
 296 496 l 1
 296 692 l 1
EndSplineSet
EndChar

StartChar: comma
Encoding: 44 44 11
Width: 252
VWidth: 0
Flags: HW
HStem: -134 274<142.767 195.182>
VStem: 100 152<-2 140>
LayerCount: 2
Fore
SplineSet
100 -2 m 1
 100 140 l 1
 252 140 l 1
 252 -2 l 1
 192 -134 l 1
 134 -130 l 1
 142.767578125 -2 l 1
 100 -2 l 1
EndSplineSet
EndChar

StartChar: hyphen
Encoding: 45 45 12
Width: 644
VWidth: 0
Flags: HW
HStem: 344 152<100 644>
LayerCount: 2
Fore
SplineSet
644 496 m 1
 644 344 l 1
 100 344 l 1
 100 496 l 1
 644 496 l 1
EndSplineSet
EndChar

StartChar: period
Encoding: 46 46 13
Width: 252
VWidth: 0
Flags: HW
HStem: -2 142<100 252>
VStem: 100 152<-2 140>
LayerCount: 2
Fore
SplineSet
100 -2 m 1
 100 140 l 1
 252 140 l 1
 252 -2 l 1
 100 -2 l 1
EndSplineSet
EndChar

StartChar: slash
Encoding: 47 47 14
Width: 691
VWidth: 0
Flags: HW
LayerCount: 2
Fore
SplineSet
585 818 m 1
 691 757 l 1
 206 -83 l 1
 100 -22 l 1
 585 818 l 1
EndSplineSet
EndChar

StartChar: zero
Encoding: 48 48 15
Width: 864
VWidth: 0
Flags: HW
HStem: -14 157<406.32 558.56> 612 161<406.32 558.56>
VStem: 176.5 122<271.459 485.999> 665.5 122<268.943 488.503>
LayerCount: 2
Fore
SplineSet
665.5 378 m 0
 665.5 507 584.5 612 482.5 612 c 0
 380.5 612 298.5 507 298.5 378 c 0
 298.5 248 380.5 143 482.5 143 c 0
 584.5 143 665.5 248 665.5 378 c 0
787.5 380 m 0
 787.5 162 651.5 -14 482.5 -14 c 0
 313.5 -14 176.5 162 176.5 380 c 0
 176.5 597 313.5 773 482.5 773 c 0
 651.5 773 787.5 597 787.5 380 c 0
EndSplineSet
EndChar

StartChar: one
Encoding: 49 49 16
Width: 436
VWidth: 0
Flags: HW
HStem: -2 21G<284 436> 754 20G<284 436>
VStem: 284 152<-2 774>
LayerCount: 2
Fore
SplineSet
208 487 m 1
 100 594 l 1
 282 776 l 1
 284.018554688 774 l 1
 436 774 l 1
 436 -2 l 1
 284 -2 l 1
 284 563 l 1
 208 487 l 1
EndSplineSet
EndChar

StartChar: two
Encoding: 50 50 17
Width: 555
VWidth: 0
Flags: HW
HStem: 0 226<108.075 294.22> 586 128.801<108.091 284.536>
VStem: 409 153<324.465 477.36>
LayerCount: 2
Fore
SplineSet
180 586 m 0
 154.4453125 586 129.903320312 582.599609375 107 576.325195312 c 1
 107 709.06640625 l 1
 130.62890625 712.829101562 155.034179688 714.80078125 180 714.80078125 c 0
 391 714.80078125 562 574 562 400.400390625 c 0
 562 270.616210938 467.301757812 167.858398438 331.891601562 123.775390625 c 1
 607 126.400390625 l 1
 607 4.80078125 l 1
 104 0 l 1
 107 235.682617188 l 1
 129.903320312 229.401367188 154.4453125 226 180 226 c 0
 307 226 409 294.80078125 409 398.80078125 c 0
 409 502 307 586 180 586 c 0
EndSplineSet
EndChar

StartChar: three
Encoding: 51 51 18
Width: 435
VWidth: 0
Flags: HW
HStem: -6.12012 122.31<100 227.642> 288.149 122.641<151.207 248.605> 582.75 122.311<106 230.704>
VStem: 284 151<159.615 254.202 444.41 539.831>
LayerCount: 2
Fore
SplineSet
100 -5.0703125 m 1
 100 118.7265625 l 1
 108.326171875 117.068359375 117.036132812 116.189453125 126 116.189453125 c 0
 214.59765625 116.189453125 284 154.260742188 284 202.049804688 c 0
 284 247.192382812 243.44921875 283.25 189.595703125 288.15234375 c 0
 185.422851562 287.991210938 181.223632812 287.91015625 177 287.91015625 c 0
 172.829101562 287.91015625 168.681640625 287.990234375 164.55859375 288.149414062 c 0
 159.943359375 287.72265625 155.41796875 287.061523438 151 286.1796875 c 1
 151 288.959960938 l 1
 151 409.979492188 l 1
 151 412.756835938 l 1
 155.41796875 411.876953125 159.943359375 411.216796875 164.557617188 410.790039062 c 0
 168.681640625 410.94921875 172.829101562 411.030273438 177 411.030273438 c 0
 181.224609375 411.030273438 185.423828125 410.948242188 189.59765625 410.787109375 c 0
 243.450195312 415.686523438 284 451.690429688 284 496.080078125 c 0
 284 544.6796875 217.233398438 582.75 132 582.75 c 0
 123.036132812 582.75 114.326171875 581.87109375 106 580.209960938 c 1
 106 704.009765625 l 1
 114.553710938 704.704101562 123.2265625 705.060546875 132 705.060546875 c 0
 299.94140625 705.060546875 435 611.91015625 435 496.080078125 c 0
 435 438.852539062 406.532226562 387.0390625 360.310546875 349.418945312 c 1
 406.532226562 311.696289062 435 259.680664062 435 202.049804688 c 0
 435 87.0302734375 297.267578125 -6.1201171875 126 -6.1201171875 c 0
 117.2265625 -6.1201171875 108.553710938 -5.7646484375 100 -5.0703125 c 1
EndSplineSet
EndChar

StartChar: four
Encoding: 52 52 19
Width: 752
VWidth: 0
Flags: HW
HStem: 191.015 150<337.765 435.765> 754 20G<418.718 572.766>
VStem: 435.765 137.001<341.015 521.015> 443.764 129.002<0 192.015>
LayerCount: 2
Fore
SplineSet
435.764648438 341.014648438 m 1
 435.764648438 521.014648438 l 1
 337.764648438 344.014648438 l 1
 435.764648438 341.014648438 l 1
443.763671875 0 m 1
 443.763671875 192.014648438 l 1
 442.764648438 191.014648438 l 1
 107.764648438 191.014648438 l 1
 429.764648438 774 l 1
 572.765625 774 l 1
 572.765625 0 l 1
 443.763671875 0 l 1
EndSplineSet
EndChar

StartChar: five
Encoding: 53 53 20
Width: 384
VWidth: 0
Flags: HW
HStem: 3 151<100 190.529> 622 152<252 417>
VStem: 100 152<471.593 622> 233 151<196.066 325.061>
LayerCount: 2
Fore
SplineSet
100 4 m 1
 100 157 l 1
 108 155 117 154 126 154 c 0
 186 154 233 201 233 260 c 0
 233 320 186 367 126 367 c 0
 117 367 108 366 100 364 c 1
 100 397 l 1
 100 517 l 1
 100 773 l 1
 101 773 l 1
 101 774 l 1
 418 774 l 1
 417 622 l 1
 252 622 l 1
 252 485 l 1
 331 441 384 357 384 260 c 0
 384 118 269 3 126 3 c 0
 117 3 109 3 100 4 c 1
EndSplineSet
EndChar

StartChar: six
Encoding: 54 54 21
Width: 729
VWidth: 0
Flags: HW
HStem: 612 161<387.002 599.858>
VStem: 100 224<251.187 324.857> 542 167<195.982 323.016>
LayerCount: 2
Fore
SplineSet
432.955078125 366.982421875 m 0
 424.642578125 367.12890625 416.393554688 365.848632812 409 364 c 1
 409 364.828125 l 1
 359.8984375 354.9453125 324 312.4375 324 260 c 0
 324 224.543945312 340.973632812 193.420898438 367.541992188 174.228515625 c 0
 377.942382812 168.08203125 388.862304688 162.750976562 400.22265625 158.317382812 c 0
 403.096679688 157.485351562 406.024414062 156.767578125 409 156.169921875 c 1
 409 157 l 1
 416.393554688 155.151367188 424.642578125 154.157226562 432.955078125 154.017578125 c 0
 441.23046875 154.163085938 449.280273438 155.234375 457 157.131835938 c 1
 457 156.169921875 l 1
 506.1015625 166.0390625 542 208.436523438 542 260 c 0
 542 312.4375 506.1015625 354.9453125 457 364.828125 c 1
 457 363.864257812 l 1
 449.280273438 365.765625 441.23046875 366.836914062 432.955078125 366.982421875 c 0
482 612 m 0
 367.669921875 612 273.6015625 526.90625 255.969726562 415.8125 c 1
 299.354492188 463.500976562 360.4609375 494.749023438 429.12890625 499.397460938 c 0
 434.006835938 499.727539062 438.66015625 499.930664062 443.451171875 499.9765625 c 0
 444.631835938 499.98828125 445.815429688 500 447 500 c 0
 447.301757812 500 447.603515625 499.999023438 447.905273438 499.998046875 c 0
 448.92578125 500 449.956054688 500 451 500 c 0
 574.041992188 500 676.35546875 414.859375 702.516601562 300 c 0
 706.759765625 281.370117188 709 261.958007812 709 242 c 0
 709 214.854492188 704.797851562 188.6953125 697 164.138671875 c 0
 677.598632812 103.034179688 635.939453125 51.8447265625 581.387695312 20.041015625 c 0
 549.198242188 -2.3076171875 515.973632812 -14 482 -14 c 0
 479.5859375 -14 477.176757812 -13.9765625 474.772460938 -13.9306640625 c 0
 466.946289062 -14.638671875 459.017578125 -15 451 -15 c 0
 449.956054688 -15 448.92578125 -14.998046875 447.90625 -14.998046875 c 0
 447.604492188 -14.998046875 447.301757812 -15 447 -15 c 0
 445.815429688 -15 444.631835938 -14.9921875 443.451171875 -14.9765625 c 0
 438.662109375 -14.9130859375 434.004882812 -14.794921875 429.133789062 -14.3974609375 c 0
 375.603515625 -10.0244140625 326.633789062 9.9453125 287.079101562 40.984375 c 1
 175.05859375 109.575195312 100 235.5703125 100 380 c 0
 100 597 271 773 482 773 c 0
 506.965820312 773 577.37109375 770.536132812 601 765.83203125 c 1
 601 599.90625 l 1
 578.096679688 607.749023438 507.5546875 612 482 612 c 0
EndSplineSet
EndChar

StartChar: seven
Encoding: 55 55 22
Width: 610
VWidth: 0
Flags: HW
HStem: 610 152<100 439>
LayerCount: 2
Fore
SplineSet
263 0 m 1
 101 0 l 1
 439 610 l 1
 100 610 l 1
 100 762 l 1
 610 762 l 1
 610 610 l 1
 263 0 l 1
EndSplineSet
EndChar

StartChar: eight
Encoding: 56 56 23
Width: 616
VWidth: 0
Flags: HW
HStem: 366.983 92.0348<336.347 383.638>
VStem: 100 151<197.14 324.826 500.772 628.449> 469 151<195.844 324.826 500.772 629.753>
LayerCount: 2
Fore
SplineSet
359.037109375 3.201171875 m 0
 358.771484375 3.201171875 358.505859375 3.2001953125 358.240234375 3.2001953125 c 0
 357.197265625 3.2001953125 356.15625 3.2060546875 355.116210938 3.220703125 c 0
 350.90234375 3.2607421875 346.8046875 3.380859375 342.518554688 3.7294921875 c 0
 224.077148438 11.744140625 131.200195312 109.6484375 131.200195312 229.359375 c 0
 131.200195312 279.814453125 147.467773438 326.307617188 175.0703125 363.905273438 c 1
 147.467773438 401.375976562 131.200195312 447.659179688 131.200195312 497.759765625 c 0
 131.200195312 618.3125 224.075195312 716.250976562 342.513671875 724.26953125 c 0
 346.801757812 724.619140625 350.901367188 724.73828125 355.116210938 724.779296875 c 0
 356.15625 724.793945312 357.197265625 724.799804688 358.240234375 724.799804688 c 0
 358.505859375 724.799804688 358.771484375 724.798828125 359.036132812 724.797851562 c 0
 359.934570312 724.799804688 360.840820312 724.799804688 361.759765625 724.799804688 c 0
 487.599609375 724.799804688 588.799804688 623.599609375 588.799804688 497.759765625 c 0
 588.799804688 447.659179688 572.532226562 401.375976562 544.9296875 363.905273438 c 1
 572.532226562 326.307617188 588.799804688 279.814453125 588.799804688 229.359375 c 0
 588.799804688 104.400390625 487.599609375 3.2001953125 361.759765625 3.2001953125 c 0
 360.840820312 3.2001953125 359.934570312 3.201171875 359.037109375 3.201171875 c 0
359.959960938 591.904296875 m 0
 352.64453125 591.78125 345.38671875 590.907226562 338.879882812 589.279296875 c 1
 338.879882812 590.008789062 l 1
 295.669921875 581.3125 264.080078125 543.904296875 264.080078125 497.759765625 c 0
 264.080078125 452.384765625 295.669921875 415.075195312 338.879882812 406.389648438 c 1
 338.879882812 407.120117188 l 1
 345.38671875 405.493164062 352.64453125 404.618164062 359.959960938 404.49609375 c 0
 367.2421875 404.624023438 374.327148438 405.565429688 381.120117188 407.236328125 c 1
 381.120117188 406.389648438 l 1
 424.330078125 415.075195312 455.919921875 452.384765625 455.919921875 497.759765625 c 0
 455.919921875 543.904296875 424.330078125 581.3125 381.120117188 590.008789062 c 1
 381.120117188 589.16015625 l 1
 374.327148438 590.833984375 367.2421875 591.776367188 359.959960938 591.904296875 c 0
359.959960938 323.504882812 m 0
 352.64453125 323.381835938 345.38671875 322.505859375 338.879882812 320.879882812 c 1
 338.879882812 321.609375 l 1
 295.669921875 312.912109375 264.080078125 275.504882812 264.080078125 229.359375 c 0
 264.080078125 183.984375 295.669921875 146.673828125 338.879882812 137.990234375 c 1
 338.879882812 138.720703125 l 1
 345.38671875 137.09375 352.64453125 136.21875 359.959960938 136.094726562 c 0
 367.243164062 136.223632812 374.327148438 137.166015625 381.120117188 138.8359375 c 1
 381.120117188 137.990234375 l 1
 424.330078125 146.673828125 455.919921875 183.984375 455.919921875 229.359375 c 0
 455.919921875 275.504882812 424.330078125 312.912109375 381.120117188 321.609375 c 1
 381.120117188 320.760742188 l 1
 374.327148438 322.434570312 367.243164062 323.375976562 359.959960938 323.504882812 c 0
EndSplineSet
EndChar

StartChar: nine
Encoding: 57 57 24
Width: 729
VWidth: 0
Flags: HW
HStem: -15 161<209.125 422.237> 753 20G<353.991 358.522 361.849 362.592>
VStem: 100 167<434.984 562.018> 485 224<269.5 508.141>
LayerCount: 2
Fore
SplineSet
376.044921875 391.017578125 m 0
 384.357421875 390.87109375 392.606445312 392.151367188 400 394 c 1
 400 393.171875 l 1
 449.1015625 403.0546875 485 445.5625 485 498 c 0
 485 533.456054688 468.026367188 564.579101562 441.458007812 583.771484375 c 0
 431.057617188 589.91796875 420.137695312 595.249023438 408.77734375 599.682617188 c 0
 405.903320312 600.514648438 402.975585938 601.232421875 400 601.830078125 c 1
 400 601 l 1
 392.606445312 602.848632812 384.357421875 603.842773438 376.044921875 603.982421875 c 0
 367.76953125 603.836914062 359.719726562 602.765625 352 600.868164062 c 1
 352 601.830078125 l 1
 302.8984375 591.9609375 267 549.563476562 267 498 c 0
 267 445.5625 302.8984375 403.0546875 352 393.171875 c 1
 352 394.135742188 l 1
 359.719726562 392.234375 367.76953125 391.163085938 376.044921875 391.017578125 c 0
327 146 m 0
 441.330078125 146 535.3984375 231.09375 553.030273438 342.1875 c 1
 509.645507812 294.499023438 448.5390625 263.250976562 379.87109375 258.602539062 c 0
 374.993164062 258.272460938 370.33984375 258.069335938 365.548828125 258.0234375 c 0
 364.368164062 258.01171875 363.184570312 258 362 258 c 0
 361.698242188 258 361.396484375 258.000976562 361.094726562 258.001953125 c 0
 360.07421875 258 359.043945312 258 358 258 c 0
 234.958007812 258 132.64453125 343.140625 106.483398438 458 c 0
 102.240234375 476.629882812 100 496.041992188 100 516 c 0
 100 543.145507812 104.202148438 569.3046875 112 593.861328125 c 0
 131.401367188 654.965820312 173.060546875 706.155273438 227.612304688 737.958984375 c 0
 259.801757812 760.307617188 293.026367188 772 327 772 c 0
 329.4140625 772 331.823242188 771.9765625 334.227539062 771.930664062 c 0
 342.053710938 772.638671875 349.982421875 773 358 773 c 0
 359.043945312 773 360.07421875 772.998046875 361.09375 772.998046875 c 0
 361.395507812 772.998046875 361.698242188 773 362 773 c 0
 363.184570312 773 364.368164062 772.9921875 365.548828125 772.9765625 c 0
 370.337890625 772.913085938 374.995117188 772.794921875 379.866210938 772.397460938 c 0
 433.396484375 768.024414062 482.366210938 748.0546875 521.920898438 717.015625 c 1
 633.94140625 648.424804688 709 522.4296875 709 378 c 0
 709 161 538 -15 327 -15 c 0
 302.034179688 -15 231.62890625 -12.5361328125 208 -7.83203125 c 1
 208 158.09375 l 1
 230.903320312 150.250976562 301.4453125 146 327 146 c 0
EndSplineSet
EndChar

StartChar: colon
Encoding: 58 58 25
Width: 252
VWidth: 0
Flags: HW
HStem: -2 142<100 252> 398 142<100 252>
VStem: 100 152<-2 140 398 540>
LayerCount: 2
Fore
SplineSet
100 -2 m 1
 100 140 l 1
 252 140 l 1
 252 -2 l 1
 100 -2 l 1
100 398 m 1
 100 540 l 1
 252 540 l 1
 252 398 l 1
 100 398 l 1
EndSplineSet
EndChar

StartChar: semicolon
Encoding: 59 59 26
Width: 252
VWidth: 0
Flags: HW
HStem: 398 142<100 252>
VStem: 100 152<-2 140 398 540>
LayerCount: 2
Fore
SplineSet
100 398 m 1
 100 540 l 1
 252 540 l 1
 252 398 l 1
 100 398 l 1
100 -2 m 1
 100 140 l 1
 252 140 l 1
 252 -2 l 1
 192 -134 l 1
 134 -130 l 1
 142.767578125 -2 l 1
 100 -2 l 1
EndSplineSet
EndChar

StartChar: less
Encoding: 60 60 27
Width: 644
VWidth: 0
Flags: HW
LayerCount: 2
Fore
SplineSet
644 546 m 1
 644 394 l 1
 429.895507812 337.71875 l 1
 644 296 l 1
 644 144 l 1
 100 250 l 1
 100 251 l 1
 100 402 l 1
 100 403 l 1
 644 546 l 1
EndSplineSet
EndChar

StartChar: equal
Encoding: 61 61 28
Width: 644
VWidth: 0
Flags: HW
HStem: 144 152<100 644> 394 152<100 644>
LayerCount: 2
Fore
SplineSet
644 546 m 1
 644 394 l 1
 100 394 l 1
 100 546 l 1
 644 546 l 1
644 296 m 1
 644 144 l 1
 100 144 l 1
 100 296 l 1
 644 296 l 1
EndSplineSet
EndChar

StartChar: greater
Encoding: 62 62 29
Width: 644
VWidth: 0
Flags: HW
LayerCount: 2
Fore
SplineSet
100 546 m 1
 644 403 l 1
 644 402 l 1
 644 251 l 1
 644 250 l 1
 100 144 l 1
 100 296 l 1
 314 338 l 1
 100 394 l 1
 100 546 l 1
EndSplineSet
EndChar

StartChar: question
Encoding: 63 63 30
Width: 384
VWidth: 0
Flags: HW
HStem: -2 142<100 252> 230 238<100 194.438> 678 151<100 190.529>
VStem: 100 152<-2 140 230 359.991> 233 151<508.983 635.934>
LayerCount: 2
Fore
SplineSet
100 828 m 1
 109 829 117 829 126 829 c 0
 269 829 384 714 384 572 c 0
 384 474.831054688 330.901367188 390.58984375 252 346.573242188 c 1
 252 230 l 1
 100 230 l 1
 100 315 l 1
 100 440 l 1
 100 468 l 1
 108 466 117 465 126 465 c 0
 186 465 233 512 233 572 c 0
 233 631 186 678 126 678 c 0
 117 678 108 677 100 675 c 1
 100 828 l 1
100 -2 m 1
 100 140 l 1
 252 140 l 1
 252 -2 l 1
 100 -2 l 1
EndSplineSet
EndChar

StartChar: at
Encoding: 64 64 31
Width: 864
VWidth: 0
Flags: HW
HStem: 239 75<481.227 523> 421 71<481.227 535>
VStem: 393 76<325.505 409.715> 535 83.0107<315.318 421> 535 76<318.62 421>
LayerCount: 2
Fore
SplineSet
611 236 m 1025xe8
574 166 m 1025xe0
537 228 m 1
 523 239 l 1
 451 239 393 296 393 368 c 0
 393 439 451 492 523 492 c 0
 527 492 531 492 535 492 c 2
 611 492 l 1
 618.010742188 318.353515625 l 2
 622.831054688 287.021484375 703.69921875 219.975585938 712 326 c 0
 711.986328125 327.467773438 707.7578125 340.56640625 708 342 c 0
 720 413 699 487 645 541 c 0
 555 631 409 628 318 537 c 0
 226 445 224 299 314 209 c 0
 384 139 488 125 574 166 c 0
 598 177 687 54 687 54 c 1
 535 -46 333 -32 203 98 c 0
 54 247 57 493 211 647 c 0
 364 800 610 804 759 655 c 0
 873 541 900 362 837 220 c 1
 729.654296875 157.57421875 634.088867188 199.5390625 537 228 c 1
535 420 m 1
 531 421 527 421 523 421 c 0
 493 421 469 398 469 368 c 0
 469 338 493 314 523 314 c 0
 527 314 531 315 535 316 c 1
 535 420 l 1
EndSplineSet
EndChar

StartChar: A
Encoding: 65 65 32
Width: 752
VWidth: 0
Flags: HW
HStem: 227 140<347.449 456.827>
LayerCount: 2
Fore
SplineSet
456.827148438 367 m 1
 407.200195312 535.223632812 l 1
 347.448242188 367 l 1
 456.827148438 367 l 1
600 0 m 1
 511 228.13671875 l 1
 511 227 l 1
 311.038085938 227 l 1
 252 0 l 1
 100 0 l 1
 316 769 l 1
 468 769 l 1
 752 0 l 1
 600 0 l 1
EndSplineSet
EndChar

StartChar: B
Encoding: 66 66 33
Width: 512
VWidth: 0
Flags: HW
HStem: 4 129<252.375 340.409> 346 105<252.375 340.409> 664 116<252.375 340.409>
VStem: 100 152<133.026 345.974 451.026 663.974 779.664 780> 383 151<176.465 303.767 492.806 610.788>
LayerCount: 2
Fore
SplineSet
252 454 m 1
 260 452 268 451 276 451 c 0
 336 451 383 498 383 557 c 0
 383 617 336 664 276 664 c 0
 268 664 260 663 252 661 c 1
 252 454 l 1
252 136 m 1
 260 134 268 133 276 133 c 0
 336 133 383 180 383 239 c 0
 383 299 336 346 276 346 c 0
 268 346 260 345 252 343 c 1
 252 136 l 1
252 780 m 1
 252 779.6640625 l 1
 257.96484375 780 263.740234375 780 270 780 c 0
 413 780 528 665 528 522 c 0
 528 471.500976562 470 429 445 396 c 1
 474 361 534 314.768554688 534 260 c 0
 534 118 419 3 276 3 c 0
 268 3 260 3 252 4 c 2
 100 4 l 1
 100 780 l 1
 252 780 l 1
EndSplineSet
EndChar

StartChar: C
Encoding: 67 67 34
Width: 555
VWidth: 0
Flags: HW
HStem: -14 157<387.027 553.909> 612 161<387.027 553.909>
VStem: 100 153<281.299 476.2>
LayerCount: 2
Fore
SplineSet
482 612 m 0
 355 612 253 507 253 378 c 0
 253 248 355 143 482 143 c 0
 507.5546875 143 532.096679688 147.250976562 555 155.102539062 c 1
 555 -6.830078125 l 1
 531.37109375 -11.5361328125 506.965820312 -14 482 -14 c 0
 271 -14 100 162 100 380 c 0
 100 597 271 773 482 773 c 0
 506.965820312 773 531.37109375 770.536132812 555 765.83203125 c 1
 555 599.90625 l 1
 532.096679688 607.749023438 507.5546875 612 482 612 c 0
EndSplineSet
EndChar

StartChar: D
Encoding: 68 68 35
Width: 630
VWidth: 0
Flags: HW
HStem: -13.9789 157.014<252 337.489> 611.965 161.035<252 343.477>
VStem: 100 152<-14 -13.9789 143.035 611.965> 477 153<282.064 475.736>
LayerCount: 2
Fore
SplineSet
252 143.03515625 m 1
 377.134765625 145.211914062 477 249.368164062 477 378 c 0
 477 505.642578125 377.134765625 609.788085938 252 611.96484375 c 1
 252 143.03515625 l 1
100 768 m 1
 149.62109375 760.911132812 198.3828125 773 248 773 c 0
 459 773 630 597 630 380 c 0
 630 163.37890625 461.157226562 -11.771484375 252 -13.978515625 c 2
 100 -14 l 1
 100 768 l 1
EndSplineSet
EndChar

StartChar: E
Encoding: 69 69 36
Width: 668
VWidth: 0
Flags: HW
HStem: -3 152<252 667> 333 152<252 559> 626 152<252 667>
VStem: 100 568<-3 149 626 778> 100 152<149 333 485 626>
LayerCount: 2
Fore
SplineSet
559 485 m 1
 560 333 l 1
 252 333 l 1
 252 149 l 1
 667 149 l 1
 668 -3 l 1
 101 -3 l 1
 100.993164062 -2 l 1
 100 -2 l 1
 100 774 l 1
 100.026367188 774 l 1
 100 778 l 1
 667 778 l 1
 668 626 l 1
 252 626 l 1
 252 485 l 1
 559 485 l 1
EndSplineSet
EndChar

StartChar: F
Encoding: 70 70 37
Width: 668
VWidth: 0
Flags: HW
HStem: -2 21G<100 252> 333 152<252 559> 626 152<252 667>
VStem: 100 152<-2 333 485 626>
LayerCount: 2
Fore
SplineSet
559 485 m 1
 560 333 l 1
 252 333 l 1
 252 -2 l 1
 100 -2 l 1
 100 774 l 1
 100.026367188 774 l 1
 100 778 l 1
 667 778 l 1
 668 626 l 1
 252 626 l 1
 252 485 l 1
 559 485 l 1
EndSplineSet
EndChar

StartChar: G
Encoding: 71 71 38
Width: 651
VWidth: 0
Flags: HW
HStem: -14 157<387.532 499> 612 161<387.027 553.909>
VStem: 100 153<281.299 476.2> 499 152<-14 -13.6178 143 313>
LayerCount: 2
Fore
SplineSet
482 612 m 0
 355 612 253 507 253 378 c 0
 253 248 355 143 482 143 c 0
 487.719726562 143 493.388671875 143.212890625 499 143.631835938 c 1
 499 313 l 1
 651 313 l 1
 651 -14 l 1
 499 -14 l 1
 499 -13.6181640625 l 1
 493.364257812 -13.8720703125 487.696289062 -14 482 -14 c 0
 271 -14 100 162 100 380 c 0
 100 597 271 773 482 773 c 0
 506.965820312 773 531.37109375 770.536132812 555 765.83203125 c 1
 555 599.90625 l 1
 532.096679688 607.749023438 507.5546875 612 482 612 c 0
EndSplineSet
EndChar

StartChar: H
Encoding: 72 72 39
Width: 652
VWidth: 0
Flags: HW
HStem: -2 21G<100 252 500 652> 333 152<252 500> 754 20G<100 252 500 652>
VStem: 100 152<-2 333 485 774> 500 152<-2 333 485 774>
LayerCount: 2
Fore
SplineSet
500 774 m 1
 652 774 l 1
 652 -2 l 1
 500 -2 l 1
 500 333 l 1
 252 333 l 1
 252 -2 l 1
 100 -2 l 1
 100 774 l 1
 252 774 l 1
 252 485 l 1
 500 485 l 1
 500 774 l 1
EndSplineSet
EndChar

StartChar: I
Encoding: 73 73 40
Width: 252
VWidth: 0
Flags: HW
HStem: -2 21G<100 252> 754 20G<100 252>
VStem: 100 152<-2 774>
LayerCount: 2
Fore
SplineSet
100 774 m 1
 252 774 l 1
 252 -2 l 1
 100 -2 l 1
 100 774 l 1
EndSplineSet
EndChar

StartChar: J
Encoding: 74 74 41
Width: 419
VWidth: 0
Flags: HW
HStem: -3 151<105.445 235.159> 741 20G<252 419>
VStem: 252 164<168.881 761>
LayerCount: 2
Fore
SplineSet
100 6 m 1
 100 174 l 1
 119 158 144 148 171 148 c 0
 204 148 232 162 252 185 c 1
 252 761 l 1
 419 761 l 1
 416 184 l 1
 385 75 289 -3 171 -3 c 0
 146 -3 123 0 100 6 c 1
EndSplineSet
EndChar

StartChar: K
Encoding: 75 75 42
Width: 703
VWidth: 0
Flags: HW
HStem: -2 20G<100 252 561 736.026> 754 20G<100 252>
VStem: 100 152<-2 218.505 432.895 774>
LayerCount: 2
Fore
SplineSet
100 774 m 1
 252 774 l 1
 252 432.89453125 l 1
 497 770 l 1
 683 768 l 1
 422 387 l 1
 753 -3 l 1
 561 -2 l 1
 309.208007812 301.887695312 l 1
 252 218.504882812 l 1
 252 -2 l 1
 100 -2 l 1
 100 774 l 1
EndSplineSet
EndChar

StartChar: L
Encoding: 76 76 43
Width: 718
VWidth: 0
Flags: HW
HStem: -3 152<252 717> 754 20G<100 252>
VStem: 100 152<149 774>
LayerCount: 2
Fore
SplineSet
100 774 m 1
 252 774 l 1
 252 149 l 1
 717 149 l 1
 718 -3 l 1
 101 -3 l 1
 100.993164062 -2 l 1
 100 -2 l 1
 100 774 l 1
EndSplineSet
EndChar

StartChar: M
Encoding: 77 77 44
Width: 1052
VWidth: 0
Flags: HW
HStem: -2 21G<100 252 900 1052>
VStem: 100 152<-2 476.16> 900 152<-2 476.16>
LayerCount: 2
Fore
SplineSet
100 768 m 1
 252 768 l 1
 576 145.919921875 l 1
 900 768 l 1
 1052 768 l 1
 1052 -2 l 1
 900 -2 l 1
 900 476.16015625 l 1
 652 0 l 1
 500 0 l 1
 252 476.16015625 l 1
 252 -2 l 1
 100 -2 l 1
 100 768 l 1
EndSplineSet
EndChar

StartChar: N
Encoding: 78 78 45
Width: 852
VWidth: 0
Flags: HW
HStem: -2 21G<100 252 682.937 852> 754 20G<100 269.116 700 852>
VStem: 100 152<-2 523.101> 700 152<250.522 774>
LayerCount: 2
Fore
SplineSet
100 774 m 1
 252 774 l 1
 700 250.521484375 l 1
 700 774 l 1
 852 774 l 1
 852 -2 l 1
 700 -2 l 1
 252 523.1015625 l 1
 252 -2 l 1
 100 -2 l 1
 100 774 l 1
EndSplineSet
EndChar

StartChar: O
Encoding: 79 79 46
Width: 864
VWidth: 0
Flags: HW
HStem: -14 157<387.027 576.973> 612 161<387.027 576.973>
VStem: 100 153<278.712 478.774> 711 153<278.712 478.774>
LayerCount: 2
Fore
SplineSet
711 378 m 0
 711 507 609 612 482 612 c 0
 355 612 253 507 253 378 c 0
 253 248 355 143 482 143 c 0
 609 143 711 248 711 378 c 0
864 380 m 0
 864 162 693 -14 482 -14 c 0
 271 -14 100 162 100 380 c 0
 100 597 271 773 482 773 c 0
 693 773 864 597 864 380 c 0
EndSplineSet
EndChar

StartChar: P
Encoding: 80 80 47
Width: 534
VWidth: 0
Flags: HW
HStem: 265 151<252 340.529> 629 150<252.375 340.409>
VStem: 100 152<3 266 416.026 628.974> 383 151<458.471 586.934>
LayerCount: 2
Fore
SplineSet
252 626 m 1
 252 419 l 1
 260 417 268 416 276 416 c 0
 336 416 383 463 383 523 c 0
 383 582 336 629 276 629 c 0
 268 629 260 628 252 626 c 1
252 3 m 1
 100 3 l 1
 100 779 l 1
 252 779 l 2
 260 780 268 780 276 780 c 0
 419 780 534 665 534 523 c 0
 534 380 419 265 276 265 c 0
 268 265 260 265 252 266 c 1
 252 3 l 1
EndSplineSet
EndChar

StartChar: Q
Encoding: 81 81 48
Width: 864
VWidth: 0
Flags: HW
HStem: -14 157<387.027 563.045> 612 161<387.027 576.973>
VStem: 100 153<281.299 476.2> 711 153<280.102 476.2>
LayerCount: 2
Fore
SplineSet
864 380 m 0
 864 262.352539062 814.198242188 156.9375 735.18359375 84.81640625 c 1
 872 -52 l 1
 734 -191 l 1
 550.666015625 -7.666015625 l 1
 528.390625 -11.8271484375 505.442382812 -14 482 -14 c 0
 271 -14 100 162 100 380 c 0
 100 597 271 773 482 773 c 0
 693 773 864 597 864 380 c 0
711 378 m 0
 711 507 609 612 482 612 c 0
 355 612 253 507 253 378 c 0
 253 248 355 143 482 143 c 0
 609 143 711 248 711 378 c 0
EndSplineSet
EndChar

StartChar: R
Encoding: 82 82 49
Width: 512
VWidth: 0
Flags: HW
HStem: -3 21G<409.703 562> 629 150<252.375 340.409>
VStem: 100 152<3 266 416.026 628.974> 383 151<460.25 586.934>
LayerCount: 2
Fore
SplineSet
252 3 m 1
 100 3 l 1
 100 779 l 1
 252 779 l 2
 260 780 268 780 276 780 c 0
 419 780 534 665 534 523 c 0
 534 410.658203125 463.024414062 315.596679688 363.254882812 280 c 1
 562 -3 l 1
 422 -3 l 1
 256.913085938 265.502929688 l 2
 255.275390625 265.6328125 253.637695312 265.794921875 252 266 c 1
 252 3 l 1
252 626 m 1
 252 419 l 1
 260 417 268 416 276 416 c 0
 336 416 383 463 383 523 c 0
 383 582 336 629 276 629 c 0
 268 629 260 628 252 626 c 1
EndSplineSet
EndChar

StartChar: S
Encoding: 83 83 50
Width: 512
VWidth: 0
Flags: HW
LayerCount: 2
Fore
SplineSet
105 57 m 1
 180 182 l 1
 186 177 192 172 202 167 c 0
 253 137 317 154 347 202 c 0
 379 258 329 306 277 315 c 1
 151 383 67 498 151 639 c 0
 221 755 378 794 503 727 c 0
 509 721 517 718 524 712 c 1
 449 587 l 1
 443 592 437 597 427 602 c 0
 376 630 312 614 282 565 c 0
 249 510 282 429 346 418 c 1
 463 355 562 270 477 130 c 0
 408 13 251 -26 126 42 c 0
 120 48 112 51 105 57 c 1
EndSplineSet
EndChar

StartChar: T
Encoding: 84 84 51
Width: 676
VWidth: 0
Flags: HW
HStem: -2 21G<315 467> 614 152<103 315 467 679>
VStem: 315 152<-2 614>
LayerCount: 2
Fore
SplineSet
103 614 m 1
 103 766 l 1
 679 766 l 1
 679 614 l 1
 467 614 l 1
 467 -2 l 1
 315 -2 l 1
 315 614 l 1
 103 614 l 1
EndSplineSet
EndChar

StartChar: U
Encoding: 85 85 52
Width: 669
VWidth: 0
Flags: HW
HStem: 741 20G<100 267 502 669>
VStem: 103 164<172.77 761> 502 164<172.95 761>
LayerCount: 2
Fore
SplineSet
666 184 m 1
 597.931640625 -55.4130859375 172.236328125 -59.4453125 103 184 c 1
 100 761 l 1
 267 761 l 1
 267 185 l 1
 305.237304688 141.02734375 464.430664062 139.916992188 502 185 c 1
 502 761 l 1
 669 761 l 1
 666 184 l 1
EndSplineSet
EndChar

StartChar: V
Encoding: 86 86 53
Width: 652
VWidth: 0
Flags: HW
LayerCount: 2
Fore
SplineSet
100 769 m 1
 252 769 l 1
 376 292.219726562 l 1
 500 769 l 1
 652 769 l 1
 452 0 l 1
 300 0 l 1
 100 769 l 1
EndSplineSet
EndChar

StartChar: W
Encoding: 87 87 54
Width: 1000
VWidth: 0
Flags: HW
LayerCount: 2
Fore
SplineSet
100 769 m 1
 252 769 l 1
 376 292.219726562 l 1
 500 769 l 1
 501 769 l 1
 652 769 l 1
 653 769 l 1
 777 292 l 1
 901 769 l 1
 1053 769 l 1
 853 0 l 1
 701 0 l 1
 576.5 478.702148438 l 1
 452 0 l 1
 300 0 l 1
 100 769 l 1
EndSplineSet
EndChar

StartChar: X
Encoding: 88 88 55
Width: 724
VWidth: 0
Flags: HW
HStem: -1 20G<112.61 279 537.368 724>
LayerCount: 2
Fore
SplineSet
100 770 m 1
 286 768 l 1
 415.55078125 540.842773438 l 1
 548 769 l 1
 723 768 l 1
 502.728515625 387.982421875 l 1
 724 0 l 1
 549 -2 l 1
 412.609375 232.506835938 l 1
 279 2 l 1
 101 -1 l 1
 324.5 384 l 1
 100 770 l 1
EndSplineSet
EndChar

StartChar: Y
Encoding: 89 89 56
Width: 512
VWidth: 0
Flags: HW
VStem: 243 152<1 450>
LayerCount: 2
Fore
SplineSet
243 451 m 1
 243.365234375 451 l 1
 44 765 l 1
 196 765 l 1
 320 594 l 1
 444 765 l 1
 596 765 l 1
 396 450 l 1
 395 450 l 1
 395 1 l 1
 243 1 l 1
 243 451 l 1
EndSplineSet
EndChar

StartChar: Z
Encoding: 90 90 57
Width: 783
VWidth: 0
Flags: HW
HStem: 10 152<351 783> 610 152<100 530>
LayerCount: 2
Fore
SplineSet
100 10 m 1
 100 162 l 1
 530 610 l 1
 100 610 l 1
 100 762 l 1
 783 762 l 1
 783 610 l 1
 351 162 l 1
 783 162 l 1
 783 10 l 1
 100 10 l 1
EndSplineSet
EndChar

StartChar: bracketleft
Encoding: 91 91 58
Width: 362
VWidth: 0
Flags: HW
HStem: -80 85<194 361> 689 85<194 361>
VStem: 100 262<-80 5 689 774> 100 94<5 689>
LayerCount: 2
Fore
SplineSet
101 -80 m 1
 100 -80 l 1
 100 -79 l 1
 100 773 l 1
 100 774 l 1
 101 774 l 1
 362 774 l 1
 361 689 l 1
 194 689 l 1
 194 5 l 1
 361 5 l 1
 362 -80 l 1
 101 -80 l 1
EndSplineSet
EndChar

StartChar: backslash
Encoding: 92 92 59
Width: 691
VWidth: 0
Flags: HW
LayerCount: 2
Fore
SplineSet
206 818 m 1
 691 -22 l 1
 585 -83 l 1
 100 757 l 1
 206 818 l 1
EndSplineSet
EndChar

StartChar: bracketright
Encoding: 93 93 60
Width: 362
VWidth: 0
Flags: HW
HStem: -81 85<101 268> 689 85<101 268>
VStem: 100 262<-81 4 689 774> 268 94<4 689>
LayerCount: 2
Fore
SplineSet
361 -81 m 1
 100 -81 l 1
 101 4 l 1
 268 4 l 1
 268 689 l 1
 101 689 l 1
 100 774 l 1
 361 774 l 1
 362 774 l 1
 362 773 l 1
 362 -80 l 1
 362 -81 l 1
 361 -81 l 1
EndSplineSet
EndChar

StartChar: asciicircum
Encoding: 94 94 61
Width: 644
VWidth: 0
Flags: HW
LayerCount: 2
Fore
SplineSet
171 283 m 1
 314 617 l 1
 315 617 l 1
 466 617 l 1
 467 617 l 1
 573 283 l 1
 421 283 l 1
 379 497 l 1
 323 283 l 1
 171 283 l 1
EndSplineSet
EndChar

StartChar: underscore
Encoding: 95 95 62
Width: 544
VWidth: 0
Flags: HW
HStem: 44 152<50 594>
LayerCount: 2
Fore
SplineSet
594 196 m 1
 594 44 l 1
 50 44 l 1
 50 196 l 1
 594 196 l 1
EndSplineSet
EndChar

StartChar: grave
Encoding: 96 96 63
Width: 252
VWidth: 0
Flags: HW
HStem: 516 289
VStem: 31 290
LayerCount: 2
Fore
SplineSet
213 516 m 1
 31 698 l 1
 139 805 l 1
 321 623 l 1
 213 516 l 1
EndSplineSet
EndChar

StartChar: a
Encoding: 97 97 64
Width: 512
VWidth: 0
Flags: HW
HStem: 8 151<293.471 382> 372 143<293.351 381.625>
VStem: 100 151<201.471 329.671> 382 152<1 9 159.012 371.988>
LayerCount: 2
Fore
SplineSet
382 369 m 1
 374 371 366 372 358 372 c 0
 298 372 251 325 251 266 c 0
 251 206 298 159 358 159 c 0
 366 159 374 160 382 162 c 1
 382 369 l 1
382 1 m 1
 382 9 l 1
 374 8 366 8 358 8 c 0
 215 8 100 123 100 266 c 0
 100 408 215 515 358 515 c 0
 366 515 374 515 382 514 c 2
 534 514 l 1
 534 1 l 1
 382 1 l 1
EndSplineSet
EndChar

StartChar: b
Encoding: 98 98 65
Width: 512
VWidth: 0
Flags: HW
HStem: 4 150<252.375 340.649> 367 151<252 340.529>
VStem: 100 152<154.012 366.988 517 780> 383 151<196.066 324.529>
LayerCount: 2
Fore
SplineSet
252 157 m 1
 260 155 268 154 276 154 c 0
 336 154 383 201 383 260 c 0
 383 320 336 367 276 367 c 0
 268 367 260 366 252 364 c 1
 252 157 l 1
252 780 m 1
 252 517 l 1
 260 518 268 518 276 518 c 0
 419 518 534 403 534 260 c 0
 534 118 419 3 276 3 c 0
 268 3 260 3 252 4 c 2
 100 4 l 1
 100 780 l 1
 252 780 l 1
EndSplineSet
EndChar

StartChar: c
Encoding: 99 99 66
Width: 384
VWidth: 0
Flags: HW
HStem: 3 151<293.471 384> 367 151<293.471 384>
VStem: 100 151<196.066 324.529>
LayerCount: 2
Fore
SplineSet
384 4.2958984375 m 1
 375.446289062 3.4384765625 366.7734375 3 358 3 c 0
 215 3 100 118 100 260 c 0
 100 403 215 518 358 518 c 0
 366.7734375 518 375.446289062 517.560546875 384 516.704101562 c 1
 384 363.864257812 l 1
 375.673828125 365.915039062 366.963867188 367 358 367 c 0
 298 367 251 320 251 260 c 0
 251 201 298 154 358 154 c 0
 366.963867188 154 375.673828125 155.084960938 384 157.131835938 c 1
 384 4.2958984375 l 1
EndSplineSet
EndChar

StartChar: d
Encoding: 100 100 67
Width: 512
VWidth: 0
Flags: HW
HStem: 3 151<292.454 382> 367 151<293.471 382>
VStem: 100 151<196.066 324.529> 382 152<4 4.10351 154.011 366.989 516.896 780>
LayerCount: 2
Fore
SplineSet
382 156.66015625 m 1
 382 364.336914062 l 1
 374.282226562 366.081054688 366.249023438 367 358 367 c 0
 298 367 251 320 251 260 c 0
 251 201 298 154 358 154 c 0
 366.249023438 154 374.282226562 154.918945312 382 156.66015625 c 1
382 780 m 1
 534 780 l 1
 534 4 l 1
 382 4 l 1
 382 4.103515625 l 1
 374.095703125 3.373046875 366.08984375 3 358 3 c 0
 215 3 100 118 100 260 c 0
 100 403 215 518 358 518 c 0
 366.08984375 518 374.095703125 517.626953125 382 516.896484375 c 1
 382 780 l 1
EndSplineSet
EndChar

StartChar: e
Encoding: 101 101 68
Width: 617
VWidth: 0
Flags: HW
HStem: 3 151<293.073 606.239> 205.32 128.941<280.301 437.264> 367 151<292.682 422.767>
VStem: 100 517<208.188 330.811>
LayerCount: 2
Fore
SplineSet
260.680664062 296.67578125 m 1
 456.883789062 294.1015625 l 1
 432.395507812 320.966796875 397.046875 375.099609375 357.8046875 375.099609375 c 0
 319.188476562 375.099609375 284.879882812 322.025390625 260.680664062 296.67578125 c 1
616 260 m 0
 616 241.328125 617 223 617 208 c 1
 265.985351562 205.3203125 l 1
 284.489257812 174.45703125 318.416015625 154 358 154 c 0
 372.516601562 154 594 157 607 162 c 1
 607 6 l 1
 594 4 371.946289062 3 358 3 c 0
 215 3 100 118 100 260 c 0
 100 403 215 518 358 518 c 0
 500 518 616 403 616 260 c 0
EndSplineSet
EndChar

StartChar: f
Encoding: 102 102 69
Width: 512
VWidth: 0
Flags: HW
HStem: -3 21G<195 362> 359 152<100 196.882 362 459> 610 151<378.841 508.555>
VStem: 195 167<-3 359 511 589.119>
LayerCount: 2
Fore
SplineSet
514 752 m 1
 514 584 l 1
 495 600 470 610 443 610 c 0
 410 610 382 596 362 573 c 1
 362 511 l 1
 459 511 l 1
 459 359 l 1
 362 359 l 1
 362 -3 l 1
 195 -3 l 1
 196.881835938 359 l 1
 100 359 l 1
 100 511 l 1
 197.672851562 511 l 1
 198 574 l 1
 229 683 325 761 443 761 c 0
 468 761 491 758 514 752 c 1
EndSplineSet
EndChar

StartChar: g
Encoding: 103 103 70
Width: 620
VWidth: 0
Flags: HW
HStem: -205 151<179.297 449.488> 498 20G<357.408 358.151 361.478 433.333>
VStem: 100 151<197.15 323.449> 469 151<-33.1189 25.9655 195.937 324.857>
LayerCount: 2
Fore
SplineSet
358.90625 3.001953125 m 0
 358.603515625 3.001953125 358.301757812 3 358 3 c 0
 356.815429688 3 355.631835938 3.0078125 354.451171875 3.0234375 c 0
 353.723632812 3.0302734375 352.28515625 3.03515625 350.349609375 3.041015625 c 0
 339.5390625 3.0732421875 313.241210938 3.1513671875 309 4 c 0
 175 13 100 123.96484375 100 260 c 0
 100 396.991210938 205.5390625 508.286132812 340.12890625 517.397460938 c 0
 345.001953125 517.794921875 349.66015625 517.930664062 354.451171875 517.9765625 c 0
 355.631835938 517.9921875 356.815429688 518 358 518 c 0
 358.301757812 518 358.603515625 517.999023438 358.905273438 517.998046875 c 0
 359.92578125 518 360.956054688 518 362 518 c 0
 504.666015625 518 619.463867188 403.536132812 619.998046875 261 c 2
 619.999023438 260.868164062 l 2
 620 260.579101562 620 260.290039062 620 260 c 0
 620 257.823242188 619.97265625 255.65234375 619.918945312 253.48828125 c 2
 617 -18 l 1
 586 -127 493 -205 375 -205 c 0
 350 -205 193 -202 170 -196 c 1
 170 -28 l 1
 189 -44 348 -54 375 -54 c 0
 408 -54 449 -40 469 -17 c 1
 469 25.9658203125 l 1
 436.44140625 11.21484375 400.220703125 3 362 3 c 0
 360.956054688 3 359.92578125 3.001953125 358.90625 3.001953125 c 0
359.955078125 366.982421875 m 0
 351.641601562 366.842773438 343.393554688 365.848632812 336 364 c 1
 336 364.828125 l 1
 286.8984375 354.9453125 251 312.4375 251 260 c 0
 251 208.436523438 286.8984375 166.0390625 336 156.169921875 c 1
 336 157 l 1
 343.393554688 155.151367188 351.641601562 154.157226562 359.955078125 154.017578125 c 0
 368.23046875 154.163085938 376.280273438 155.234375 384 157.131835938 c 1
 384 156.169921875 l 1
 433.1015625 166.0390625 469 208.436523438 469 260 c 0
 469 312.4375 433.1015625 354.9453125 384 364.828125 c 1
 384 363.864257812 l 1
 376.280273438 365.765625 368.23046875 366.836914062 359.955078125 366.982421875 c 0
EndSplineSet
EndChar

StartChar: h
Encoding: 104 104 71
Width: 597
VWidth: 0
Flags: HW
HStem: 373 151<283.435 413.159>
VStem: 100 169<6 355.866 512 768> 430 167<6 352.119>
LayerCount: 2
Fore
SplineSet
100 768 m 1
 269 768 l 1
 269 512 l 1
 295 520 321 524 349 524 c 0
 467 524 563 446 594 337 c 1
 597 6 l 1
 430 6 l 1
 430 336 l 1
 410 359 382 373 349 373 c 0
 317 373 289 360 269 338 c 1
 269 6 l 1
 100 6 l 1
 100 768 l 1
EndSplineSet
EndChar

StartChar: i
Encoding: 105 105 72
Width: 252
VWidth: 0
Flags: HW
HStem: -2 21G<100 252> 492 20G<100 252> 630 142<100 252>
VStem: 100 152<-2 512 630 772>
LayerCount: 2
Fore
SplineSet
100 772 m 1
 252 772 l 1
 252 630 l 1
 100 630 l 1
 100 772 l 1
100 512 m 1
 252 512 l 1
 252 -2 l 1
 100 -2 l 1
 100 512 l 1
EndSplineSet
EndChar

StartChar: j
Encoding: 106 106 73
Width: 419
VWidth: 0
Flags: HW
HStem: -204 151<105.445 235.159> 497 20G<252 419> 630 142<264 416>
VStem: 252 164<-32.1189 517> 264 152<630 772>
LayerCount: 2
Fore
SplineSet
264 772 m 1
 416 772 l 1
 416 630 l 1
 264 630 l 1
 264 772 l 1
100 -195 m 1
 100 -27 l 1
 119 -43 144 -53 171 -53 c 0
 204 -53 232 -39 252 -16 c 1
 252 517 l 1
 419 517 l 1
 416 -17 l 1
 385 -126 289 -204 171 -204 c 0
 146 -204 123 -201 100 -195 c 1
EndSplineSet
EndChar

StartChar: k
Encoding: 107 107 74
Width: 753
VWidth: 0
Flags: HW
HStem: -2 20G<111 252 513 680.185> 754 20G<111 252>
VStem: 111 141<-2 154 317 774>
LayerCount: 2
Fore
SplineSet
111 752 m 1
 252 752 l 1
 252 317 l 1
 497 514 l 1
 690 512 l 1
 429 284 l 1
 699 -3 l 1
 513 -2 l 1
 309 226 l 1
 252 154 l 1
 252 -2 l 1
 111 -2 l 1
 111 752 l 1
EndSplineSet
EndChar

StartChar: l
Encoding: 108 108 75
Width: 419
VWidth: 0
Flags: HW
HStem: -3 151<283.008 413.885> 741 20G<100 267>
VStem: 103 164<166.215 761>
LayerCount: 2
Fore
SplineSet
419 6 m 1
 396.333007812 0 372.666992188 -3 348 -3 c 0
 290 -3 238.666992188 14.3330078125 194 49 c 0
 149.333007812 83.6669921875 119 128.666992188 103 184 c 1
 100 761 l 1
 267 761 l 1
 267 185 l 1
 288.333007812 160.333007812 315.333007812 148 348 148 c 0
 374.666992188 148 398.333007812 156.666992188 419 174 c 1
 419 6 l 1
EndSplineSet
EndChar

StartChar: m
Encoding: 109 109 76
Width: 924
VWidth: 0
Flags: HW
HStem: 373 151<282.824 414.747 609.824 740.715>
VStem: 100 169<6 356.608 512 522> 430 166<6 355.109> 757 167<6 352.119>
LayerCount: 2
Fore
SplineSet
100 522 m 1
 269 522 l 1
 269 512 l 1
 295 520 321 524 349 524 c 0
 410.004882812 524 465.129882812 503.15234375 508.432617188 467.951171875 c 1
 596 512 l 1
 622 520 648 524 676 524 c 0
 794 524 890 446 921 337 c 1
 924 6 l 1
 757 6 l 1
 757 336 l 1
 737 359 709 373 676 373 c 0
 644 373 616 360 596 338 c 1
 596 116.333007812 l 1
 597 6 l 1
 596 6 l 1
 430 6 l 1
 427 6 l 1
 430 323.25 l 1
 430 336 l 1
 410 359 382 373 349 373 c 0
 317 373 289 360 269 338 c 1
 269 6 l 1
 100 6 l 1
 100 522 l 1
EndSplineSet
EndChar

StartChar: n
Encoding: 110 110 77
Width: 597
VWidth: 0
Flags: HW
HStem: 373 151<282.824 413.715>
VStem: 100 169<6 356.608 512 522> 430 167<6 352.119>
LayerCount: 2
Fore
SplineSet
100 522 m 1
 269 522 l 1
 269 512 l 1
 295 520 321 524 349 524 c 0
 467 524 563 446 594 337 c 1
 597 6 l 1
 430 6 l 1
 430 336 l 1
 410 359 382 373 349 373 c 0
 317 373 289 360 269 338 c 1
 269 6 l 1
 100 6 l 1
 100 522 l 1
EndSplineSet
EndChar

StartChar: o
Encoding: 111 111 78
Width: 616
VWidth: 0
Flags: HW
HStem: 3 21G<357.408 358.151 361.478 433.5> 498 20G<357.408 358.151 361.478 433.5>
VStem: 100 151<197.14 323.449> 469 151<195.844 324.753>
LayerCount: 2
Fore
SplineSet
359.955078125 366.982421875 m 0
 351.641601562 366.842773438 343.393554688 365.848632812 336 364 c 1
 336 364.828125 l 1
 286.8984375 354.9453125 251 312.4375 251 260 c 0
 251 208.436523438 286.8984375 166.0390625 336 156.169921875 c 1
 336 157 l 1
 343.393554688 155.151367188 351.641601562 154.157226562 359.955078125 154.017578125 c 0
 368.23046875 154.163085938 376.280273438 155.234375 384 157.131835938 c 1
 384 156.169921875 l 1
 433.1015625 166.0390625 469 208.436523438 469 260 c 0
 469 312.4375 433.1015625 354.9453125 384 364.828125 c 1
 384 363.864257812 l 1
 376.280273438 365.765625 368.23046875 366.836914062 359.955078125 366.982421875 c 0
358.90625 3.001953125 m 0
 358.603515625 3.001953125 358.301757812 3 358 3 c 0
 356.815429688 3 355.631835938 3.0078125 354.451171875 3.0234375 c 0
 349.662109375 3.0693359375 345.004882812 3.205078125 340.133789062 3.6025390625 c 0
 205.541992188 12.708984375 100 123.96484375 100 260 c 0
 100 396.991210938 205.5390625 508.286132812 340.12890625 517.397460938 c 0
 345.001953125 517.794921875 349.66015625 517.930664062 354.451171875 517.9765625 c 0
 355.631835938 517.9921875 356.815429688 518 358 518 c 0
 358.301757812 518 358.603515625 517.999023438 358.905273438 517.998046875 c 0
 359.92578125 518 360.956054688 518 362 518 c 0
 505 518 620 403 620 260 c 0
 620 118 505 3 362 3 c 0
 360.956054688 3 359.92578125 3.001953125 358.90625 3.001953125 c 0
EndSplineSet
EndChar

StartChar: p
Encoding: 112 112 79
Width: 512
VWidth: 0
Flags: HW
HStem: -202 21G<100 252> -5 151<252 340.529> 359 150<252.375 340.409>
VStem: 100 152<-202 -4 146.026 358.974> 383 151<188.471 316.934>
LayerCount: 2
Fore
SplineSet
252 356 m 1
 252 149 l 1
 260 147 268 146 276 146 c 0
 336 146 383 193 383 253 c 0
 383 312 336 359 276 359 c 0
 268 359 260 358 252 356 c 1
252 -202 m 1
 100 -202 l 1
 100 509 l 1
 252 509 l 2
 260 510 268 510 276 510 c 0
 419 510 534 395 534 253 c 0
 534 110 419 -5 276 -5 c 0
 268 -5 260 -5 252 -4 c 1
 252 -202 l 1
EndSplineSet
EndChar

StartChar: q
Encoding: 113 113 80
Width: 512
VWidth: 0
Flags: HW
HStem: -202 21G<382 534> -5 151<293.471 382> 359 151<293.591 381.625>
VStem: 100 151<188.471 316.934> 382 152<-202 -4 146.026 358.974>
LayerCount: 2
Fore
SplineSet
382 356 m 1
 374 358 366 359 358 359 c 0
 298 359 251 312 251 253 c 0
 251 193 298 146 358 146 c 0
 366 146 374 147 382 149 c 1
 382 356 l 1
382 -202 m 1
 382 -4 l 1
 374 -5 366 -5 358 -5 c 0
 215 -5 100 110 100 253 c 0
 100 395 215 510 358 510 c 0
 366 510 374 510 382 509 c 2
 534 509 l 1
 534 -202 l 1
 382 -202 l 1
EndSplineSet
EndChar

StartChar: r
Encoding: 114 114 81
Width: 587
VWidth: 0
Flags: HW
HStem: 373 151<282.824 414.013>
VStem: 100 169<6 356.608 512 522>
LayerCount: 2
Fore
SplineSet
100 522 m 1
 269 522 l 1
 269 512 l 1
 295 520 321 524 349 524 c 0
 459.2734375 524 550 443 587 345 c 1
 422 345 l 1
 422 344.31640625 l 1
 402.80859375 362.330078125 377.809570312 373 349 373 c 0
 317 373 289 360 269 338 c 1
 269 6 l 1
 100 6 l 1
 100 522 l 1
EndSplineSet
EndChar

StartChar: s
Encoding: 115 115 82
Width: 508
VWidth: 0
Flags: HW
LayerCount: 2
Fore
SplineSet
118.615234375 47 m 1
 185.615234375 159 l 1
 191.615234375 153 198.615234375 150 207.615234375 147 c 0
 260.615234375 123 304.615234375 131 330.615234375 162 c 0
 359.615234375 196 308.615234375 202 254.615234375 211 c 1
 126.615234375 262 55.615234375 345 130.615234375 434 c 0
 193.615234375 510 346.615234375 527 473.615234375 473 c 0
 480.615234375 470 488.615234375 468 495.615234375 462 c 1
 428.615234375 332 l 1
 422.615234375 336 415.615234375 341 406.615234375 344 c 0
 353.615234375 366 331.615234375 359 305.615234375 328 c 0
 275.615234375 293 272.615234375 286 336.615234375 275 c 1
 455.615234375 225 558.615234375 164 482.615234375 75 c 0
 420.615234375 -1 267.615234375 -21 140.615234375 34 c 0
 133.615234375 36 126.615234375 41 118.615234375 47 c 1
EndSplineSet
EndChar

StartChar: t
Encoding: 116 116 83
Width: 514
VWidth: 0
Flags: HW
HStem: -3 151<378.285 509.024> 364 152<100 196.274 362 459> 741 20G<195 362>
VStem: 196.274 165.726<168.881 364 516 761>
LayerCount: 2
Fore
SplineSet
514 6 m 1
 491 0 468 -3 443 -3 c 0
 325 -3 229 75 198 184 c 1
 197.064453125 364 l 1
 100 364 l 1
 100 516 l 1
 196.2734375 516 l 1
 195 761 l 1
 362 761 l 1
 362 516 l 1
 459 516 l 1
 459 364 l 1
 362 364 l 1
 362 185 l 1
 382 162 410 148 443 148 c 0
 470 148 495 158 514 174 c 1
 514 6 l 1
EndSplineSet
EndChar

StartChar: u
Encoding: 117 117 84
Width: 598
VWidth: 0
Flags: HW
HStem: 6 151<284.841 414.565> 504 20G<101 268 429 598>
VStem: 104 164<177.881 524> 429 169<8 18 174.134 524>
LayerCount: 2
Fore
SplineSet
598 2 m 1
 429 2 l 1
 429 12 l 1
 403 4 377 0 349 0 c 0
 231 0 135 78 104 187 c 1
 101 518 l 1
 268 518 l 1
 268 188 l 1
 288 165 316 151 349 151 c 0
 381 151 409 164 429 186 c 1
 429 518 l 1
 598 518 l 1
 598 2 l 1
EndSplineSet
EndChar

StartChar: v
Encoding: 118 118 85
Width: 652
VWidth: 0
Flags: HW
HStem: 491 20G<100 258.757 493.243 652>
LayerCount: 2
Fore
SplineSet
100 511 m 1
 252 511 l 1
 376 144 l 1
 500 511 l 1
 652 511 l 1
 452 0 l 1
 300 0 l 1
 100 511 l 1
EndSplineSet
EndChar

StartChar: w
Encoding: 119 119 86
Width: 1044
VWidth: 0
Flags: HW
HStem: 491 20G<100 254.757 489.243 654.54 885.243 1044>
LayerCount: 2
Fore
SplineSet
496 511 m 1
 648 511 l 1
 768 144 l 1
 892 511 l 1
 1044 511 l 1
 844 0 l 1
 696 0 l 1
 572 316.8203125 l 1
 448 0 l 1
 300 0 l 1
 100 511 l 1
 248 511 l 1
 372 144 l 1
 496 511 l 1
EndSplineSet
EndChar

StartChar: x
Encoding: 120 120 87
Width: 724
VWidth: 0
Flags: HW
HStem: -1 20G<118.427 279 531.563 724> 493 20G<117.437 286 530.573 723>
LayerCount: 2
Fore
SplineSet
100 513 m 1
 286 511 l 1
 415.491210938 359.926757812 l 1
 548 512 l 1
 723 511 l 1
 502.584960938 258.317382812 l 1
 724 0 l 1
 549 -2 l 1
 412.291015625 154.8046875 l 1
 279 2 l 1
 101 -1 l 1
 324.5 255.5 l 1
 100 513 l 1
EndSplineSet
EndChar

StartChar: y
Encoding: 121 121 88
Width: 652
VWidth: 0
Flags: HW
HStem: 491 20G<100 277.757 500 677.185>
LayerCount: 2
Fore
SplineSet
100 511 m 1
 271 511 l 1
 395 144 l 1
 500 511 l 1
 685 514 l 1
 406 -200 l 1
 258 -204 l 1
 327.328125 0 l 1
 327 0 l 1
 100 511 l 1
EndSplineSet
EndChar

StartChar: z
Encoding: 122 122 89
Width: 512
VWidth: 0
Flags: HW
HStem: 10 152<351 553> 366 152<100 343>
LayerCount: 2
Fore
SplineSet
100 10 m 1
 100 162 l 1
 343 366 l 1
 100 366 l 1
 100 518 l 1
 553 518 l 1
 553 366 l 1
 351 162 l 1
 553 162 l 1
 553 10 l 1
 100 10 l 1
EndSplineSet
EndChar

StartChar: braceleft
Encoding: 123 123 90
Width: 419
VWidth: 0
Flags: HW
HStem: -92 121<428.218 500.506> 684 121<428.745 500.506>
VStem: 339 84<34.1962 228 485 674.933>
LayerCount: 2
Fore
SplineSet
501 -85 m 1
 490 -90 477 -92 464 -92 c 0
 404 -92 355 -29 339 58 c 1
 338 228 l 1
 229 358 l 1
 338 485 l 1
 339 655 l 1
 355 742 404 805 464 805 c 0
 477 805 490 803 501 798 c 1
 501 663 l 1
 491 676 478 684 464 684 c 0
 447 684 433 672 423 654 c 1
 424 470 l 1
 342 369 l 1
 423 228 l 1
 423 58 l 1
 433 40 447 29 464 29 c 0
 478 29 491 37 501 50 c 1
 501 -85 l 1
EndSplineSet
EndChar

StartChar: bar
Encoding: 124 124 91
Width: 252
VWidth: 0
Flags: HW
VStem: 115 122<-99 871>
LayerCount: 2
Fore
SplineSet
115 871 m 1
 237 871 l 1
 237 -99 l 1
 115 -99 l 1
 115 871 l 1
EndSplineSet
EndChar

StartChar: braceright
Encoding: 125 125 92
Width: 419
VWidth: 0
Flags: HW
HStem: -92 121<229.494 301.782> 684 121<229.494 301.255>
VStem: 307 84<34.1962 228 485 674.933>
LayerCount: 2
Fore
SplineSet
229 -85 m 1
 229 50 l 1
 239 37 252 29 266 29 c 0
 283 29 297 40 307 58 c 1
 307 228 l 1
 388 369 l 1
 306 470 l 1
 307 654 l 1
 297 672 283 684 266 684 c 0
 252 684 239 676 229 663 c 1
 229 798 l 1
 240 803 253 805 266 805 c 0
 326 805 375 742 391 655 c 1
 392 485 l 1
 501 358 l 1
 392 228 l 1
 391 58 l 1
 375 -29 326 -92 266 -92 c 0
 253 -92 240 -90 229 -85 c 1
EndSplineSet
EndChar

StartChar: asciitilde
Encoding: 126 126 93
Width: 644
VWidth: 0
Flags: HW
HStem: 344 152.581<305.052 527.98> 400 152<151.251 283.491>
LayerCount: 2
Fore
SplineSet
599 577 m 1
 599 425 l 2
 598.596679688 423.500976562 542.831054688 344 471 344 c 0
 423 344 419 344 371 344 c 0
 307 344 282 400 218 400 c 0
 167 400 100 344 100 344 c 1
 100 496 l 1
 100 496 164 552 214 552 c 0
 280 552 308 497 374 497 c 0
 418 497 419 497 463 496.581054688 c 0
 532 497 599 577 599 577 c 1
EndSplineSet
EndChar

StartChar: .notdef
Encoding: 0 0 94
Width: 1000
Flags: HW
HStem: 0 66<343 735> 205.75 71<471 547> 321.75 117.5<471 527.005> 545.75 75.5<471 526.239> 732 62<343 735>
VStem: 293 50<66 732> 471 76<205.75 276.75 321.75 394.448> 537.5 75.5<449.629 534.632> 735 48<66 732>
LayerCount: 2
Fore
SplineSet
308 794 m 2
 768 794 l 2
 776 794 783 787 783 779 c 2
 783 15 l 2
 783 7 776 0 768 0 c 2
 308 0 l 2
 300 0 293 7 293 15 c 2
 293 779 l 2
 293 787 300 794 308 794 c 2
358 732 m 2
 350 732 343 725 343 717 c 2
 343 81 l 2
 343 73 350 66 358 66 c 2
 720 66 l 2
 728 66 735 73 735 81 c 2
 735 717 l 2
 735 725 728 732 720 732 c 2
 358 732 l 2
471 620.75 m 1
 475.5 621.25 479.5 621.25 484 621.25 c 0
 555.5 621.25 613 563.75 613 492.75 c 0
 613 444.165039062 586.450195312 402.044921875 547 380.037109375 c 1
 547 321.75 l 1
 471 321.75 l 1
 471 364.25 l 1
 471 426.75 l 1
 471 440.75 l 1
 475 439.75 479.5 439.25 484 439.25 c 0
 514 439.25 537.5 462.75 537.5 492.75 c 0
 537.5 522.25 514 545.75 484 545.75 c 0
 479.5 545.75 475 545.25 471 544.25 c 1
 471 620.75 l 1
471 205.75 m 1
 471 276.75 l 1
 547 276.75 l 1
 547 205.75 l 1
 471 205.75 l 1
EndSplineSet
EndChar

StartChar: u09a4
Encoding: 2468 2468 95
Width: 726
VWidth: 75
Flags: HW
HStem: 4.7002 133.6<355.264 518.805> 513.479 120.821<445.987 517.023> 671 132<50 776>
VStem: 142.4 111.399<240.829 328.876> 620.2 133.399<240.829 414.049>
LayerCount: 2
Fore
SplineSet
439.780273438 513.478515625 m 1
 439.780273438 513.478515625 445.987304688 634.29296875 445.987304688 634.29296875 c 2
 446.657226562 634.297851562 447.328125 634.299804688 448 634.299804688 c 0
 616.799804688 634.299804688 753.599609375 493.5 753.599609375 319.900390625 c 0
 753.599609375 145.5 616.799804688 4.7001953125 448 4.7001953125 c 0
 279.200195312 4.7001953125 142.400390625 145.5 142.400390625 319.900390625 c 0
 142.400390625 320.77734375 253.86328125 330.658203125 253.870117188 331.533203125 c 1
 253.823242188 329.794921875 253.799804688 328.049804688 253.799804688 326.299804688 c 0
 253.799804688 222.299804688 335.400390625 138.299804688 437 138.299804688 c 0
 538.599609375 138.299804688 620.200195312 222.299804688 620.200195312 326.299804688 c 0
 620.200195312 428.556640625 540.084960938 511.962890625 439.780273438 513.478515625 c 1
776 803 m 5
 776 671 l 5
 50 671 l 5
 50 803 l 5
 776 803 l 5
EndSplineSet
EndChar

StartChar: uni09AC
Encoding: 2476 2476 96
Width: 723
VWidth: 0
Flags: HW
HStem: 671 132<50 574 720 773> 671 106<574 720>
VStem: 574 146<1 73.5 225.5 473.5 625.5 777> 574 57.5<73.5 225.5 473.5 473.5>
LayerCount: 2
Fore
SplineSet
773 803 m 1
 773 671 l 1
 720 671 l 1
 720 1 l 1
 574 1 l 1
 574 2.798828125 l 1
 120.5 273.5 l 1
 120.5 425.5 l 1
 574 602.995117188 l 1
 574 671 l 1
 50 671 l 1
 50 803 l 1
 773 803 l 1
574 154.814453125 m 1
 574 454.072265625 l 1
 264.5 349.5 l 1
 574 154.814453125 l 1
EndSplineSet
EndChar

StartChar: exclamdown
Encoding: 161 161 99
Width: 252
VWidth: 0
Flags: HW
HStem: -2 21G<100 252> 492 20G<100 252> 630 142<100 252>
VStem: 100 152<-2 512 630 772>
LayerCount: 2
Fore
SplineSet
252 772 m 1
 252 630 l 1
 100 630 l 1
 100 772 l 1
 252 772 l 1
252 512 m 1
 252 -2 l 1
 100 -2 l 1
 100 512 l 1
 252 512 l 1
EndSplineSet
EndChar

StartChar: sterling
Encoding: 163 163 103
Width: 772
VWidth: 0
Flags: HW
HStem: -3 169.5<52.5 647.285> 359 152<100 196.882 362 459> 610 151<378.841 508.555>
VStem: 195 167<-3 359 511 589.119> 665.5 151<182.508 312.889>
LayerCount: 2
Fore
SplineSet
514 752 m 1
 514 584 l 1
 495 600 470 610 443 610 c 0
 410 610 382 596 362 573 c 1
 362 511 l 1
 459 511 l 1
 459 359 l 1
 362 359 l 1
 362 166.5 l 1
 628.5 166.5 l 1
 653.166992188 187.833007812 665.5 214.833007812 665.5 247.5 c 0
 665.5 274.166992188 656.833007812 297.833007812 639.5 318.5 c 1
 807.5 318.5 l 1
 813.5 295.833007812 816.5 272.166992188 816.5 247.5 c 0
 816.5 189.5 799.166992188 138.166992188 764.5 93.5 c 0
 729.833007812 48.8330078125 684.833007812 18.5 629.5 2.5 c 1
 362 1.109375 l 1
 362 -3 l 1
 195 -3 l 1
 195.016601562 0.2412109375 l 1
 52.5 -0.5 l 1
 52.5 166.5 l 1
 195.880859375 166.5 l 1
 196.881835938 359 l 1
 100 359 l 1
 100 511 l 1
 197.672851562 511 l 1
 198 574 l 1
 229 683 325 761 443 761 c 0
 468 761 491 758 514 752 c 1
EndSplineSet
EndChar

StartChar: uni098F
Encoding: 2447 2447 104
Width: 697
VWidth: 0
Flags: HW
HStem: 610 151<360.445 490.159>
VStem: 52.5 151<182.508 312.889>
LayerCount: 2
Fore
SplineSet
61.5 318.5 m 1
 229.5 318.5 l 1
 212.166992188 297.833007812 203.5 274.166992188 203.5 247.5 c 0
 203.5 214.833007812 215.833007812 187.833007812 240.5 166.5 c 1
 507 166.5 l 1
 507 573 l 1
 487 596 459 610 426 610 c 0
 399 610 374 600 355 584 c 1
 355 752 l 1
 378 758 401 761 426 761 c 0
 544 761 640 683 671 574 c 1
 674 -3 l 5
 526.245117188 -4.087890625 387.399414062 3.732421875 239.5 2.5 c 5
 184.166992188 18.5 139.166992188 48.8330078125 104.5 93.5 c 0
 69.8330078125 138.166992188 52.5 189.5 52.5 247.5 c 0
 52.5 272.166992188 55.5 295.833007812 61.5 318.5 c 1
EndSplineSet
EndChar

StartChar: uni0985
Encoding: 2437 2437 105
Width: 946
VWidth: 0
Flags: HW
HStem: -2 21G<801 841.187> 4.7002 125.6<364.372 531.628> 505.479 128.821<450.78 531.669> 671 132<50 823 975 996> 671 105<823 975>
VStem: 142.4 122.399<233.067 322.113> 631.2 122.399<273.807 406.338> 823 152<105 776>
LayerCount: 2
Fore
SplineSet
450.780273438 505.478515625 m 1
 450.780273438 505.478515625 445.987304688 634.29296875 445.987304688 634.29296875 c 1
 446.657226562 634.297851562 447.328125 634.299804688 448 634.299804688 c 0
 616.799804688 634.299804688 753.599609375 493.5 753.599609375 319.900390625 c 0
 753.599609375 307.25 752.879882812 294.776367188 751.48046875 282.51953125 c 1
 823 211 l 1
 823 671 l 1
 50 671 l 1
 50 803 l 1
 996 803 l 1
 996 671 l 1
 975 671 l 1
 975 0 l 1
 823.018554688 -0 l 1
 821 -2 l 1
 690.749023438 128.250976562 l 1
 634.901367188 53.0810546875 546.948242188 4.7001953125 448 4.7001953125 c 0
 279.200195312 4.7001953125 142.400390625 145.5 142.400390625 319.900390625 c 0
 142.400390625 320.77734375 264.86328125 322.658203125 264.870117188 323.533203125 c 1
 264.823242188 321.794921875 264.799804688 320.049804688 264.799804688 318.299804688 c 0
 264.799804688 214.299804688 346.400390625 130.299804688 448 130.299804688 c 0
 549.599609375 130.299804688 631.200195312 214.299804688 631.200195312 318.299804688 c 0
 631.200195312 420.556640625 551.084960938 503.962890625 450.780273438 505.478515625 c 1
EndSplineSet
EndChar

StartChar: uni09BE
Encoding: 2494 2494 106
Width: 436
VWidth: 0
Flags: HW
HStem: -2 21G<284 436> 671 132<323 484>
VStem: 284 200<671 803> 284 152<-2 487 803 847> 323 113<671 803>
LayerCount: 2
Fore
SplineSet
284 847 m 1
 436 847 l 1
 436 803 l 1
 484 803 l 1
 484 671 l 1
 436 671 l 1
 436 -2 l 1
 284 -2 l 1
 284 488.981445312 l 1
 282 487 l 1
 -23 785 l 1
 178 782 l 1
 284 688 l 1
 284 847 l 1
EndSplineSet
EndChar

StartChar: uni0986
Encoding: 2438 2438 107
Width: 1261
VWidth: 0
Flags: HW
HStem: -2 21G<801 841.187> 4.7002 125.6<364.372 531.628> 505.479 128.821<450.78 531.669> 671 129<50 804 823 996 1150 1311> 671 105<823 975>
VStem: 142.4 122.399<233.067 322.113> 631.2 122.399<273.807 406.338> 823 173<671 776> 1111 200<671 803> 1111 152<-2 487 803 850> 1150 113<671 803>
LayerCount: 2
Fore
SplineSet
1111 850 m 1
 1263 850 l 1
 1263 803 l 1
 1311 803 l 1
 1311 671 l 1
 1263 671 l 1
 1263 -2 l 1
 1111 -2 l 1
 1111 488.981445312 l 1
 1109 487 l 1
 975 624.514648438 l 1
 975 0 l 1
 823.018554688 -0 l 1
 821 -2 l 1
 690.749023438 128.250976562 l 1
 634.901367188 53.0810546875 546.948242188 4.7001953125 448 4.7001953125 c 0
 279.200195312 4.7001953125 142.400390625 145.5 142.400390625 319.900390625 c 0
 142.400390625 320.77734375 264.86328125 322.658203125 264.870117188 323.533203125 c 1
 264.823242188 321.794921875 264.799804688 320.049804688 264.799804688 318.299804688 c 0
 264.799804688 214.299804688 346.400390625 130.299804688 448 130.299804688 c 0
 549.599609375 130.299804688 631.200195312 214.299804688 631.200195312 318.299804688 c 0
 631.200195312 420.556640625 551.084960938 503.962890625 450.780273438 505.478515625 c 1
 450.780273438 505.478515625 445.987304688 634.29296875 445.987304688 634.29296875 c 1
 446.657226562 634.297851562 447.328125 634.299804688 448 634.299804688 c 0
 616.799804688 634.299804688 753.599609375 493.5 753.599609375 319.900390625 c 0
 753.599609375 307.25 752.879882812 294.776367188 751.48046875 282.51953125 c 1
 823 211 l 1
 823 671 l 1
 50 671 l 1
 50 800 l 1
 804 800 l 1
 996 800 l 1
 1005 800 l 1
 1111 697 l 1
 1111 850 l 1
EndSplineSet
EndChar

StartChar: uni09B9
Encoding: 2489 2489 108
Width: 689
VWidth: 0
Flags: HW
HStem: -1 21G<457 643> 671 132<50 739>
LayerCount: 2
Fore
SplineSet
739 803 m 1
 739 671 l 1
 50 671 l 1
 50 803 l 1
 739 803 l 1
286.141601562 472.20703125 m 1
 286.141601562 472.20703125 178.799804688 578.45703125 178.026367188 577.68359375 c 1
 280.65625 680.313476562 442.620117188 682.33203125 545.080078125 579.872070312 c 0
 646.706054688 478.24609375 644.452148438 316.5078125 542.18359375 213.525390625 c 0
 516.661132812 187.825195312 489.724609375 169.067382812 462.2578125 156.3515625 c 1
 643 -1 l 1
 484 -1 l 1
 275.735351562 153.26953125 l 1
 240.404296875 167.595703125 207.993164062 189.703125 180.920898438 217.127929688 c 1
 283.453125 319.66015625 l 1
 283.686523438 319.422851562 283.921875 319.186523438 284.158203125 318.950195312 c 0
 326.666992188 276.440429688 390.711914062 277.127929688 436.141601562 321.051757812 c 0
 479.873046875 366.353515625 480.990234375 430.416015625 438.306640625 473.099609375 c 0
 395.163085938 516.244140625 331.517578125 515.487304688 286.141601562 472.20703125 c 1
EndSplineSet
EndChar

StartChar: uni0987
Encoding: 2439 2439 109
Width: 689
VWidth: 0
Flags: HW
HStem: -1 21G<457 643> 671 132<50 357.581 593.755 739>
LayerCount: 2
Fore
SplineSet
739 803 m 1
 739 671 l 1
 50 671 l 1
 50 803 l 1
 383.489257812 803 l 1
 377.990234375 828.393554688 367.922851562 854.420898438 349.7890625 872.776367188 c 0
 318.380859375 903.592773438 317.673828125 904.299804688 286.560546875 935.412109375 c 0
 239.891601562 982.081054688 181.202148438 962.989257812 134.532226562 1009.65820312 c 0
 99.177734375 1045.01367188 93.5205078125 1129.8671875 93.5205078125 1129.8671875 c 1
 181.909179688 1218.25488281 l 1
 181.909179688 1218.25488281 189.6875 1131.28125 225.749023438 1095.21875 c 0
 271.00390625 1049.96386719 328.280273438 1071.88378906 373.53515625 1026.62890625 c 0
 407.475585938 992.688476562 410.3046875 989.859375 444.245117188 955.918945312 c 0
 494.2734375 905.890625 474.794921875 808.1796875 477.479492188 808.1328125 c 1
 472.346679688 803 l 1
 739 803 l 1
286.141601562 472.20703125 m 1
 286.141601562 472.20703125 178.799804688 578.45703125 178.026367188 577.68359375 c 1
 280.65625 680.313476562 442.620117188 682.33203125 545.080078125 579.872070312 c 0
 646.706054688 478.24609375 644.452148438 316.5078125 542.18359375 213.525390625 c 0
 516.661132812 187.825195312 489.724609375 169.067382812 462.2578125 156.3515625 c 1
 643 -1 l 1
 484 -1 l 1
 275.735351562 153.26953125 l 1
 240.404296875 167.595703125 207.993164062 189.703125 180.920898438 217.127929688 c 1
 283.453125 319.66015625 l 1
 283.686523438 319.422851562 283.921875 319.186523438 284.158203125 318.950195312 c 0
 326.666992188 276.440429688 390.711914062 277.127929688 436.141601562 321.051757812 c 0
 479.873046875 366.353515625 480.990234375 430.416015625 438.306640625 473.099609375 c 0
 395.163085938 516.244140625 331.517578125 515.487304688 286.141601562 472.20703125 c 1
EndSplineSet
EndChar

StartChar: uni09A1
Encoding: 2465 2465 110
Width: 616
VWidth: 0
Flags: HW
HStem: 3.00156 151.016<293.473 423.671> 366 151.998<359 491> 671 132<50 359 491 666> 671 80<359 491>
VStem: 359 132<517.998 751>
LayerCount: 2
Fore
SplineSet
666 803 m 1
 666 671 l 1
 491 671 l 1
 491 483.791992188 l 1
 569.610351562 439.66015625 622.310546875 356.931640625 620 260 c 0
 616.541015625 114.885742188 502.287109375 2.7998046875 358.90625 3.001953125 c 0
 189.0390625 3.240234375 105.165039062 131.7890625 106.000976562 261 c 1
 251.00390625 261 l 1
 251.000976562 260.666992188 251 260.333984375 251 260 c 0
 251 199.8828125 296.772460938 155.08203125 359.955078125 154.017578125 c 0
 422.911132812 155.126953125 469 199.63671875 469 260 c 0
 469 316.657226562 429.734375 359.046875 373.932617188 366 c 1
 359 366 l 1
 359 517.624023438 l 2
 358.96875 517.87109375 358.9375 517.998046875 358.905273438 517.998046875 c 1
 358.9375 517.998046875 358.96875 517.998046875 359 517.998046875 c 1
 359 671 l 1
 50 671 l 1
 50 803 l 1
 666 803 l 1
EndSplineSet
EndChar

StartChar: uni0989
Encoding: 2441 2441 111
Width: 612
VWidth: 0
Flags: HW
HStem: 3.00195 151.016<288.473 418.671> 366 151.998<354 486> 671 132<45 486 593.755 661>
LayerCount: 2
Fore
SplineSet
661 803 m 1
 661 671 l 1
 486 671 l 1
 486 483.791992188 l 1
 564.611328125 439.66015625 617.310546875 356.931640625 615 260 c 0
 611.541015625 114.885742188 497.287109375 2.7998046875 353.90625 3.001953125 c 0
 184.0390625 3.240234375 100.165039062 131.7890625 101.000976562 261 c 1
 246.00390625 261 l 1
 246.000976562 260.666992188 246 260.333984375 246 260 c 0
 246 199.8828125 291.772460938 155.08203125 354.955078125 154.017578125 c 0
 417.911132812 155.126953125 464 199.63671875 464 260 c 0
 464 316.657226562 424.735351562 359.046875 368.932617188 366 c 1
 354 366 l 1
 354 517.622070312 l 2
 353.96875 517.870117188 353.9375 517.998046875 353.905273438 517.998046875 c 1
 353.936523438 517.998046875 353.96875 517.998046875 354 517.998046875 c 1
 354 671 l 1
 45 671 l 1
 45 803 l 1
 344.169921875 803 l 1
 338.783203125 829.090820312 328.6640625 856.108398438 310 875 c 0
 278.591796875 905.81640625 277.884765625 906.5234375 246.771484375 937.635742188 c 0
 200.102539062 984.3046875 141.413085938 965.212890625 94.7431640625 1011.88183594 c 0
 59.388671875 1047.23730469 53.7314453125 1132.09082031 53.7314453125 1132.09082031 c 1
 142.120117188 1220.47851562 l 1
 142.120117188 1220.47851562 149.8984375 1133.50488281 185.959960938 1097.44238281 c 0
 231.21484375 1052.1875 288.491210938 1074.10742188 333.74609375 1028.85253906 c 0
 367.686523438 994.912109375 370.515625 992.083007812 404.456054688 958.142578125 c 0
 454.484375 908.114257812 435.005859375 810.403320312 437.690429688 810.356445312 c 1
 430.333984375 803 l 1
 661 803 l 1
EndSplineSet
EndChar

StartChar: uni09A2
Encoding: 2466 2466 112
Width: 642
VWidth: 0
Flags: HW
HStem: 671 132<50 100 267 689> 671 90<100 267>
VStem: 103 164<172.77 761> 502 164<172.95 373>
LayerCount: 2
Fore
SplineSet
666 184 m 1
 597.931640625 -55.4130859375 172.236328125 -59.4453125 103 184 c 1
 100.467773438 671 l 1
 50 671 l 1
 50 803 l 1
 689 803 l 1
 689 671 l 1
 267 671 l 1
 267 185 l 1
 305.237304688 141.02734375 464.430664062 139.916992188 502 185 c 1
 502 373 l 1
 669 373 l 1
 666 184 l 1
EndSplineSet
EndChar

StartChar: uni099F
Encoding: 2463 2463 113
Width: 642
VWidth: 0
Flags: HW
HStem: 671 132<50 100 593.755 689> 671 90<100 267>
VStem: 103 164<172.77 761> 502 164<172.95 373>
LayerCount: 2
Fore
SplineSet
666 184 m 1
 597.931640625 -55.4130859375 172.236328125 -59.4453125 103 184 c 1
 100.467773438 671 l 1
 50 671 l 1
 50 803 l 1
 301.8359375 803 l 1
 286.87109375 817.96484375 l 2
 241.616210938 863.219726562 263.536132812 920.49609375 218.28125 965.750976562 c 0
 182.21875 1001.8125 95.2451171875 1009.59082031 95.2451171875 1009.59082031 c 1
 183.6328125 1097.97949219 l 1
 183.6328125 1097.97949219 268.486328125 1092.32226562 303.841796875 1056.96777344 c 0
 350.510742188 1010.29785156 331.418945312 951.608398438 378.087890625 904.939453125 c 0
 409.200195312 873.826171875 409.907226562 873.119140625 440.723632812 841.7109375 c 0
 467.475585938 815.282226562 510.520507812 805.987304688 544.153320312 803 c 2
 689 803 l 1
 689 671 l 1
 267 671 l 1
 267 185 l 1
 305.237304688 141.02734375 464.430664062 139.916992188 502 185 c 1
 502 373 l 1
 669 373 l 1
 666 184 l 1
EndSplineSet
EndChar

StartChar: uni0995
Encoding: 2453 2453 114
Width: 1095
VWidth: 0
Flags: HW
HStem: 351.5 151<766.566 895.029> 671 132<50 574 720 1138> 671 106<574 720>
VStem: 573.5 58<73.5 218.5 473.5 473.5> 574 146<1 73.5 218.5 244.5 625.5 777> 937.5 151<218.5 309.029>
LayerCount: 2
Fore
SplineSet
1148 803 m 1
 1148 671 l 1
 720 671 l 1
 720 477.599609375 l 1
 753.46875 493.573242188 790.936523438 502.5 830.5 502.5 c 0
 973.5 502.5 1088.5 387.5 1088.5 244.5 c 0
 1088.5 235.7265625 1088.06054688 227.053710938 1087.20410156 218.5 c 1
 934.364257812 218.5 l 1
 936.415039062 226.826171875 937.5 235.536132812 937.5 244.5 c 0
 937.5 304.5 890.5 351.5 830.5 351.5 c 0
 771.5 351.5 724.5 304.5 724.5 244.5 c 0
 724.5 235.536132812 725.584960938 226.826171875 727.631835938 218.5 c 1
 720 218.5 l 1
 720 1 l 1
 577 1 l 1
 120.5 273.5 l 1
 120.5 425.5 l 1
 574 602.995117188 l 1
 574 671 l 1
 50 671 l 1
 50 803 l 1
 1148 803 l 1
574.961914062 155.461914062 m 1
 574.961914062 155.461914062 574.0078125 452 574 454.072265625 c 1
 264.5 349.5 l 1
 574.961914062 155.461914062 l 1
EndSplineSet
EndChar

StartChar: uni0993
Encoding: 2451 2451 115
Width: 616
VWidth: 0
Flags: HW
HStem: 3 151.017<297.114 426.368> 676 6<275.316 277.624>
VStem: 100 151<198.344 364.102> 469 151<195.94 324.826 500.937 633.001>
LayerCount: 2
Fore
SplineSet
337 682 m 0
 330.208007812 681.634765625 281.076171875 677.51953125 275 676 c 1
 277.624023438 676.109375 254.358398438 760.163085938 257 760 c 0
 268.190429688 759.309570312 329.141601562 800.811523438 381 808 c 0
 524.5234375 827.895507812 622.978515625 717.309570312 620 565 c 0
 618.88671875 508.077148438 601.513671875 455.473632812 570.147460938 412.892578125 c 1
 601.513671875 370.16796875 620 317.333984375 620 260 c 0
 620 118 505 3 362 3 c 0
 360.956054688 3 359.92578125 3.001953125 358.90625 3.001953125 c 0
 358.603515625 3.001953125 358.301757812 3 358 3 c 0
 356.815429688 3 355.631835938 3.0078125 354.451171875 3.0234375 c 0
 349.662109375 3.0693359375 345.004882812 3.205078125 340.133789062 3.6025390625 c 0
 205.541992188 12.708984375 100 123.96484375 100 260 c 0
 100 315.204101562 117.138671875 366.235351562 146.41015625 408.088867188 c 1
 158 412 l 1
 336.961914062 362.549804688 251 404.8828125 251 260 c 0
 251 199.87890625 296.760742188 155.08203125 359.955078125 154.017578125 c 0
 422.901367188 155.126953125 469 199.640625 469 260 c 0
 469 312.4375 433.1015625 354.9453125 384 364.828125 c 1
 384 363.864257812 l 1
 359.955078125 459.017578125 l 1
 368.23046875 459.163085938 376.280273438 460.234375 384 462.131835938 c 1
 384 461.169921875 l 1
 433.1015625 471.0390625 469 513.436523438 469 565 c 0
 469 643.3203125 415.104492188 686.1953125 337 682 c 0
EndSplineSet
EndChar

StartChar: uni09B0
Encoding: 2480 2480 116
Width: 723
VWidth: 0
Flags: HW
HStem: -2 142<211 363> 671 132<50 574 720 773> 671 106<574 720>
VStem: 211 152<-2 140> 574 146<1 73.5 225.5 473.5 625.5 777> 574 57.5<73.5 225.5 473.5 473.5>
LayerCount: 2
Fore
SplineSet
773 803 m 1
 773 671 l 1
 720 671 l 1
 720 1 l 1
 573 1 l 1
 573 2.798828125 l 1
 120.5 273.5 l 1
 120.5 425.5 l 1
 574 602.995117188 l 1
 574 671 l 1
 50 671 l 1
 50 803 l 1
 773 803 l 1
144 -2 m 1
 144 140 l 1
 296 140 l 1
 296 -2 l 1
 144 -2 l 1
573 154.815429688 m 1
 573 454.072265625 l 1
 264.5 349.5 l 1
 573 154.815429688 l 1
EndSplineSet
EndChar

StartChar: mu
Encoding: 181 181 119
Width: 598
VWidth: 0
Flags: HW
HStem: 6 151<284.435 414.159> 504 20G<101 270 431 598>
VStem: 101 169<-189 18 174.134 524> 431 164<177.881 524>
LayerCount: 2
Fore
SplineSet
101 -189 m 1
 101 524 l 1
 270 524 l 1
 270 192 l 1
 290 170 318 157 350 157 c 0
 383 157 411 171 431 194 c 1
 431 524 l 1
 598 524 l 1
 595 193 l 1
 564 84 468 6 350 6 c 0
 322 6 296 10 270 18 c 1
 270 -189 l 1
 101 -189 l 1
EndSplineSet
EndChar

StartChar: guillemotleft
Encoding: 171 171 120
Width: 1282
VWidth: 0
Flags: HW
LayerCount: 2
Fore
SplineSet
644 663 m 1
 644 511 l 1
 237.895507812 337.71875 l 1
 644 158 l 1
 644 6 l 1
 100 250 l 1
 100 251 l 1
 100 402 l 1
 100 403 l 1
 644 663 l 1
1244 663 m 1
 1244 511 l 1
 837.895507812 337.71875 l 1
 1244 158 l 1
 1244 6 l 1
 700 250 l 1
 700 251 l 1
 700 402 l 1
 700 403 l 1
 1244 663 l 1
EndSplineSet
EndChar

StartChar: guillemotright
Encoding: 187 187 121
Width: 1282
VWidth: 0
Flags: HW
LayerCount: 2
Fore
SplineSet
700 663 m 1
 1244 403 l 1
 1244 402 l 1
 1244 251 l 1
 1244 250 l 1
 700 6 l 1
 700 158 l 1
 1106.10449219 337.71875 l 1
 700 511 l 1
 700 663 l 1
100 663 m 1
 644 403 l 1
 644 402 l 1
 644 251 l 1
 644 250 l 1
 100 6 l 1
 100 158 l 1
 506.104492188 337.71875 l 1
 100 511 l 1
 100 663 l 1
EndSplineSet
EndChar

StartChar: cent
Encoding: 162 162 122
Width: 384
VWidth: 0
Flags: HW
HStem: 3 151<337.13 384> 367 151<337.13 384>
VStem: 100 151<196.066 324.529> 288 47<-99 700>
LayerCount: 2
Fore
SplineSet
384 4.2958984375 m 1
 375.446289062 3.4384765625 366.7734375 3 358 3 c 0
 350.24609375 3 342.575195312 3.337890625 335 4 c 1
 335 -99 l 1
 288 -99 l 1
 288 12.517578125 l 1
 179.259765625 42.8349609375 100 142.11328125 100 260 c 0
 100 378.716796875 179.259765625 478.13671875 288 508.477539062 c 1
 288 700 l 1
 335 700 l 1
 335 517 l 1
 342.575195312 517.662109375 350.24609375 518 358 518 c 0
 366.7734375 518 375.446289062 517.560546875 384 516.704101562 c 1
 384 363.864257812 l 1
 375.673828125 365.915039062 366.963867188 367 358 367 c 0
 350.081054688 367 342.387695312 366.181640625 335 364.622070312 c 1
 335 156.375976562 l 1
 342.387695312 154.818359375 350.081054688 154 358 154 c 0
 366.963867188 154 375.673828125 155.084960938 384 157.131835938 c 1
 384 4.2958984375 l 1
288 341.549804688 m 1
 265.219726562 322.071289062 251 293.001953125 251 260 c 0
 251 227.547851562 265.219726562 198.7265625 288 179.359375 c 1
 288 341.549804688 l 1
EndSplineSet
EndChar

StartChar: yen
Encoding: 165 165 123
Width: 612
VWidth: 0
Flags: HW
HStem: 196 62<86 630> 334 62<86 630>
VStem: 279 152<1 450>
LayerCount: 2
Fore
SplineSet
279 451 m 1
 279.365234375 451 l 1
 80 765 l 1
 232 765 l 1
 356 594 l 1
 480 765 l 1
 632 765 l 1
 432 450 l 1
 431 450 l 1
 431 396 l 1
 630 396 l 1
 630 334 l 1
 431 334 l 1
 431 258 l 1
 630 258 l 1
 630 196 l 1
 431 196 l 1
 431 1 l 1
 279 1 l 1
 279 196 l 1
 86 196 l 1
 86 258 l 1
 279 258 l 1
 279 334 l 1
 86 334 l 1
 86 396 l 1
 279 396 l 1
 279 451 l 1
EndSplineSet
EndChar

StartChar: questiondown
Encoding: 191 191 124
Width: 384
VWidth: 0
Flags: HW
HStem: -2 151<293.471 384> 687 142<232 384>
VStem: 100 151<191.066 318.017> 232 152<467.009 597 687 829>
LayerCount: 2
Fore
SplineSet
384 -1 m 1
 375 -2 367 -2 358 -2 c 0
 215 -2 100 113 100 255 c 0
 100 352.168945312 153.098632812 436.41015625 232 480.426757812 c 1
 232 597 l 1
 384 597 l 1
 384 512 l 1
 384 387 l 1
 384 359 l 1
 376 361 367 362 358 362 c 0
 298 362 251 315 251 255 c 0
 251 196 298 149 358 149 c 0
 367 149 376 150 384 152 c 1
 384 -1 l 1
384 829 m 1
 384 687 l 1
 232 687 l 1
 232 829 l 1
 384 829 l 1
EndSplineSet
EndChar

StartChar: plusminus
Encoding: 177 177 125
Width: 644
VWidth: 0
Flags: HW
HStem: -30 152<100 644> 344 152<100 644>
VStem: 296 152<149 692>
LayerCount: 2
Fore
SplineSet
296 692 m 1
 448 692 l 1
 448 496 l 1
 644 496 l 1
 644 344 l 1
 448 344 l 1
 448 149 l 1
 296 149 l 1
 296 344 l 1
 100 344 l 1
 100 496 l 1
 296 496 l 1
 296 692 l 1
644 122 m 1
 644 -30 l 1
 100 -30 l 1
 100 122 l 1
 644 122 l 1
EndSplineSet
EndChar

StartChar: gravecomb
Encoding: 768 768 127
Width: 0
VWidth: 0
GlyphClass: 4
Flags: HW
HStem: 516 289
VStem: -95 290
LayerCount: 2
Fore
SplineSet
87 516 m 1
 -95 698 l 1
 13 805 l 1
 195 623 l 1
 87 516 l 1
EndSplineSet
EndChar

StartChar: acutecomb
Encoding: 769 769 128
Width: 0
VWidth: 0
GlyphClass: 4
Flags: HW
HStem: 516 289
VStem: -95 290
LayerCount: 2
Fore
SplineSet
13 516 m 1
 -95 623 l 1
 87 805 l 1
 195 698 l 1
 13 516 l 1
EndSplineSet
EndChar

StartChar: uni0302
Encoding: 770 770 129
Width: 0
VWidth: 0
GlyphClass: 4
Flags: HW
HStem: 766.5 167<21 25.5 74.5 97.5>
VStem: -50.5 201
LayerCount: 2
Fore
SplineSet
-50.5 766.5 m 1
 21 933.5 l 1
 21.5 933.5 l 1
 97 933.5 l 1
 97.5 933.5 l 1
 150.5 766.5 l 1
 74.5 766.5 l 1
 53.5 873.5 l 1
 25.5 766.5 l 1
 -50.5 766.5 l 1
EndSplineSet
EndChar

StartChar: tildecomb
Encoding: 771 771 130
Width: 0
VWidth: 0
GlyphClass: 4
Flags: HW
HStem: 802.25 76.291<9.7273 154.864> 830.25 76<-66.384 35.496>
VStem: -74.75 249.5<754.486 802.25>
LayerCount: 2
Fore
SplineSet
174.75 918.75 m 1
 174.75 842.75 l 2
 174.548828125 842 146.666015625 802.25 110.75 802.25 c 0
 86.75 802.25 84.75 802.25 60.75 802.25 c 0
 28.75 802.25 16.25 830.25 -15.75 830.25 c 0
 -41.25 830.25 -74.75 802.25 -74.75 802.25 c 1
 -74.75 878.25 l 1
 -74.75 878.25 -42.75 906.25 -17.75 906.25 c 0
 15.25 906.25 29.25 878.75 62.25 878.75 c 0
 84.25 878.75 84.75 878.75 106.75 878.541015625 c 0
 141.25 878.75 174.75 918.75 174.75 918.75 c 1
EndSplineSet
EndChar

StartChar: uni0306
Encoding: 774 774 131
Width: 0
VWidth: 0
GlyphClass: 4
Flags: HW
HStem: 807.75 52<-40.3917 138.293>
VStem: -147.25 14.5<965.212 1021.98> 233.75 12.5<969.659 1027.14>
LayerCount: 2
Fore
SplineSet
178.5 931.5 m 1
 178.5 927.5 178.5 922.5 178.5 918.5 c 0
 178.5 846.5 121.5 789.5 50.5 789.5 c 0
 -21.5 789.5 -78.5 846.5 -78.5 918.5 c 0
 -78.5 922.5 -78.5 927.5 -78.5 931.5 c 1
 -1.5 931.5 l 1
 -2.5 927.5 -3.5 922.5 -3.5 918.5 c 0
 -3.5 888.5 20.5 864.5 50.5 864.5 c 0
 80.5 864.5 103.5 888.5 103.5 918.5 c 0
 103.5 922.5 102.5 927.5 101.5 931.5 c 1
 178.5 931.5 l 1
EndSplineSet
EndChar

StartChar: uni0304
Encoding: 772 772 132
Width: 0
VWidth: 0
GlyphClass: 4
Flags: HW
HStem: 782 76<-86 186>
VStem: -86 272<782 858>
LayerCount: 2
Fore
SplineSet
186 858 m 1
 186 782 l 1
 -86 782 l 1
 -86 858 l 1
 186 858 l 1
EndSplineSet
EndChar

StartChar: dieresis
Encoding: 168 168 133
Width: 452
VWidth: 0
Flags: HW
HStem: -2 142<100 252 300 452>
VStem: 100 152<-2 140> 300 152<-2 140>
LayerCount: 2
Fore
SplineSet
100 -2 m 1
 100 140 l 1
 252 140 l 1
 252 -2 l 1
 100 -2 l 1
300 -2 m 1
 300 140 l 1
 452 140 l 1
 452 -2 l 1
 300 -2 l 1
EndSplineSet
EndChar

StartChar: uni0308
Encoding: 776 776 135
Width: 0
VWidth: 0
GlyphClass: 4
Flags: HW
HStem: 498 142<-126 26 74 226>
VStem: -126 152<498 640> 74 152<498 640>
LayerCount: 2
Fore
SplineSet
-126 498 m 1
 -126 640 l 1
 26 640 l 1
 26 498 l 1
 -126 498 l 1
74 498 m 1
 74 640 l 1
 226 640 l 1
 226 498 l 1
 74 498 l 1
EndSplineSet
EndChar

StartChar: uni0307
Encoding: 775 775 136
Width: 0
VWidth: 0
GlyphClass: 4
Flags: HW
HStem: 498 142<-26 126>
VStem: -26 152<498 640>
LayerCount: 2
Fore
SplineSet
-26 498 m 1
 -26 640 l 1
 126 640 l 1
 126 498 l 1
 -26 498 l 1
EndSplineSet
EndChar

StartChar: hookabovecomb
Encoding: 777 777 137
Width: 0
VWidth: 0
GlyphClass: 4
Flags: HW
HStem: 432 77<-21 36.657> 614 75<-21 33.6663>
VStem: 46 75<518.071 602.495>
LayerCount: 2
Fore
SplineSet
-21 432 m 1
 -21 509 l 1
 -17 508 -12 507 -8 507 c 0
 22 507 46 530 46 560 c 0
 46 590 22 614 -8 614 c 0
 -12 614 -17 613 -21 612 c 1
 -21 689 l 1
 -17 689 -12 689 -8 689 c 0
 64 689 121 632 121 560 c 0
 121 489 64 432 -8 432 c 0
 -12 432 -17 432 -21 432 c 1
EndSplineSet
EndChar

StartChar: uni030A
Encoding: 778 778 138
Width: 0
VWidth: 0
GlyphClass: 4
Flags: HW
HStem: 432 75<38.1875 61.8125> 614 75<38.1875 61.8125>
VStem: -80 76<517.334 603.111> 104 76<517.933 602.698>
LayerCount: 2
Fore
SplineSet
50 614 m 0
 46 614 42 613 38 612 c 1
 38 613 l 1
 13 608 -4 586 -4 560 c 0
 -4 534 13 513 38 508 c 1
 38 509 l 1
 42 508 46 507 50 507 c 0
 54 507 58 508 62 509 c 1
 62 508 l 1
 87 513 104 534 104 560 c 0
 104 586 87 608 62 613 c 1
 62 612 l 1
 58 613 54 614 50 614 c 0
49 432 m 0
 48 432 48 432 47 432 c 0
 45 432 42 432 40 432 c 0
 -27 437 -80 492 -80 560 c 0
 -80 628 -27 684 40 689 c 0
 42 689 45 689 47 689 c 0
 48 689 48 689 49 689 c 0
 50 689 50 689 51 689 c 0
 123 689 180 632 180 560 c 0
 180 489 123 432 51 432 c 0
 50 432 50 432 49 432 c 0
EndSplineSet
EndChar

StartChar: uni030B
Encoding: 779 779 139
Width: 0
VWidth: 0
GlyphClass: 4
Flags: HW
HStem: 514 289
LayerCount: 2
Fore
SplineSet
-130 516 m 1
 -238 623 l 1
 -56 805 l 1
 52 698 l 1
 -130 516 l 1
156 514 m 1
 48 621 l 1
 230 803 l 1
 338 696 l 1
 156 514 l 1
EndSplineSet
EndChar

StartChar: uni030C
Encoding: 780 780 140
Width: 0
VWidth: 0
GlyphClass: 4
Flags: HW
HStem: 766 168<21 26 74 98>
VStem: -50 200
LayerCount: 2
Fore
SplineSet
-50 934 m 1
 26 934 l 1
 54 826 l 1
 74 934 l 1
 150 934 l 1
 98 766 l 1
 97 766 l 1
 22 766 l 1
 21 766 l 1
 -50 934 l 1
EndSplineSet
EndChar

StartChar: uni030F
Encoding: 783 783 141
Width: 0
VWidth: 0
GlyphClass: 4
Flags: HW
HStem: 514 289
LayerCount: 2
Fore
SplineSet
230 516 m 1
 48 698 l 1
 156 805 l 1
 338 623 l 1
 230 516 l 1
-56 514 m 1
 -238 696 l 1
 -130 803 l 1
 52 621 l 1
 -56 514 l 1
EndSplineSet
EndChar

StartChar: dotbelowcomb
Encoding: 803 803 142
Width: 0
VWidth: 0
GlyphClass: 4
Flags: HW
HStem: -2 142<-26 126>
VStem: -26 152<-2 140>
LayerCount: 2
Fore
SplineSet
-26 -2 m 1
 -26 140 l 1
 126 140 l 1
 126 -2 l 1
 -26 -2 l 1
EndSplineSet
EndChar

StartChar: uni0328
Encoding: 808 808 143
Width: 0
VWidth: 0
GlyphClass: 4
Flags: HW
HStem: -68 75<66.3337 121> 114 75<66.3337 121>
VStem: -21 75<18.0713 102.495>
LayerCount: 2
Fore
SplineSet
121 -68 m 1
 117 -68 112 -68 108 -68 c 0
 36 -68 -21 -11 -21 60 c 0
 -21 132 36 189 108 189 c 0
 112 189 117 189 121 189 c 1
 121 112 l 1
 117 113 112 114 108 114 c 0
 78 114 54 90 54 60 c 0
 54 30 78 7 108 7 c 0
 112 7 117 8 121 9 c 1
 121 -68 l 1
EndSplineSet
EndChar

StartChar: uni0327
Encoding: 807 807 144
Width: 0
VWidth: 0
GlyphClass: 4
Flags: HW
HStem: -68 77<-21 36.657> 114 75<-21 33.6663>
VStem: 46 75<18.0713 102.495>
LayerCount: 2
Fore
SplineSet
-21 -68 m 1
 -21 9 l 1
 -17 8 -12 7 -8 7 c 0
 22 7 46 30 46 60 c 0
 46 90 22 114 -8 114 c 0
 -12 114 -17 113 -21 112 c 1
 -21 189 l 1
 -17 189 -12 189 -8 189 c 0
 64 189 121 132 121 60 c 0
 121 -11 64 -68 -8 -68 c 0
 -12 -68 -17 -68 -21 -68 c 1
EndSplineSet
EndChar

StartChar: dotlessi
Encoding: 305 305 145
Width: 252
VWidth: 0
Flags: HW
HStem: -2 21G<100 252> 492 20G<100 252>
VStem: 100 152<-2 512>
LayerCount: 2
Fore
SplineSet
100 512 m 1
 252 512 l 1
 252 -2 l 1
 100 -2 l 1
 100 512 l 1
EndSplineSet
EndChar

StartChar: uni0313
Encoding: 787 787 292
Width: 0
VWidth: 400
GlyphClass: 4
Flags: HW
HStem: 266 274<16.7676 69.1818>
VStem: -26 152<398 540>
LayerCount: 2
Fore
SplineSet
-26 398 m 1
 -26 540 l 1
 126 540 l 1
 126 398 l 1
 66 266 l 1
 8 270 l 1
 16.767578125 398 l 1
 -26 398 l 1
EndSplineSet
EndChar

StartChar: uni0312
Encoding: 786 786 293
Width: 0
VWidth: 400
GlyphClass: 4
Flags: HW
HStem: 266 274<30.8182 83.2324>
VStem: -26 152<266 408>
LayerCount: 2
Fore
SplineSet
126 408 m 1
 126 266 l 1
 -26 266 l 1
 -26 408 l 1
 34 540 l 1
 92 536 l 1
 83.232421875 408 l 1
 126 408 l 1
EndSplineSet
EndChar

StartChar: uni0326
Encoding: 806 806 297
Width: 0
VWidth: 100
GlyphClass: 4
Flags: HW
HStem: -34 274<16.7676 69.1818>
VStem: -26 152<98 240>
LayerCount: 2
Fore
SplineSet
-26 98 m 1
 -26 240 l 1
 126 240 l 1
 126 98 l 1
 66 -34 l 1
 8 -30 l 1
 16.767578125 98 l 1
 -26 98 l 1
EndSplineSet
EndChar

StartChar: multiply
Encoding: 215 215 308
Width: 724
VWidth: 200
Flags: HW
HStem: 199 20G<118.427 279 531.563 724> 693 20G<117.437 286 530.573 723>
LayerCount: 2
Fore
SplineSet
100 713 m 1
 286 711 l 1
 415.491210938 559.926757812 l 1
 548 712 l 1
 723 711 l 1
 502.584960938 458.317382812 l 1
 724 200 l 1
 549 198 l 1
 412.291015625 354.8046875 l 1
 279 202 l 1
 101 199 l 1
 324.5 455.5 l 1
 100 713 l 1
EndSplineSet
EndChar

StartChar: periodcentered
Encoding: 183 183 309
Width: 252
VWidth: 400
Flags: HW
HStem: 398 142<100 252>
VStem: 100 152<398 540>
LayerCount: 2
Fore
SplineSet
100 398 m 1
 100 540 l 1
 252 540 l 1
 252 398 l 1
 100 398 l 1
EndSplineSet
EndChar

StartChar: registered
Encoding: 174 174 310
Width: 864
VWidth: 0
Flags: HW
LayerCount: 2
Fore
SplineSet
716.760742188 378.5546875 m 0
 716.760742188 510.799804688 612.1953125 618.44140625 482 618.44140625 c 0
 351.8046875 618.44140625 247.239257812 510.799804688 247.239257812 378.5546875 c 0
 247.239257812 245.284179688 351.8046875 137.642578125 482 137.642578125 c 0
 612.1953125 137.642578125 716.760742188 245.284179688 716.760742188 378.5546875 c 0
760.477539062 379.865234375 m 0
 760.477539062 220.942382812 635.819335938 92.638671875 482 92.638671875 c 0
 328.180664062 92.638671875 203.522460938 220.942382812 203.522460938 379.865234375 c 0
 203.522460938 538.057617188 328.180664062 666.361328125 482 666.361328125 c 0
 635.819335938 666.361328125 760.477539062 538.057617188 760.477539062 379.865234375 c 0
445.185546875 245.545898438 m 1
 389.78125 245.545898438 l 1
 389.78125 528.3984375 l 1
 445.185546875 528.3984375 l 2
 448.1015625 528.762695312 451.017578125 528.762695312 453.932617188 528.762695312 c 0
 506.057617188 528.762695312 547.974609375 486.845703125 547.974609375 435.0859375 c 0
 547.974609375 394.137695312 522.103515625 359.48828125 485.73828125 346.512695312 c 1
 558.1796875 243.359375 l 1
 507.150390625 243.359375 l 1
 446.977539062 341.228515625 l 2
 446.37890625 341.275390625 445.783203125 341.334960938 445.185546875 341.409179688 c 1
 445.185546875 245.545898438 l 1
445.185546875 472.629882812 m 2
 445.185546875 397.178710938 l 2
 448.1015625 396.44921875 451.017578125 396.083984375 453.932617188 396.083984375 c 0
 475.802734375 396.083984375 492.935546875 413.216796875 492.935546875 435.0859375 c 0
 492.935546875 456.591796875 475.802734375 473.72265625 453.932617188 473.72265625 c 0
 451.017578125 473.72265625 448.1015625 473.358398438 445.185546875 472.629882812 c 2
EndSplineSet
EndChar

StartChar: copyright
Encoding: 169 169 311
Width: 864
VWidth: 0
Flags: HW
LayerCount: 2
Fore
SplineSet
775.451171875 378.318359375 m 0
 775.451171875 543.625 644.744140625 678.176757812 482 678.176757812 c 0
 319.255859375 678.176757812 188.548828125 543.625 188.548828125 378.318359375 c 0
 188.548828125 211.73046875 319.255859375 77.177734375 482 77.177734375 c 0
 644.744140625 77.177734375 775.451171875 211.73046875 775.451171875 378.318359375 c 0
830.096679688 379.95703125 m 0
 830.096679688 181.302734375 674.274414062 20.923828125 482 20.923828125 c 0
 289.725585938 20.923828125 133.903320312 181.302734375 133.903320312 379.95703125 c 0
 133.903320312 577.697265625 289.725585938 738.076171875 482 738.076171875 c 0
 674.274414062 738.076171875 830.096679688 577.697265625 830.096679688 379.95703125 c 0
543.25 195.623046875 m 1
 537.904296875 195.086914062 532.483398438 194.8125 527 194.8125 c 0
 437.625 194.8125 365.75 266.6875 365.75 355.4375 c 0
 365.75 444.8125 437.625 516.6875 527 516.6875 c 0
 532.483398438 516.6875 537.904296875 516.413085938 543.25 515.876953125 c 1
 543.25 420.353515625 l 1
 538.045898438 421.634765625 532.6015625 422.3125 527 422.3125 c 0
 489.5 422.3125 460.125 392.9375 460.125 355.4375 c 0
 460.125 318.5625 489.5 289.1875 527 289.1875 c 0
 532.6015625 289.1875 538.045898438 289.865234375 543.25 291.145507812 c 1
 543.25 195.623046875 l 1
EndSplineSet
EndChar

StartChar: brokenbar
Encoding: 166 166 312
Width: 252
VWidth: 0
Flags: HW
HStem: -2 21G<100 252> 492 20G<100 252> 630 142<100 252>
VStem: 100 152<-2 512 630 772>
LayerCount: 2
Fore
SplineSet
252 833 m 1
 252 459 l 1
 100 459 l 1
 100 833 l 1
 252 833 l 1
252 370 m 1
 252 -30 l 1
 100 -30 l 1
 100 370 l 1
 252 370 l 1
EndSplineSet
EndChar

StartChar: section
Encoding: 167 167 313
Width: 512
VWidth: 0
Flags: HW
LayerCount: 2
Fore
SplineSet
25 108 m 1
 100 233 l 1
 106 228 112 223 122 218 c 0
 173 188 237 205 267 253 c 0
 299 309 249 357 197 366 c 1
 71 434 -13 549 71 690 c 0
 97.2392578125 733.482421875 135.703125 766.145507812 180.123046875 786.461914062 c 1
 116.170898438 852.720703125 91.6455078125 939.369140625 151 1039 c 0
 221 1155 378 1194 503 1127 c 0
 509 1121 517 1118 524 1112 c 1
 449 987 l 1
 443 992 437 997 427 1002 c 0
 376 1030 312 1014 282 965 c 0
 249 910 282 829 346 818 c 1
 360.34765625 810.274414062 374.423828125 802.217773438 387.923828125 793.76953125 c 0
 399.82421875 789.388671875 411.545898438 784.139648438 423 778 c 0
 429 772 437 769 444 763 c 1
 439.928710938 756.21484375 l 1
 505.184570312 700.543945312 537.126953125 629.032226562 477 530 c 0
 445.942382812 477.336914062 397.055664062 440.4765625 341.283203125 422.063476562 c 1
 418.58984375 364.361328125 462.611328125 289.06640625 397 181 c 0
 328 64 171 25 46 93 c 0
 40 99 32 102 25 108 c 1
189.249023438 574.6796875 m 0
 192.80859375 572.120117188 196.879882812 569.559570312 202 567 c 0
 253 537 317 554 347 602 c 0
 356.247070312 618.18359375 358.647460938 633.698242188 356.12890625 647.796875 c 0
 353.456054688 649.53125 350.46875 651.265625 347 653 c 0
 296 681 232 665 202 616 c 0
 194.336914062 603.227539062 190.232421875 589.053710938 189.249023438 574.6796875 c 0
EndSplineSet
EndChar

StartChar: paragraph
Encoding: 182 182 314
Width: 776
VWidth: 0
Flags: HW
HStem: 265 151<293.471 382> 629 150<293.591 381.625>
VStem: 382 152<3 266 416.026 628.974> 100 151<458.471 586.934>
LayerCount: 2
Fore
SplineSet
382 3 m 1
 382 266 l 1
 374 265 366 265 358 265 c 0
 215 265 100 380 100 523 c 0
 100 665 215 780 358 780 c 0
 366 780 374 780 382 779 c 2
 534 779 l 1
 534 3 l 1
 382 3 l 1
600 774 m 1
 752 774 l 1
 752 -2 l 1
 600 -2 l 1
 600 774 l 1
EndSplineSet
EndChar

StartChar: Thorn
Encoding: 222 222 315
Width: 512
VWidth: 0
Flags: HW
HStem: -202 21G<100 252> -5 151<252 340.529> 359 150<252.375 340.409>
VStem: 100 152<-202 -4 146.026 358.974> 383 151<188.471 316.934>
LayerCount: 2
Fore
SplineSet
252 561 m 1
 252 354 l 1
 260 352 268 351 276 351 c 0
 336 351 383 398 383 458 c 0
 383 517 336 564 276 564 c 0
 268 564 260 563 252 561 c 1
252 3 m 1
 100 3 l 1
 100 903 l 1
 247 903 l 1
 252 714 l 1
 260 715 268 715 276 715 c 0
 419 715 534 600 534 458 c 0
 534 315 419 200 276 200 c 0
 268 200 260 200 252 201 c 1
 252 3 l 1
EndSplineSet
EndChar

StartChar: germandbls
Encoding: 223 223 316
Width: 771
VWidth: 0
Flags: HW
LayerCount: 2
Fore
SplineSet
288.615234375 47 m 1
 355.615234375 159 l 1
 361.615234375 153 368.615234375 150 377.615234375 147 c 0
 430.615234375 123 474.615234375 131 500.615234375 162 c 0
 529.615234375 196 478.615234375 202 424.615234375 211 c 1
 296.615234375 262 225.615234375 345 300.615234375 434 c 0
 361.99609375 508.046875 406.811523438 598.086914062 531.775390625 549.022460938 c 0
 532.515625 549.0078125 533.256835938 549 534 549 c 0
 594 549 641 596 641 656 c 0
 641 720.255859375 265.541992188 732.190429688 223 683 c 1
 223 2 l 1
 56 2 l 1
 59 684 l 1
 75 739.333007812 105.333007812 784.333007812 150 819 c 0
 289.345703125 927.1484375 792 856.984375 792 656 c 0
 792 283.000976562 590.864257812 537.412109375 475.615234375 400 c 0
 445.615234375 365 442.615234375 286 506.615234375 275 c 1
 625.615234375 225 728.615234375 164 652.615234375 75 c 0
 590.615234375 -1 437.615234375 -21 310.615234375 34 c 0
 303.615234375 36 296.615234375 41 288.615234375 47 c 1
EndSplineSet
EndChar

StartChar: thorn
Encoding: 254 254 317
Width: 512
VWidth: 0
Flags: HW
HStem: -202 21G<100 252> -5 151<252 340.529> 359 150<252.375 340.409>
VStem: 100 152<-202 -4 146.026 358.974> 383 151<188.471 316.934>
LayerCount: 2
Fore
SplineSet
252 359 m 1
 252 152 l 1
 260 150 268 149 276 149 c 0
 336 149 383 196 383 256 c 0
 383 315 336 362 276 362 c 0
 268 362 260 361 252 359 c 1
252 -199 m 1
 100 -199 l 1
 100 701 l 1
 247 701 l 1
 252 512 l 1
 260 513 268 513 276 513 c 0
 419 513 534 398 534 256 c 0
 534 113 419 -2 276 -2 c 0
 268 -2 260 -2 252 -1 c 1
 252 -199 l 1
EndSplineSet
EndChar

StartChar: AE
Encoding: 198 198 318
Width: 1024
VWidth: 0
Flags: HW
HStem: -3 152<608 1023> 333 152<608 915> 626 152<608 1023>
VStem: 456 568<-3 149 626 778> 456 152<149 333 485 626>
LayerCount: 2
Fore
SplineSet
915 485 m 1
 916 333 l 1
 608 333 l 1
 608 149 l 1
 1023 149 l 1
 1024 -3 l 1
 457 -3 l 1
 456.993164062 -2 l 1
 456 -2 l 1
 456 227 l 1
 311.038085938 227 l 1
 252 0 l 1
 100 0 l 1
 300 778 l 1
 1023 778 l 1
 1024 626 l 1
 608 626 l 1
 608 485 l 1
 915 485 l 1
456.827148438 367 m 1
 391.200195312 535.223632812 l 1
 347.448242188 367 l 1
 456.827148438 367 l 1
EndSplineSet
EndChar

StartChar: Eth
Encoding: 208 208 319
Width: 690
VWidth: 0
Flags: HW
HStem: -13.9789 157.014<312 397.489> 611.965 161.035<312 403.477>
VStem: 160 152<-14 -13.9789 143.035 611.965> 537 153<282.064 475.736>
LayerCount: 2
Fore
SplineSet
160 768 m 1
 209.62109375 760.911132812 258.3828125 773 308 773 c 0
 519 773 690 597 690 380 c 0
 690 163.37890625 521.157226562 -11.771484375 312 -13.978515625 c 2
 160 -14 l 1
 160 344 l 1
 100 344 l 1
 100 496 l 1
 160 496 l 1
 160 768 l 1
312 143.03515625 m 1
 437.134765625 145.211914062 537 249.368164062 537 378 c 0
 537 505.642578125 437.134765625 609.788085938 312 611.96484375 c 1
 312 496 l 1
 371 496 l 1
 371 344 l 1
 312 344 l 1
 312 143.03515625 l 1
EndSplineSet
EndChar

StartChar: Oslash
Encoding: 216 216 320
Width: 864
VWidth: 0
Flags: HW
HStem: -14 157<387.027 576.973> 612 161<387.027 576.973>
VStem: 100 153<278.712 478.774> 711 153<278.712 478.774>
LayerCount: 2
Fore
SplineSet
648.806640625 538.438476562 m 1
 424.731445312 150.348632812 l 1
 443.01953125 145.55078125 462.206054688 143 482 143 c 0
 609 143 711 248 711 378 c 0
 711 440.03125 687.415039062 496.51171875 648.806640625 538.438476562 c 1
544.91796875 603.094726562 m 1
 524.9453125 608.89453125 503.842773438 612 482 612 c 0
 355 612 253 507 253 378 c 0
 253 313.299804688 278.265625 254.791992188 319.302734375 212.33984375 c 1
 544.91796875 603.094726562 l 1
864 380 m 0
 864 162 693 -14 482 -14 c 0
 433.677734375 -14 387.452148438 -4.7685546875 344.899414062 12.0830078125 c 1
 290 -83 l 1
 184 -22 l 1
 240.001953125 74.9931640625 l 1
 154.53125 147.181640625 100 256.893554688 100 380 c 0
 100 597 271 773 482 773 c 0
 533.051757812 773 581.76171875 762.697265625 626.275390625 744.002929688 c 1
 669 818 l 1
 775 757 l 1
 729.946289062 678.96875 l 1
 811.991210938 606.87890625 864 499.674804688 864 380 c 0
EndSplineSet
EndChar

StartChar: ae
Encoding: 230 230 321
Width: 905
VWidth: 0
Flags: HW
HStem: 3 151<581.073 894.239> 205.32 128.941<568.301 725.264> 367 151<580.682 710.767>
VStem: 388 517<208.188 330.811>
LayerCount: 2
Fore
SplineSet
904 260 m 0
 904 241.328125 905 223 905 208 c 1
 557.985351562 205.3203125 l 1
 576.489257812 174.45703125 606.416015625 154 646 154 c 0
 660.516601562 154 882 157 895 162 c 1
 895 6 l 1
 882 4 659.946289062 3 646 3 c 0
 613.931640625 3 583.271484375 8.783203125 555 19.357421875 c 1
 382 1 l 1
 382 9 l 1
 374 8 366 8 358 8 c 0
 215 8 100 123 100 266 c 0
 100 408 215 515 358 515 c 0
 366 515 374 515 382 514 c 2
 555 514 l 1
 646 518 l 1
 788 518 904 403 904 260 c 0
382 369 m 1
 374 371 366 372 358 372 c 0
 298 372 251 325 251 266 c 0
 251 206 298 159 358 159 c 0
 366 159 374 160 382 162 c 1
 382 369 l 1
552.680664062 296.67578125 m 1
 744.883789062 294.1015625 l 1
 720.395507812 320.966796875 685.046875 375.099609375 645.8046875 375.099609375 c 0
 607.188476562 375.099609375 576.879882812 322.025390625 552.680664062 296.67578125 c 1
EndSplineSet
EndChar

StartChar: eth
Encoding: 240 240 322
Width: 612
VWidth: 0
Flags: HW
HStem: 3 151<292.454 382> 367 151<293.471 382>
VStem: 100 151<196.066 324.529> 382 152<4 4.10351 154.011 366.989 516.896 780>
LayerCount: 2
Fore
SplineSet
185 780 m 1
 337 780 l 1
 341.977539062 775.721679688 346.989257812 771.3984375 352.025390625 767.025390625 c 1
 390 805 l 1
 477 729 l 1
 436.727539062 688.727539062 l 1
 580.248046875 544.008789062 695.58203125 342.99609375 534 4 c 1
 382 4 l 1
 382 4.103515625 l 1
 374.095703125 3.373046875 366.08984375 3 358 3 c 0
 215 3 100 118 100 260 c 0
 100 403 215 518 358 518 c 0
 366.08984375 518 374.095703125 517.626953125 382 516.896484375 c 1
 331.860351562 583.860351562 l 1
 295 547 l 1
 208 623 l 1
 262.069335938 677.069335938 l 1
 185 780 l 1
359.955078125 366.982421875 m 0
 351.641601562 366.842773438 343.393554688 365.848632812 336 364 c 1
 336 364.828125 l 1
 286.8984375 354.9453125 251 312.4375 251 260 c 0
 251 208.436523438 286.8984375 166.0390625 336 156.169921875 c 1
 336 157 l 1
 343.393554688 155.151367188 351.641601562 154.157226562 359.955078125 154.017578125 c 0
 368.23046875 154.163085938 376.280273438 155.234375 384 157.131835938 c 1
 384 156.169921875 l 1
 433.1015625 166.0390625 469 208.436523438 469 260 c 0
 469 312.4375 433.1015625 354.9453125 384 364.828125 c 1
 384 363.864257812 l 1
 376.280273438 365.765625 368.23046875 366.836914062 359.955078125 366.982421875 c 0
EndSplineSet
EndChar

StartChar: divide
Encoding: 247 247 323
Width: 644
VWidth: 0
Flags: HW
HStem: -2 142<100 252> 398 142<100 252>
VStem: 100 152<-2 140 398 540>
LayerCount: 2
Fore
SplineSet
300 151 m 1
 300 293 l 1
 452 293 l 1
 452 151 l 1
 300 151 l 1
300 551 m 1
 300 693 l 1
 452 693 l 1
 452 551 l 1
 300 551 l 1
644 496 m 1
 644 344 l 1
 100 344 l 1
 100 496 l 1
 644 496 l 1
EndSplineSet
EndChar

StartChar: oslash
Encoding: 248 248 324
Width: 616
VWidth: 0
Flags: HW
HStem: 3 21G<357.408 358.151 361.478 433.5> 498 20G<357.408 358.151 361.478 433.5>
VStem: 100 151<197.14 323.449> 469 151<195.844 324.753>
LayerCount: 2
Fore
SplineSet
373.872070312 155.151367188 m 1
 377.303710938 155.653320312 380.682617188 156.31640625 384 157.131835938 c 1
 384 156.169921875 l 1
 433.1015625 166.0390625 469 208.436523438 469 260 c 0
 469 275.224609375 465.973632812 289.612304688 460.477539062 302.607421875 c 1
 373.872070312 155.151367188 l 1
356.393554688 366.870117188 m 1
 349.299804688 366.541015625 342.3359375 365.583984375 336 364 c 1
 336 364.828125 l 1
 286.8984375 354.9453125 251 312.4375 251 260 c 0
 251 241.526367188 255.607421875 224.229492188 263.780273438 209.182617188 c 1
 356.393554688 366.870117188 l 1
100 260 m 0
 100 400.959960938 211.197265625 518 358 518 c 0
 358.301757812 518 358.603515625 517.999023438 358.905273438 517.998046875 c 0
 359.92578125 518 360.956054688 518 362 518 c 0
 388.643554688 518 414.315429688 514.0078125 438.452148438 506.5859375 c 1
 508 625 l 1
 614 564 l 1
 543.41796875 443.82421875 l 1
 590.752929688 397.109375 620 332.115234375 620 260 c 0
 620 118 505 3 362 3 c 0
 360.956054688 3 359.92578125 3.001953125 358.90625 3.001953125 c 0
 358.603515625 3.001953125 358.301757812 3 358 3 c 0
 332.426757812 3 311.399414062 6.169921875 289.807617188 12.0205078125 c 1
 234 -83 l 1
 128 -22 l 1
 182.735351562 71.1943359375 l 1
 131.793945312 118.135742188 100 185.3359375 100 260 c 0
EndSplineSet
EndChar

StartChar: dcaron
Encoding: 271 271 326
Width: 710
VWidth: 0
Flags: HW
HStem: 3 151<292.454 382> 367 151<293.471 382>
VStem: 100 151<196.066 324.529> 382 152<4 4.10351 154.011 366.989 516.896 780>
LayerCount: 2
Fore
SplineSet
382 156.66015625 m 1
 382 364.336914062 l 1
 374.282226562 366.081054688 366.249023438 367 358 367 c 0
 298 367 251 320 251 260 c 0
 251 201 298 154 358 154 c 0
 366.249023438 154 374.282226562 154.918945312 382 156.66015625 c 1
382 780 m 1
 534 780 l 1
 534 4 l 1
 382 4 l 1
 382 4.103515625 l 1
 374.095703125 3.373046875 366.08984375 3 358 3 c 0
 215 3 100 118 100 260 c 0
 100 403 215 518 358 518 c 0
 366.08984375 518 374.095703125 517.626953125 382 516.896484375 c 1
 382 780 l 1
566 532 m 1
 566 789 l 1
 718 789 l 1
 673 532 l 1
 566 532 l 1
EndSplineSet
EndChar

StartChar: dcroat
Encoding: 273 273 327
Width: 585
VWidth: 0
Flags: HW
HStem: 3 151<292.454 382> 367 151<293.471 382>
VStem: 100 151<196.066 324.529> 382 152<4 4.10351 154.011 366.989 516.896 780>
LayerCount: 2
Fore
SplineSet
382 156.66015625 m 1
 382 364.336914062 l 1
 374.282226562 366.081054688 366.249023438 367 358 367 c 0
 298 367 251 320 251 260 c 0
 251 201 298 154 358 154 c 0
 366.249023438 154 374.282226562 154.918945312 382 156.66015625 c 1
382 780 m 1
 534 780 l 1
 534 739 l 1
 585 739 l 1
 585 587 l 1
 534 587 l 1
 534 4 l 1
 382 4 l 1
 382 4.103515625 l 1
 374.095703125 3.373046875 366.08984375 3 358 3 c 0
 215 3 100 118 100 260 c 0
 100 403 215 518 358 518 c 0
 366.08984375 518 374.095703125 517.626953125 382 516.896484375 c 1
 382 587 l 1
 314 587 l 1
 314 739 l 1
 382 739 l 1
 382 780 l 1
EndSplineSet
EndChar

StartChar: Hbar
Encoding: 294 294 328
Width: 652
VWidth: 0
Flags: HW
HStem: -2 21G<100 252 500 652> 333 152<252 500> 754 20G<100 252 500 652>
VStem: 100 152<-2 333 485 774> 500 152<-2 333 485 774>
LayerCount: 2
Fore
SplineSet
252 561 m 1
 252 485 l 1
 500 485 l 1
 500 561 l 1
 252 561 l 1
500 774 m 1
 652 774 l 1
 652 713 l 1
 697 713 l 1
 697 561 l 1
 652 561 l 1
 652 -2 l 1
 500 -2 l 1
 500 333 l 1
 252 333 l 1
 252 -2 l 1
 100 -2 l 1
 100 561 l 1
 50 561 l 1
 50 713 l 1
 100 713 l 1
 100 774 l 1
 252 774 l 1
 252 713 l 1
 500 713 l 1
 500 774 l 1
EndSplineSet
EndChar

StartChar: hbar
Encoding: 295 295 329
Width: 658
VWidth: 0
Flags: HW
HStem: 644 152<111 655>
LayerCount: 2
Fore
SplineSet
388 731 m 1
 388 579 l 1
 330 579 l 1
 330 512 l 1
 356 520 382 524 410 524 c 0
 528 524 624 446 655 337 c 1
 658 6 l 1
 491 6 l 1
 491 336 l 1
 471 359 443 373 410 373 c 0
 378 373 350 360 330 338 c 1
 330 6 l 1
 161 6 l 1
 161 579 l 1
 100 579 l 1
 100 731 l 1
 161 731 l 1
 161 768 l 1
 330 768 l 1
 330 731 l 1
 388 731 l 1
EndSplineSet
EndChar

StartChar: lcaron
Encoding: 318 318 332
Width: 419
VWidth: 0
Flags: HW
HStem: -3 151<283.008 413.885> 741 20G<100 267>
VStem: 103 164<166.215 761>
LayerCount: 2
Fore
SplineSet
419 6 m 1
 396.333007812 0 372.666992188 -3 348 -3 c 0
 290 -3 238.666992188 14.3330078125 194 49 c 0
 149.333007812 83.6669921875 119 128.666992188 103 184 c 1
 100 761 l 1
 267 761 l 1
 267 185 l 1
 288.333007812 160.333007812 315.333007812 148 348 148 c 0
 374.666992188 148 398.333007812 156.666992188 419 174 c 1
 419 6 l 1
310 504 m 1
 310 761 l 1
 462 761 l 1
 417 504 l 1
 310 504 l 1
EndSplineSet
EndChar

StartChar: Lslash
Encoding: 321 321 333
Width: 718
VWidth: 0
Flags: HW
HStem: -3 152<252 717> 754 20G<100 252>
VStem: 100 152<149 774>
LayerCount: 2
Fore
SplineSet
100 774 m 1
 252 774 l 1
 252 149 l 1
 717 149 l 1
 718 -3 l 1
 101 -3 l 1
 100.993164062 -2 l 1
 100 -2 l 1
 100 774 l 1
EndSplineSet
EndChar

StartChar: Lcaron
Encoding: 317 317 334
Width: 718
VWidth: 0
Flags: HW
HStem: -3 152<252 717> 754 20G<100 252>
VStem: 100 152<149 774>
LayerCount: 2
Fore
SplineSet
100 774 m 1
 252 774 l 1
 252 149 l 1
 717 149 l 1
 718 -3 l 1
 101 -3 l 1
 100.993164062 -2 l 1
 100 -2 l 1
 100 774 l 1
302 520 m 1
 302 777 l 1
 454 777 l 1
 409 520 l 1
 302 520 l 1
EndSplineSet
EndChar

StartChar: lslash
Encoding: 322 322 335
Width: 419
VWidth: 0
Flags: HW
HStem: -3 151<283.008 413.885> 741 20G<100 267>
VStem: 103 164<166.215 761>
LayerCount: 2
Fore
SplineSet
419 6 m 1
 396.333007812 0 372.666992188 -3 348 -3 c 0
 290 -3 238.666992188 14.3330078125 194 49 c 0
 149.333007812 83.6669921875 119 128.666992188 103 184 c 1
 100 761 l 1
 267 761 l 1
 267 185 l 1
 288.333007812 160.333007812 315.333007812 148 348 148 c 0
 374.666992188 148 398.333007812 156.666992188 419 174 c 1
 419 6 l 1
EndSplineSet
EndChar

StartChar: OE
Encoding: 338 338 336
Width: 1068
VWidth: 0
Flags: HW
HStem: -3 152<652 1067> 333 152<652 959> 626 152<652 1067>
VStem: 500 568<-3 149 626 778> 500 152<149 333 485 626>
LayerCount: 2
Fore
SplineSet
482 612 m 0
 355 612 253 507 253 378 c 0
 253 248 355 143 482 143 c 0
 488.059570312 143 494.0625 143.239257812 500 143.708007812 c 1
 500 611.291992188 l 1
 494.0625 611.760742188 488.059570312 612 482 612 c 0
959 485 m 1
 960 333 l 1
 652 333 l 1
 652 149 l 1
 1067 149 l 1
 1068 -3 l 1
 555 -3 l 1
 555 -6.830078125 l 1
 531.37109375 -11.5361328125 506.965820312 -14 482 -14 c 0
 271 -14 100 162 100 380 c 0
 100 597 271 773 482 773 c 0
 488.034179688 773 494.03515625 772.856445312 500 772.571289062 c 1
 500 774 l 1
 500 778 l 1
 1067 778 l 1
 1068 626 l 1
 652 626 l 1
 652 485 l 1
 959 485 l 1
EndSplineSet
EndChar

StartChar: oe
Encoding: 339 339 337
Width: 1000
VWidth: 0
Flags: HW
LayerCount: 2
Fore
SplineSet
358.90625 3.001953125 m 0
 358.603515625 3.001953125 358.301757812 3 358 3 c 0
 356.815429688 3 355.631835938 3.0078125 354.451171875 3.0234375 c 0
 349.662109375 3.0693359375 345.004882812 3.205078125 340.133789062 3.6025390625 c 0
 205.541992188 12.708984375 100 123.96484375 100 260 c 0
 100 396.991210938 205.5390625 508.286132812 340.12890625 517.397460938 c 0
 345.001953125 517.794921875 349.66015625 517.930664062 354.451171875 517.9765625 c 0
 355.631835938 517.9921875 356.815429688 518 358 518 c 0
 358.301757812 518 358.603515625 517.999023438 358.905273438 517.998046875 c 0
 359.92578125 518 360.956054688 518 362 518 c 0
 436.818359375 518 503.971679688 486.51953125 551 436.018554688 c 1
 598.028320312 486.51953125 665.181640625 518 740 518 c 0
 882 518 998 403 998 260 c 0
 998 241.328125 999 223 999 208 c 1
 647.985351562 205.3203125 l 1
 666.489257812 174.45703125 700.416015625 154 740 154 c 0
 754.516601562 154 976 157 989 162 c 1
 989 6 l 1
 976 4 753.946289062 3 740 3 c 0
 665.181640625 3 598.028320312 34.48046875 551 84.837890625 c 1
 503.971679688 34.48046875 436.818359375 3 362 3 c 0
 360.956054688 3 359.92578125 3.001953125 358.90625 3.001953125 c 0
642.680664062 296.67578125 m 1
 838.883789062 294.1015625 l 1
 814.395507812 320.966796875 779.046875 375.099609375 739.8046875 375.099609375 c 0
 701.188476562 375.099609375 666.879882812 322.025390625 642.680664062 296.67578125 c 1
359.955078125 366.982421875 m 0
 351.641601562 366.842773438 343.393554688 365.848632812 336 364 c 1
 336 364.828125 l 1
 286.8984375 354.9453125 251 312.4375 251 260 c 0
 251 208.436523438 286.8984375 166.0390625 336 156.169921875 c 1
 336 157 l 1
 343.393554688 155.151367188 351.641601562 154.157226562 359.955078125 154.017578125 c 0
 368.23046875 154.163085938 376.280273438 155.234375 384 157.131835938 c 1
 384 156.169921875 l 1
 433.1015625 166.0390625 469 208.436523438 469 260 c 0
 469 312.4375 433.1015625 354.9453125 384 364.828125 c 1
 384 363.864257812 l 1
 376.280273438 365.765625 368.23046875 366.836914062 359.955078125 366.982421875 c 0
EndSplineSet
EndChar

StartChar: tcaron
Encoding: 357 357 338
Width: 630
VWidth: 0
Flags: HW
HStem: -3 151<378.285 509.024> 364 152<100 196.274 362 459> 741 20G<195 362>
VStem: 196.274 165.726<168.881 364 516 761>
LayerCount: 2
Fore
SplineSet
514 6 m 1
 491 0 468 -3 443 -3 c 0
 325 -3 229 75 198 184 c 1
 197.064453125 364 l 1
 100 364 l 1
 100 516 l 1
 196.2734375 516 l 1
 195 761 l 1
 362 761 l 1
 362 516 l 1
 459 516 l 1
 459 364 l 1
 362 364 l 1
 362 185 l 1
 382 162 410 148 443 148 c 0
 470 148 495 158 514 174 c 1
 514 6 l 1
491 504 m 1
 491 761 l 1
 643 761 l 1
 598 504 l 1
 491 504 l 1
EndSplineSet
EndChar

StartChar: uni0237
Encoding: 567 567 343
Width: 419
VWidth: 0
Flags: HW
HStem: -204 151<105.445 235.159> 497 20G<252 419> 630 142<264 416>
VStem: 252 164<-32.1189 517> 264 152<630 772>
LayerCount: 2
Fore
SplineSet
100 -195 m 1
 100 -27 l 1
 119 -43 144 -53 171 -53 c 0
 204 -53 232 -39 252 -16 c 1
 252 517 l 1
 419 517 l 1
 416 -17 l 1
 385 -126 289 -204 171 -204 c 0
 146 -204 123 -201 100 -195 c 1
EndSplineSet
EndChar

StartChar: uni1E9E
Encoding: 7838 7838 359
Width: 771
VWidth: 0
Flags: HW
LayerCount: 2
Fore
SplineSet
288.615234375 47 m 1
 355.615234375 159 l 1
 361.615234375 153 368.615234375 150 377.615234375 147 c 0
 430.615234375 123 474.615234375 131 500.615234375 162 c 0
 529.615234375 196 478.615234375 202 424.615234375 211 c 1
 296.615234375 262 225.615234375 440 300.615234375 529 c 0
 361.99609375 603.046875 406.811523438 693.086914062 531.775390625 644.022460938 c 0
 532.515625 644.0078125 533.256835938 644 534 644 c 0
 594 644 641 596 641 656 c 0
 641 720.255859375 265.541992188 732.190429688 223 683 c 1
 223 2 l 1
 56 2 l 1
 59 684 l 1
 75 739.333007812 105.333007812 784.333007812 150 819 c 0
 289.345703125 927.1484375 792 856.984375 792 656 c 0
 792 283.000976562 590.864257812 632.412109375 475.615234375 495 c 0
 445.615234375 460 442.615234375 381 506.615234375 370 c 1
 625.615234375 320 728.615234375 164 652.615234375 75 c 0
 590.615234375 -1 437.615234375 -21 310.615234375 34 c 0
 303.615234375 36 296.615234375 41 288.615234375 47 c 1
EndSplineSet
EndChar

StartChar: uni0982
Encoding: 2434 2434 365
Width: 445
VWidth: 0
Flags: HW
HStem: 82 75<548.188 571.812> 264 75<548.188 571.812> 483 75<243.188 266.812> 665 75<243.188 266.812>
VStem: 125 76<568.334 654.111> 309 76<568.933 653.698> 430 76<167.334 253.111> 614 76<167.933 252.698>
LayerCount: 2
Fore
SplineSet
208 427 m 5
 441 69 l 5
 335 8 l 5
 102 366 l 5
 208 427 l 5
255 665 m 0
 251 665 247 664 243 663 c 1
 243 664 l 1
 218 659 201 637 201 611 c 0
 201 585 218 564 243 559 c 1
 243 560 l 1
 247 559 251 558 255 558 c 0
 259 558 263 559 267 560 c 1
 267 559 l 1
 292 564 309 585 309 611 c 0
 309 637 292 659 267 664 c 1
 267 663 l 1
 263 664 259 665 255 665 c 0
254 483 m 0
 253 483 253 483 252 483 c 0
 250 483 247 483 245 483 c 0
 178 488 125 543 125 611 c 0
 125 679 178 735 245 740 c 0
 247 740 250 740 252 740 c 0
 253 740 253 740 254 740 c 0
 255 740 255 740 256 740 c 0
 328 740 385 683 385 611 c 0
 385 540 328 483 256 483 c 0
 255 483 255 483 254 483 c 0
EndSplineSet
EndChar

StartChar: uni0983
Encoding: 2435 2435 366
Width: 445
VWidth: 0
Flags: HW
LayerCount: 2
Fore
SplineSet
255 665 m 4
 251 665 247 664 243 663 c 5
 243 664 l 5
 218 659 201 637 201 611 c 4
 201 585 218 564 243 559 c 5
 243 560 l 5
 247 559 251 558 255 558 c 4
 259 558 263 559 267 560 c 5
 267 559 l 5
 292 564 309 585 309 611 c 4
 309 637 292 659 267 664 c 5
 267 663 l 5
 263 664 259 665 255 665 c 4
254 483 m 4
 253 483 253 483 252 483 c 4
 250 483 247 483 245 483 c 4
 178 488 125 543 125 611 c 4
 125 679 178 735 245 740 c 4
 247 740 250 740 252 740 c 4
 253 740 253 740 254 740 c 4
 255 740 255 740 256 740 c 4
 328 740 385 683 385 611 c 4
 385 540 328 483 256 483 c 4
 255 483 255 483 254 483 c 4
255 265 m 0
 251 265 247 264 243 263 c 1
 243 264 l 1
 218 259 201 237 201 211 c 0
 201 185 218 164 243 159 c 1
 243 160 l 1
 247 159 251 158 255 158 c 0
 259 158 263 159 267 160 c 1
 267 159 l 1
 292 164 309 185 309 211 c 0
 309 237 292 259 267 264 c 1
 267 263 l 1
 263 264 259 265 255 265 c 0
254 83 m 0
 253 83 253 83 252 83 c 0
 250 83 247 83 245 83 c 0
 178 88 125 143 125 211 c 0
 125 279 178 335 245 340 c 4
 247 340 250 340 252 340 c 4
 253 340 253 340 254 340 c 4
 255 340 255 340 256 340 c 4
 328 340 385 283 385 211 c 0
 385 140 328 83 256 83 c 0
 255 83 255 83 254 83 c 0
EndSplineSet
EndChar

StartChar: uni098A
Encoding: 2442 2442 367
Width: 612
VWidth: 0
Flags: HW
HStem: 3.00195 151.016<288.473 418.671> 366 151.998<354 486> 671 132<45 486 593.755 661>
LayerCount: 2
Fore
SplineSet
661 803 m 1
 661 671 l 1
 486 671 l 1
 486 483.791992188 l 1
 564.611328125 439.66015625 617.310546875 356.931640625 615 260 c 0
 611.541015625 114.885742188 497.287109375 2.7998046875 353.90625 3.001953125 c 0
 184.0390625 3.240234375 100.165039062 131.7890625 101.000976562 261 c 1
 246.00390625 261 l 1
 246.000976562 260.666992188 246 260.333984375 246 260 c 0
 246 199.8828125 291.772460938 155.08203125 354.955078125 154.017578125 c 0
 417.911132812 155.126953125 464 199.63671875 464 260 c 0
 464 316.657226562 424.735351562 359.046875 368.932617188 366 c 1
 354 366 l 1
 354 517.622070312 l 2
 353.96875 517.870117188 353.9375 517.998046875 353.905273438 517.998046875 c 1
 353.936523438 517.998046875 353.96875 517.998046875 354 517.998046875 c 1
 354 671 l 1
 45 671 l 1
 45 803 l 1
 344.169921875 803 l 1
 338.783203125 829.090820312 328.6640625 856.108398438 310 875 c 0
 278.591796875 905.81640625 277.884765625 906.5234375 246.771484375 937.635742188 c 0
 200.102539062 984.3046875 141.413085938 965.212890625 94.7431640625 1011.88183594 c 0
 59.388671875 1047.23730469 53.7314453125 1132.09082031 53.7314453125 1132.09082031 c 1
 142.120117188 1220.47851562 l 1
 142.120117188 1220.47851562 149.8984375 1133.50488281 185.959960938 1097.44238281 c 0
 231.21484375 1052.1875 288.491210938 1074.10742188 333.74609375 1028.85253906 c 0
 367.686523438 994.912109375 370.515625 992.083007812 404.456054688 958.142578125 c 0
 454.484375 908.114257812 435.005859375 810.403320312 437.690429688 810.356445312 c 1
 430.333984375 803 l 1
 661 803 l 1
EndSplineSet
EndChar

StartChar: uni0990
Encoding: 2448 2448 368
Width: 956
VWidth: 0
Flags: HW
HStem: 610 151<360.445 490.159>
VStem: 52.5 151<182.508 312.889>
LayerCount: 2
Fore
SplineSet
355 752 m 1
 378 758 401 761 426 761 c 0
 544 761 640 683 671 574 c 1
 671.704101562 438.546875 l 1
 701.97265625 427.771484375 749.5234375 413.37109375 786 414 c 0
 808 414 820 432 825 453 c 0
 850.106445312 562.842773438 788.099609375 683.875976562 712.560546875 759.412109375 c 0
 665.891601562 806.081054688 607.202148438 786.989257812 560.532226562 833.658203125 c 0
 525.177734375 869.013671875 519.520507812 953.8671875 519.520507812 953.8671875 c 1
 607.909179688 1042.25488281 l 1
 607.909179688 1042.25488281 615.6875 955.28125 651.749023438 919.21875 c 0
 697.00390625 873.963867188 754.280273438 895.883789062 799.53515625 850.62890625 c 0
 833.475585938 816.688476562 836.3046875 813.859375 870.245117188 779.918945312 c 0
 920.1328125 730.03125 1033.61328125 407.951171875 897 342 c 0
 852 321 823 312 774 312 c 0
 742.086914062 312 700.744140625 322.477539062 672.262695312 331.048828125 c 1
 674 -3 l 5
 526.245117188 -4.087890625 387.399414062 3.732421875 239.5 2.5 c 5
 184.166992188 18.5 139.166992188 48.8330078125 104.5 93.5 c 0
 69.8330078125 138.166992188 52.5 189.5 52.5 247.5 c 0
 52.5 272.166992188 55.5 295.833007812 61.5 318.5 c 1
 229.5 318.5 l 1
 212.166992188 297.833007812 203.5 274.166992188 203.5 247.5 c 0
 203.5 214.833007812 215.833007812 187.833007812 240.5 166.5 c 1
 507 166.5 l 1
 507 573 l 1
 487 596 459 610 426 610 c 0
 399 610 374 600 355 584 c 1
 355 752 l 1
EndSplineSet
EndChar

StartChar: uni0994
Encoding: 2452 2452 369
Width: 616
VWidth: 0
Flags: HW
HStem: 3.00195 151.016<288.473 418.671> 366 151.998<354 486> 671 132<45 486 593.755 661>
LayerCount: 2
Fore
SplineSet
337 682 m 0
 330.208007812 681.634765625 281.076171875 677.51953125 275 676 c 1
 277.624023438 676.109375 254.358398438 760.163085938 257 760 c 0
 268.190429688 759.309570312 329.141601562 800.811523438 381 808 c 0
 524.5234375 827.895507812 622.978515625 717.309570312 620 565 c 0
 619.127929688 520.397460938 608.272460938 478.447265625 588.524414062 441.892578125 c 1
 617.556640625 431.0625 671.578125 413.302734375 712 414 c 0
 734 414 746 432 751 453 c 0
 776.106445312 562.842773438 714.099609375 683.875976562 638.560546875 759.412109375 c 0
 591.891601562 806.081054688 533.202148438 786.989257812 486.532226562 833.658203125 c 0
 451.177734375 869.013671875 445.520507812 953.8671875 445.520507812 953.8671875 c 1
 533.909179688 1042.25488281 l 1
 533.909179688 1042.25488281 541.6875 955.28125 577.749023438 919.21875 c 0
 623.00390625 873.963867188 680.280273438 895.883789062 725.53515625 850.62890625 c 0
 759.475585938 816.688476562 762.3046875 813.859375 796.245117188 779.918945312 c 0
 846.1328125 730.03125 959.61328125 407.951171875 823 342 c 0
 778 321 749 312 700 312 c 0
 672.655273438 312 638.38671875 319.692382812 611.21875 327.287109375 c 1
 616.947265625 305.852539062 620 283.297851562 620 260 c 0
 620 118 505 3 362 3 c 0
 360.956054688 3 359.92578125 3.001953125 358.90625 3.001953125 c 0
 358.603515625 3.001953125 358.301757812 3 358 3 c 0
 356.815429688 3 355.631835938 3.0078125 354.451171875 3.0234375 c 0
 349.662109375 3.0693359375 345.004882812 3.205078125 340.133789062 3.6025390625 c 0
 205.541992188 12.708984375 100 123.96484375 100 260 c 0
 100 315.204101562 117.138671875 366.235351562 146.41015625 408.088867188 c 1
 142.798828125 407.602539062 158 412 158 412 c 1
 336.961914062 362.549804688 251 404.8828125 251 260 c 0
 251 199.87890625 296.760742188 155.08203125 359.955078125 154.017578125 c 0
 422.901367188 155.126953125 469 199.640625 469 260 c 0
 469 312.4375 433.1015625 354.9453125 384 364.828125 c 1
 384 363.864257812 l 1
 359.955078125 459.017578125 l 1
 368.23046875 459.163085938 376.280273438 460.234375 384 462.131835938 c 1
 384 461.169921875 l 1
 433.1015625 471.0390625 469 513.436523438 469 565 c 0
 469 643.3203125 415.104492188 686.1953125 337 682 c 0
EndSplineSet
EndChar

StartChar: uni099E
Encoding: 2462 2462 370
Width: 821
VWidth: 0
Flags: HW
HStem: 610 151<360.445 490.159>
VStem: 52.5 151<182.508 312.889>
LayerCount: 2
Fore
SplineSet
61.5 318.5 m 1
 229.5 318.5 l 1
 212.166992188 297.833007812 203.5 274.166992188 203.5 247.5 c 0
 203.5 214.833007812 215.833007812 187.833007812 240.5 166.5 c 1
 507 166.5 l 1
 507 573 l 1
 487 596 459 610 426 610 c 0
 399 610 374 600 355 584 c 1
 355 752 l 1
 378 758 401 761 426 761 c 0
 537.87890625 761 629.981445312 690.881835938 665.657226562 590.705078125 c 1
 678 596.860351562 694.509765625 604.671875 709.5 606.75 c 0
 781.26171875 616.698242188 830.489257812 561.404296875 829 485.25 c 0
 828.443359375 456.7890625 819.756835938 430.486328125 804.07421875 409.196289062 c 1
 819.756835938 387.833984375 829 361.416992188 829 332.75 c 0
 829 261.75 771.5 204.25 700 204.25 c 0
 699.478515625 204.25 698.962890625 204.250976562 698.453125 204.250976562 c 0
 698.301757812 204.250976562 698.151367188 204.25 698 204.25 c 0
 697.407226562 204.25 696.81640625 204.25390625 696.225585938 204.26171875 c 0
 693.831054688 204.28515625 691.502929688 204.352539062 689.067382812 204.55078125 c 0
 683.578125 204.921875 678.185546875 205.633789062 672.91015625 206.6640625 c 1
 674 -3 l 1
 507 -3 l 1
 507 0.3017578125 l 1
 239.5 2.5 l 1
 184.166992188 18.5 139.166992188 48.8330078125 104.5 93.5 c 0
 69.8330078125 138.166992188 52.5 189.5 52.5 247.5 c 0
 52.5 272.166992188 55.5 295.833007812 61.5 318.5 c 1
672.497070312 286.150390625 m 1
 680.201171875 282.196289062 689.168945312 279.923828125 698.977539062 279.758789062 c 0
 730.450195312 280.313476562 753.5 302.5703125 753.5 332.75 c 0
 753.5 358.96875 735.55078125 380.22265625 711 385.1640625 c 1
 711 384.682617188 l 1
 698.977539062 432.258789062 l 1
 703.115234375 432.33203125 707.140625 432.8671875 711 433.81640625 c 1
 711 433.334960938 l 1
 735.55078125 438.26953125 753.5 459.46875 753.5 485.25 c 0
 753.5 524.41015625 726.551757812 545.84765625 687.5 543.75 c 0
 685.744140625 543.655273438 678.334960938 543.060546875 671.1640625 542.40234375 c 1
 672.497070312 286.150390625 l 1
EndSplineSet
EndChar

StartChar: uni099D
Encoding: 2461 2461 371
Width: 944
VWidth: 0
Flags: HW
HStem: 671 132<50 574 720 773> 671 106<574 720>
VStem: 574 146<1 73.5 225.5 473.5 625.5 777> 574 57.5<73.5 225.5 473.5 473.5>
LayerCount: 2
Fore
SplineSet
720 671 m 1
 720 284.02734375 l 1
 723 287 l 1
 799 211 l 1
 799 671 l 1
 720 671 l 1
994 803 m 1
 994 671 l 1
 951 671 l 1
 951 0 l 1
 799.018554688 -0 l 1
 797 -2 l 1
 720 75 l 1
 720 1 l 1
 575.5 1 l 1
 575.5 0.5 l 1
 120.5 273.5 l 1
 120.5 425.5 l 1
 574 602.995117188 l 1
 574 671 l 1
 50 671 l 1
 50 803 l 1
 994 803 l 1
574 153.450195312 m 1
 574 454.072265625 l 1
 264.5 349.5 l 1
 574 153.450195312 l 1
EndSplineSet
EndChar

StartChar: uni099C
Encoding: 2460 2460 372
Width: 616
VWidth: 0
Flags: HW
HStem: 3.00156 151.016<293.473 423.671> 366 151.998<359 491> 671 132<50 359 491 666> 671 80<359 491>
VStem: 359 132<517.998 751>
LayerCount: 2
Fore
SplineSet
666 803 m 1
 666 671 l 1
 491 671 l 1
 491 483.791992188 l 1
 569.610351562 439.66015625 622.310546875 356.931640625 620 260 c 0
 616.541015625 114.885742188 502.287109375 2.7998046875 358.90625 3.001953125 c 0
 189.0390625 3.240234375 105.165039062 131.7890625 106.000976562 261 c 1
 251.00390625 261 l 1
 251.000976562 260.666992188 251 260.333984375 251 260 c 0
 251 199.8828125 296.772460938 155.08203125 359.955078125 154.017578125 c 0
 422.911132812 155.126953125 469 199.63671875 469 260 c 0
 469 316.657226562 429.734375 359.046875 373.932617188 366 c 1
 359 366 l 1
 359 517.624023438 l 2
 358.96875 517.87109375 358.9375 517.998046875 358.905273438 517.998046875 c 1
 358.9375 517.998046875 358.96875 517.998046875 359 517.998046875 c 1
 359 671 l 1
 50 671 l 1
 50 803 l 1
 666 803 l 1
EndSplineSet
EndChar

StartChar: uni09A3
Encoding: 2467 2467 373
Width: 613
VWidth: 0
Flags: HW
LayerCount: 2
Fore
SplineSet
461.5 850 m 1
 613.5 850 l 1
 613.5 803 l 1
 661.5 803 l 1
 661.5 671 l 1
 613.5 671 l 1
 613.5 522.630859375 l 2
 614.491210938 513.39453125 615 504.008789062 615 494.5 c 0
 615 485.7265625 614.560546875 477.053710938 613.704101562 468.5 c 1
 613.5 468.5 l 1
 613.5 -2 l 1
 461.5 -2 l 1
 461.5 468.5 l 1
 460.864257812 468.5 l 1
 461.087890625 469.407226562 461.299804688 470.318359375 461.5 471.235351562 c 2
 461.5 518.0703125 l 1
 451.03515625 566.364257812 408.876953125 601.5 357 601.5 c 0
 298 601.5 251 554.5 251 494.5 c 0
 251 485.536132812 252.084960938 476.826171875 254.131835938 468.5 c 1
 101.295898438 468.5 l 1
 100.438476562 477.053710938 100 485.7265625 100 494.5 c 0
 100 637.5 215 752.5 357 752.5 c 0
 394.245117188 752.5 429.590820312 744.698242188 461.5 730.633789062 c 1
 461.5 850 l 1
EndSplineSet
EndChar

StartChar: uni0964
Encoding: 2404 2404 374
Width: 252
VWidth: 0
Flags: HW
HStem: -2 21G<100 252> 492 20G<100 252> 630 142<100 252>
VStem: 100 152<-2 512 630 772>
LayerCount: 2
Fore
SplineSet
252 370 m 1
 252 -30 l 1
 100 -30 l 1
 100 370 l 1
 252 370 l 1
EndSplineSet
EndChar

StartChar: uni0981
Encoding: 2433 2433 376
Width: 0
Flags: HW
LayerCount: 2
Fore
SplineSet
-11 658 m 1
 -11 772 l 1
 111 772 l 1
 111 658 l 1
 -11 658 l 1
243 619 m 1
 243 613 243 606 243 600 c 0
 243 492 157 406 51 406 c 0
 -57 406 -143 492 -143 600 c 0
 -143 606 -143 613 -143 619 c 1
 -27 619 l 1
 -29 613 -30 606 -30 600 c 0
 -30 555 6 519 51 519 c 0
 96 519 130 555 130 600 c 0
 130 606 129 613 127 619 c 1
 243 619 l 1
EndSplineSet
EndChar

StartChar: uni09AD
Encoding: 2477 2477 377
Width: 726
VWidth: 75
Flags: HW
HStem: 4.7002 133.6<355.264 518.805> 513.479 120.821<445.987 517.023> 671 132<50 776>
VStem: 142.4 111.399<240.829 328.876> 620.2 133.399<240.829 414.049>
LayerCount: 2
Fore
SplineSet
776 803 m 1
 776 671 l 1
 50 671 l 1
 50 803 l 1
 776 803 l 1
445.098632812 617 m 1
 445.987304688 634.29296875 l 2
 446.657226562 634.297851562 447.328125 634.299804688 448 634.299804688 c 0
 483.107421875 634.299804688 516.830078125 628.208984375 548.2265625 617 c 1
 559 617 l 1
 559 612.916992188 l 1
 672.907226562 567.208984375 753.599609375 453.228515625 753.599609375 319.900390625 c 0
 753.599609375 145.5 616.799804688 4.7001953125 448 4.7001953125 c 0
 279.200195312 4.7001953125 142.400390625 145.5 142.400390625 319.900390625 c 0
 142.400390625 320.77734375 253.86328125 330.658203125 253.870117188 331.533203125 c 1
 253.823242188 329.794921875 253.799804688 328.049804688 253.799804688 326.299804688 c 0
 253.799804688 222.299804688 335.400390625 138.299804688 437 138.299804688 c 0
 538.599609375 138.299804688 620.200195312 222.299804688 620.200195312 326.299804688 c 0
 620.200195312 396.395507812 582.5546875 457.6328125 526.567382812 489.708007812 c 1
 492.103515625 437.833007812 433.486328125 404 367 404 c 0
 259 404 173 490 173 598 c 0
 173 604 173 611 173 617 c 1
 289 617 l 1
 287 611 286 604 286 598 c 0
 286 553 322 517 367 517 c 0
 404.05859375 517 433.65625 541.4140625 442.94921875 575.1640625 c 1
 444.754882812 610.306640625 l 2
 444.296875 612.604492188 443.711914062 614.865234375 443 617 c 1
 445.098632812 617 l 1
EndSplineSet
EndChar

StartChar: uni09A7
Encoding: 2471 2471 378
Width: 752
Flags: HW
LayerCount: 2
Fore
SplineSet
752.5 803 m 1
 752.5 671 l 1
 699.5 671 l 1
 699.5 1 l 1
 553.5 1 l 1
 553.5 2.798828125 l 1
 100 273.5 l 1
 100 425.5 l 1
 238.990234375 479.899414062 l 1
 209.646484375 513.573242188 192 557.484375 192 605.5 c 0
 192 713.5 278 799.5 386 799.5 c 0
 392 799.5 399 799.5 405 799.5 c 1
 405 683.5 l 1
 399 685.5 392 686.5 386 686.5 c 0
 341 686.5 305 650.5 305 605.5 c 0
 305 567.858398438 330.189453125 537.913085938 364.765625 529.126953125 c 1
 553.5 602.995117188 l 1
 553.5 777 l 1
 554.5 777 l 1
 554.5 803 l 1
 752.5 803 l 1
553.5 154.814453125 m 1
 553.5 454.072265625 l 1
 244 349.5 l 1
 553.5 154.814453125 l 1
EndSplineSet
EndChar

StartChar: uni09A8
Encoding: 2472 2472 379
Width: 661
VWidth: 0
Flags: HW
LayerCount: 2
Fore
SplineSet
711 803 m 1
 711 671 l 1
 666 671 l 1
 666 122.997070312 l 2
 669.60546875 105.749023438 671.5 87.8544921875 671.5 69.5 c 0
 671.5 60.7265625 671.060546875 52.0537109375 670.204101562 43.5 c 1
 666 43.5 l 1
 666 -2 l 1
 514 -2 l 1
 514 106.954101562 l 1
 499.125 147.953125 460.260742188 176.5 413.5 176.5 c 0
 354.5 176.5 307.5 129.5 307.5 69.5 c 0
 307.5 60.5361328125 308.584960938 51.826171875 310.631835938 43.5 c 1
 157.795898438 43.5 l 1
 156.938476562 52.0537109375 156.5 60.7265625 156.5 69.5 c 0
 156.5 212.5 271.5 327.5 413.5 327.5 c 0
 449.1953125 327.5 483.146484375 320.333984375 514 307.356445312 c 1
 514 671 l 1
 50 671 l 1
 50 803 l 1
 514 803 l 1
 666 803 l 1
 711 803 l 1
EndSplineSet
EndChar

StartChar: uni09B6
Encoding: 2486 2486 380
Width: 642
Flags: HW
LayerCount: 2
Fore
SplineSet
50 705.5 m 1
 56 705.5 63 705.5 69 705.5 c 0
 168.685546875 705.5 249.627929688 632.232421875 261.5 537.596679688 c 1
 273.372070312 632.232421875 354.314453125 705.5 454 705.5 c 0
 460 705.5 467 705.5 473 705.5 c 1
 473 700.87109375 l 1
 492.5 684.265625 l 1
 492.5 847 l 1
 644.5 847 l 1
 644.5 803 l 1
 692.5 803 l 1
 692.5 671 l 1
 644.5 671 l 1
 644.5 -2 l 1
 492.5 -2 l 1
 492.5 574.649414062 l 1
 473 594.294921875 l 1
 473 589.5 l 1
 467 591.5 460 592.5 454 592.5 c 0
 409 592.5 373 558.5 373 513.5 c 0
 373 468.5 409 432.5 454 432.5 c 0
 460 432.5 467 433.5 473 435.5 c 1
 473 319.5 l 1
 467 319.5 460 319.5 454 319.5 c 0
 354.314453125 319.5 273.372070312 392.767578125 261.5 488.9765625 c 1
 249.627929688 392.767578125 168.685546875 319.5 69 319.5 c 0
 63 319.5 56 319.5 50 319.5 c 1
 50 435.5 l 1
 56 433.5 63 432.5 69 432.5 c 0
 114 432.5 150 468.5 150 513.5 c 0
 150 558.5 114 592.5 69 592.5 c 0
 63 592.5 56 591.5 50 589.5 c 1
 50 705.5 l 1
EndSplineSet
EndChar

StartChar: uni0988
Encoding: 2440 2440 381
Width: 1077
VWidth: 0
Flags: HW
HStem: -1 21G<457 643> 671 132<50 357.581 593.755 739>
LayerCount: 2
Fore
SplineSet
286.141601562 472.20703125 m 1
 286.141601562 472.20703125 178.799804688 578.45703125 178.026367188 577.68359375 c 1
 280.65625 680.313476562 442.620117188 682.33203125 545.080078125 579.872070312 c 0
 576.888671875 548.063476562 598.51953125 510.3671875 610.09375 470.42578125 c 1
 688.814453125 534.576171875 l 1
 698.905273438 550.615234375 710.97265625 565.818359375 725.026367188 579.872070312 c 0
 752.493164062 607.338867188 784.235351562 627.296875 817.96484375 639.822265625 c 1
 828 648 l 1
 826.53515625 642.831054688 l 1
 916.62890625 672.658203125 1019.28125 650.482421875 1092.08007812 577.68359375 c 1
 1091.30664062 578.45703125 983.96484375 472.20703125 983.96484375 472.20703125 c 1
 938.588867188 515.487304688 874.943359375 516.244140625 831.799804688 473.099609375 c 0
 789.116210938 430.416015625 790.233398438 366.353515625 833.96484375 321.051757812 c 0
 879.39453125 277.127929688 943.439453125 276.440429688 985.948242188 318.950195312 c 0
 986.184570312 319.186523438 986.419921875 319.422851562 986.653320312 319.66015625 c 1
 1089.18554688 217.127929688 l 1
 998.411132812 125.170898438 847.618164062 92.9951171875 727.922851562 213.525390625 c 0
 691.263671875 250.440429688 667.456054688 294.904296875 656.677734375 341.443359375 c 1
 584 265 l 1
 582.737304688 265.57421875 l 1
 571.665039062 247.095703125 558.141601562 229.594726562 542.18359375 213.525390625 c 0
 422.48828125 92.9951171875 271.6953125 125.170898438 180.920898438 217.127929688 c 1
 283.453125 319.66015625 l 1
 283.686523438 319.422851562 283.921875 319.186523438 284.158203125 318.950195312 c 0
 326.666992188 276.440429688 390.711914062 277.127929688 436.141601562 321.051757812 c 0
 438.659179688 323.66015625 441.036132812 326.331054688 443.271484375 329.055664062 c 1
 439 331 l 1
 452.678710938 342.146484375 l 1
 479.252929688 384.749023438 474.708007812 436.698242188 438.306640625 473.099609375 c 0
 395.163085938 516.244140625 331.517578125 515.487304688 286.141601562 472.20703125 c 1
1127 803 m 1
 1127 671 l 1
 50 671 l 1
 50 803 l 1
 588.489257812 803 l 1
 582.990234375 828.393554688 572.922851562 854.420898438 554.7890625 872.776367188 c 0
 523.380859375 903.592773438 522.673828125 904.299804688 491.560546875 935.412109375 c 0
 444.891601562 982.081054688 386.202148438 962.989257812 339.532226562 1009.65820312 c 0
 304.177734375 1045.01367188 298.520507812 1129.8671875 298.520507812 1129.8671875 c 1
 386.909179688 1218.25488281 l 1
 386.909179688 1218.25488281 394.6875 1131.28125 430.749023438 1095.21875 c 0
 476.00390625 1049.96386719 533.280273438 1071.88378906 578.53515625 1026.62890625 c 0
 612.475585938 992.688476562 615.3046875 989.859375 649.245117188 955.918945312 c 0
 699.2734375 905.890625 679.794921875 808.1796875 682.479492188 808.1328125 c 1
 677.346679688 803 l 1
 1127 803 l 1
EndSplineSet
EndChar

StartChar: uni0996
Encoding: 2454 2454 382
Width: 752
Flags: HW
LayerCount: 2
Fore
SplineSet
774.5 803 m 1
 774.5 671 l 1
 699.5 671 l 1
 699.5 1 l 1
 553.5 1 l 1
 553.5 777 l 1
 576.5 777 l 1
 576.5 803 l 1
 774.5 803 l 1
369.5 714 m 1
 501.5 714 l 1
 385.5 444 l 1
 384.689453125 445.12109375 l 1
 244 273.5 l 1
 553 159.5 l 1
 553 2.5 l 1
 100 179.5 l 1
 100 331.5 l 1
 346.440429688 561.51171875 l 1
 356.703125 629.375976562 l 1
 330.443359375 553.631835938 259.208007812 500 175.5 500 c 0
 67.5 500 -18.5 586 -18.5 694 c 0
 -18.5 700 -18.5 707 -18.5 713 c 1
 97.5 713 l 1
 95.5 707 94.5 700 94.5 694 c 0
 94.5 649 130.5 613 175.5 613 c 0
 220.5 613 254.5 649 254.5 694 c 0
 254.5 700 253.5 707 251.5 713 c 1
 367.5 713 l 1
 367.5 700.774414062 l 1
 369.5 714 l 1
EndSplineSet
EndChar

StartChar: uni098B
Encoding: 2443 2443 383
Width: 1344
Flags: HW
LayerCount: 2
Fore
SplineSet
972 777 m 1
 1118 777 l 1
 1118 285.5 l 1
 1192.5 211 l 1
 1192.5 776 l 1
 1194.5 776 l 1
 1194.5 795 l 1
 1394.5 795 l 1
 1394.5 663 l 1
 1344.5 663 l 1
 1344.5 0 l 1
 1192.51855469 -0 l 1
 1190.5 -2 l 1
 1118 70.5 l 1
 1118 1 l 1
 972 1 l 1
 971 1 l 1
 971 1.3935546875 l 1
 518.5 179.5 l 1
 518.5 331.5 l 1
 764.940429688 561.51171875 l 1
 775.203125 629.375976562 l 1
 748.943359375 553.631835938 677.708007812 500 594 500 c 0
 532.708984375 500 478.502929688 527.698242188 443.081054688 571.395507812 c 1
 407.87109375 527.698242188 354.15625 500 294 500 c 0
 186 500 100 586 100 694 c 0
 100 700 100 707 100 713 c 1
 216 713 l 1
 214 707 213 700 213 694 c 0
 213 649 249 613 294 613 c 0
 339 613 373 649 373 694 c 0
 373 700 372 707 370 713 c 1
 400 713 l 1
 486 713 l 1
 516 713 l 1
 514 707 513 700 513 694 c 0
 513 649 549 613 594 613 c 0
 639 613 673 649 673 694 c 0
 673 700 672 707 670 713 c 1
 786 713 l 1
 786 700.774414062 l 1
 788 714 l 1
 972 714 l 1
 972 777 l 1
971 159.684570312 m 1
 971 709.262695312 l 1
 804 444 l 1
 803.189453125 445.12109375 l 1
 662.5 273.5 l 1
 971 159.684570312 l 1
EndSplineSet
EndChar

StartChar: uni09B2
Encoding: 2482 2482 384
Width: 943
VWidth: 0
Flags: HW
LayerCount: 2
Fore
SplineSet
993 803 m 1
 993 671 l 1
 945 671 l 1
 945 46.6669921875 l 2
 945.2265625 45.609375 945.309570312 44.5537109375 945.204101562 43.5 c 2
 945 43.5 l 1
 945 -2 l 1
 793 -2 l 1
 793 43.5 l 1
 792.364257812 43.5 l 1
 792.587890625 44.4072265625 792.799804688 45.318359375 793 46.2353515625 c 2
 793 93.0703125 l 1
 782.53515625 141.364257812 740.376953125 176.5 688.5 176.5 c 0
 637.051757812 176.5 594.728515625 140.76171875 584.736328125 91.8291015625 c 0
 585.572265625 83.3369140625 586 74.720703125 586 66 c 0
 586 59.0615234375 585.725585938 52.1865234375 585.186523438 45.3837890625 c 0
 585.329101562 44.75390625 585.477539062 44.1259765625 585.631835938 43.5 c 1
 585.030273438 43.5 l 2
 584.9296875 42.3310546875 584.8203125 41.1640625 584.704101562 40 c 2
 431.864257812 40 l 1
 432.184570312 41.2998046875 432.48046875 42.6083984375 432.75390625 43.9267578125 c 0
 431.923828125 52.341796875 431.5 60.8720703125 431.5 69.5 c 0
 431.5 76.625 431.755859375 83.6796875 432.258789062 90.654296875 c 0
 421.40234375 138.389648438 379.487304688 173 328 173 c 0
 269 173 222 126 222 66 c 0
 222 57.0361328125 223.084960938 48.326171875 225.131835938 40 c 1
 72.2958984375 40 l 1
 71.4384765625 48.5537109375 71 57.2265625 71 66 c 0
 71 209 186 324 328 324 c 0
 396.041015625 324 457.7421875 297.96484375 503.733398438 255.265625 c 1
 547.030273438 300.038085938 607.108398438 327.5 676.5 327.5 c 0
 718.48046875 327.5 758.046875 317.588867188 793 299.96875 c 1
 793 671 l 1
 50 671 l 1
 50 803 l 1
 793 803 l 1
 945 803 l 1
 993 803 l 1
EndSplineSet
EndChar

StartChar: uni09AF
Encoding: 2479 2479 385
Width: 841
VWidth: 0
Flags: HW
HStem: 10 152<285.1 630.7> 610 152<84.3 428.3>
LayerCount: 2
Fore
SplineSet
126.755859375 180.198242188 m 1
 158.228515625 327.01953125 l 1
 429.267578125 487.461914062 l 1
 168.098632812 671 l 1
 50 671 l 1
 50 803 l 1
 694 803 l 1
 846 803 l 1
 891 803 l 1
 891 671 l 1
 846 671 l 1
 846 -2 l 1
 694 -2 l 1
 694 0.1826171875 l 1
 126.755859375 180.198242188 l 1
694 156.658203125 m 1
 694 671 l 1
 407.166015625 671 l 1
 590.244140625 568.801757812 l 1
 558.771484375 421.98046875 l 1
 352.186523438 262.055664062 l 1
 694 156.658203125 l 1
EndSplineSet
EndChar

StartChar: uni09AB
Encoding: 2475 2475 386
Width: 1167
VWidth: 0
Flags: HW
HStem: 10 152<285.1 630.7> 610 152<84.3 428.3>
LayerCount: 2
Fore
SplineSet
126.755859375 180.198242188 m 1
 158.228515625 327.01953125 l 1
 429.267578125 487.461914062 l 1
 168.098632812 671 l 1
 50 671 l 1
 50 803 l 1
 1217 803 l 1
 1217 671 l 1
 407.166015625 671 l 1
 590.244140625 568.801757812 l 1
 558.771484375 421.98046875 l 1
 352.186523438 262.055664062 l 1
 694 156.658203125 l 1
 694 323 l 1
 694.51171875 323 l 1
 695.842773438 464.837890625 810.328125 578.5 951.5 578.5 c 0
 1094.5 578.5 1209.5 463.5 1209.5 320.5 c 0
 1209.5 311.7265625 1209.06054688 303.053710938 1208.20410156 294.5 c 1
 1055.36425781 294.5 l 1
 1057.41503906 302.826171875 1058.5 311.536132812 1058.5 320.5 c 0
 1058.5 380.5 1011.5 427.5 951.5 427.5 c 0
 893.322265625 427.5 846.811523438 381.80078125 845.52734375 323 c 1
 846 323 l 1
 846 310.0078125 l 2
 846.506835938 304.716796875 847.393554688 299.538085938 848.631835938 294.5 c 1
 846 294.5 l 1
 846 -2 l 1
 694 -2 l 1
 694 0.1826171875 l 1
 126.755859375 180.198242188 l 1
EndSplineSet
EndChar

StartChar: uni0997
Encoding: 2455 2455 387
Width: 690
VWidth: 0
Flags: HW
LayerCount: 2
Fore
SplineSet
118.615234375 383 m 1
 185.615234375 495 l 1
 191.615234375 489 198.615234375 486 207.615234375 483 c 0
 260.615234375 459 304.615234375 467 330.615234375 498 c 0
 359.615234375 532 308.615234375 538 254.615234375 547 c 1
 126.615234375 598 55.615234375 681 130.615234375 770 c 0
 193.615234375 846 346.615234375 863 473.615234375 809 c 0
 477.018554688 807.541992188 506.892578125 793.083984375 537.5 777.921875 c 1
 537.5 850 l 1
 689.5 850 l 1
 689.5 803 l 1
 737.5 803 l 1
 737.5 671 l 1
 689.5 671 l 1
 689.5 -2 l 1
 537.5 -2 l 1
 537.5 613.240234375 l 1
 520.359375 622.84765625 415.095703125 677.172851562 406.615234375 680 c 0
 353.615234375 702 331.615234375 695 305.615234375 664 c 0
 275.615234375 629 272.615234375 622 336.615234375 611 c 1
 455.615234375 561 558.615234375 500 482.615234375 411 c 0
 420.615234375 335 267.615234375 315 140.615234375 370 c 0
 133.615234375 372 126.615234375 377 118.615234375 383 c 1
EndSplineSet
EndChar

StartChar: uni098C
Encoding: 2444 2444 388
Width: 779
VWidth: 0
Flags: HW
HStem: 616 157<101.091 267.973> -14 161<101.091 267.973>
VStem: 402 153<282.8 477.701>
LayerCount: 2
Fore
SplineSet
148.155273438 103.778320312 m 1
 147.297851562 112.33203125 146.859375 121.004882812 146.859375 129.778320312 c 0
 146.859375 272.778320312 261.859375 387.779296875 403.859375 387.779296875 c 0
 498.783203125 387.779296875 581.369140625 337.10546875 626.170898438 261.20703125 c 1
 644.932617188 337.665039062 623.635742188 422.482421875 563.10546875 483.012695312 c 0
 471.181640625 574.936523438 324.810546875 577.05859375 235.0078125 487.255859375 c 0
 216.9375 469.185546875 202.58984375 448.826171875 191.946289062 427.079101562 c 1
 77.443359375 541.583007812 l 1
 90.8232421875 561.619140625 106.337890625 580.618164062 123.9921875 598.271484375 c 0
 273.19140625 747.470703125 518.557617188 743.935546875 672.70703125 589.786132812 c 0
 826.1484375 436.34375 829.684570312 190.977539062 680.485351562 41.7783203125 c 0
 662.831054688 24.125 643.83203125 8.6103515625 623.797851562 -4.771484375 c 1
 515.248046875 103.778320312 l 1
 507.724609375 103.778320312 l 1
 508.227539062 105.819335938 508.671875 107.883789062 509.056640625 109.969726562 c 2
 506.470703125 112.555664062 l 1
 507.567382812 113.092773438 508.66015625 113.639648438 509.75 114.1953125 c 0
 510.481445312 119.283203125 510.860351562 124.486328125 510.859375 129.778320312 c 0
 510.860351562 189.778320312 463.859375 236.779296875 403.859375 236.778320312 c 0
 344.859375 236.779296875 297.859375 189.778320312 297.860351562 129.778320312 c 0
 297.859375 120.814453125 298.9453125 112.104492188 300.991210938 103.778320312 c 1
 148.155273438 103.778320312 l 1
EndSplineSet
EndChar

StartChar: uni09EF
Encoding: 2543 2543 389
Width: 779
VWidth: 0
Flags: HW
HStem: 616 157<101.091 267.973> -14 161<101.091 267.973>
VStem: 402 153<282.8 477.701>
LayerCount: 2
Fore
SplineSet
148.155273438 103.778320312 m 1
 147.297851562 112.33203125 146.859375 121.004882812 146.859375 129.778320312 c 0
 146.859375 272.778320312 261.859375 387.779296875 403.859375 387.779296875 c 0
 498.783203125 387.779296875 581.369140625 337.10546875 626.170898438 261.20703125 c 1
 644.932617188 337.665039062 623.635742188 422.482421875 563.10546875 483.012695312 c 0
 471.181640625 574.936523438 324.810546875 577.05859375 235.0078125 487.255859375 c 0
 216.9375 469.185546875 202.58984375 448.826171875 191.946289062 427.079101562 c 1
 77.443359375 541.583007812 l 1
 90.8232421875 561.619140625 106.337890625 580.618164062 123.9921875 598.271484375 c 0
 273.19140625 747.470703125 518.557617188 743.935546875 672.70703125 589.786132812 c 0
 826.1484375 436.34375 829.684570312 190.977539062 680.485351562 41.7783203125 c 0
 662.831054688 24.125 643.83203125 8.6103515625 623.797851562 -4.771484375 c 1
 515.248046875 103.778320312 l 1
 507.724609375 103.778320312 l 1
 508.227539062 105.819335938 508.671875 107.883789062 509.056640625 109.969726562 c 2
 506.470703125 112.555664062 l 1
 507.567382812 113.092773438 508.66015625 113.639648438 509.75 114.1953125 c 0
 510.481445312 119.283203125 510.860351562 124.486328125 510.859375 129.778320312 c 0
 510.860351562 189.778320312 463.859375 236.779296875 403.859375 236.778320312 c 0
 344.859375 236.779296875 297.859375 189.778320312 297.860351562 129.778320312 c 0
 297.859375 120.814453125 298.9453125 112.104492188 300.991210938 103.778320312 c 1
 148.155273438 103.778320312 l 1
EndSplineSet
EndChar

StartChar: uni09EC
Encoding: 2540 2540 390
Width: 616
VWidth: 0
Flags: HW
HStem: 3.00156 151.016<293.473 423.671> 366 151.998<359 491> 671 132<50 359 491 666> 671 80<359 491>
VStem: 359 132<517.998 751>
LayerCount: 2
Fore
SplineSet
359 751 m 1
 491 751 l 1
 491 483.791992188 l 1
 569.610351562 439.66015625 622.310546875 356.931640625 620 260 c 0
 616.541015625 114.885742188 502.287109375 2.7998046875 358.90625 3.001953125 c 0
 189.0390625 3.240234375 105.165039062 131.7890625 106.000976562 261 c 1
 251.00390625 261 l 1
 251.000976562 260.666992188 251 260.333984375 251 260 c 0
 251 199.8828125 296.772460938 155.08203125 359.955078125 154.017578125 c 0
 422.911132812 155.126953125 469 199.63671875 469 260 c 0
 469 316.657226562 429.734375 359.046875 373.932617188 366 c 1
 359 366 l 1
 359 517.624023438 l 2
 358.96875 517.87109375 358.9375 517.998046875 358.905273438 517.998046875 c 1
 358.9375 517.998046875 358.96875 517.998046875 359 517.998046875 c 1
 359 751 l 1
EndSplineSet
EndChar

StartChar: uni09ED
Encoding: 2541 2541 391
Width: 534
VWidth: 0
Flags: HW
HStem: 265 151<293.471 382> 629 150<293.591 381.625>
VStem: 382 152<3 266 416.026 628.974> 100 151<458.471 586.934>
LayerCount: 2
Fore
SplineSet
382 626 m 1
 374 628 366 629 358 629 c 0
 298 629 251 582 251 523 c 0
 251 463 298 416 358 416 c 0
 366 416 374 417 382 419 c 1
 382 626 l 1
382 3 m 1
 382 266 l 1
 374 265 366 265 358 265 c 0
 215 265 100 380 100 523 c 0
 100 665 215 780 358 780 c 0
 366 780 453 787 495 752 c 0
 533 720 534 631 534 631 c 1
 534 3 l 1
 382 3 l 1
EndSplineSet
EndChar

StartChar: uni09EE
Encoding: 2542 2542 392
Width: 692
VWidth: 0
Flags: HW
HStem: 367.571 151<252 340.529> 4.57143 150<252.375 340.409>
VStem: 100 152<517.571 780.571 154.597 367.545> 383 151<196.637 325.1>
LayerCount: 2
Fore
SplineSet
252 780.571289062 m 1
 252 517.571289062 l 1
 260 518.571289062 268 518.571289062 276 518.571289062 c 0
 285.734375 518.571289062 295.338867188 518.038085938 304.787109375 517 c 2
 689 517 l 1
 689 365 l 1
 512.165039062 365 l 1
 526.209960938 333.109375 534 297.7890625 534 260.571289062 c 0
 534 118.571289062 419 3.5712890625 276 3.5712890625 c 0
 268 3.5712890625 181 -3.4287109375 139 31.5712890625 c 0
 101 63.5712890625 100 152.571289062 100 152.571289062 c 1
 100 780.571289062 l 1
 252 780.571289062 l 1
252 157.571289062 m 1
 260 155.571289062 268 154.571289062 276 154.571289062 c 0
 336 154.571289062 383 201.571289062 383 260.571289062 c 0
 383 312.331054688 348.0234375 354.416992188 299.896484375 365 c 1
 253.78125 365 l 2
 253.1875 364.862304688 252.59375 364.719726562 252 364.571289062 c 2
 252 157.571289062 l 1
EndSplineSet
EndChar

StartChar: uni09EB
Encoding: 2539 2539 393
Width: 779
VWidth: 0
Flags: HW
HStem: 616 157<599.596 766.478> -14 161<599.596 766.478>
VStem: 312.569 153<282.8 477.701>
LayerCount: 2
Fore
SplineSet
405.770507812 384.469726562 m 2
 405.11328125 385.197265625 l 1
 403.998046875 382.770507812 403.796875 381.798828125 405.770507812 384.469726562 c 2
786.516601562 479.231445312 m 1
 710.09765625 346.872070312 l 1
 703.911132812 352.805664062 696.911132812 358.102539062 689.147460938 362.583007812 c 0
 637.185546875 392.583984375 572.982421875 375.381835938 543.482421875 324.28515625 c 0
 513.481445312 272.32421875 530.685546875 208.119140625 582.647460938 178.12109375 c 0
 587.229492188 175.474609375 591.924804688 173.200195312 596.697265625 171.290039062 c 0
 597.723632812 171.956054688 598.743164062 172.627929688 599.756835938 173.309570312 c 1
 600.702148438 169.77734375 l 2
 602.702148438 169.067382812 604.712890625 168.418945312 606.731445312 167.834960938 c 1
 602.96875 161.319335938 l 1
 642.702148438 13.037109375 l 1
 621.09375 2.37890625 598.16015625 -6.3173828125 574.044921875 -12.78125 c 0
 370.234375 -67.3896484375 159.508789062 58.3544921875 103.344726562 267.9609375 c 0
 46.9228515625 478.53125 166.543945312 692.79296875 370.353515625 747.403320312 c 0
 394.46875 753.866210938 418.680664062 757.802734375 442.721679688 759.372070312 c 1
 484.633789062 602.95703125 l 1
 468.18359375 604.084960938 451.4296875 603.403320312 434.618164062 600.763671875 c 1
 540.943359375 478.297851562 l 1
 605.856445312 496.979492188 701.125976562 530.02734375 764.646484375 493.353515625 c 0
 772.24609375 488.966796875 779.537109375 484.25 786.516601562 479.231445312 c 1
404.965820312 385.359375 m 1
 289.19140625 513.487304688 l 1
 247.331054688 457.865234375 230.83984375 383.290039062 250.615234375 309.491210938 c 0
 272.76953125 226.805664062 335.575195312 165.953125 411.170898438 143.971679688 c 1
 370.352539062 216.275390625 365.6875 306.424804688 404.965820312 385.359375 c 1
EndSplineSet
EndChar

StartChar: uni09B7
Encoding: 2487 2487 394
Width: 841
VWidth: 0
Flags: HW
HStem: 10 152<285.1 630.7> 610 152<84.3 428.3>
LayerCount: 2
Fore
SplineSet
694 671 m 1
 407.166015625 671 l 1
 694 528.982421875 l 1
 694 671 l 1
694 156.658203125 m 1
 694 381.504882812 l 1
 561.956054688 436.836914062 l 1
 352.186523438 262.055664062 l 1
 694 156.658203125 l 1
126.755859375 180.198242188 m 1
 158.228515625 327.01953125 l 1
 429.267578125 487.461914062 l 1
 168.098632812 671 l 1
 50 671 l 1
 50 803 l 1
 891 803 l 1
 891 671 l 1
 846 671 l 1
 846 -2 l 1
 694 -2 l 1
 694 0.1826171875 l 1
 126.755859375 180.198242188 l 1
EndSplineSet
EndChar

StartChar: uni09A5
Encoding: 2469 2469 395
Width: 723
VWidth: 0
Flags: HW
HStem: 3 151<293.471 384> 367 151<293.471 384>
VStem: 100 151<196.066 324.529>
LayerCount: 2
Fore
SplineSet
224.400390625 766.462890625 m 1
 231.243164062 767.149414062 236.181640625 767.52734375 243.200195312 767.5 c 0
 357.951171875 767.052734375 510.767578125 698.090820312 517.599609375 578.900390625 c 0
 526.655273438 420.920898438 331.840820312 347.525390625 230 283 c 1
 574 166.745117188 l 1
 574 671 l 1
 574 777 l 1
 574 803 l 1
 773 803 l 1
 773 671 l 1
 720 671 l 1
 720 1 l 1
 574 1 l 1
 574 16.0556640625 l 1
 138 197 l 1
 138 349 l 1
 138 349 279 446 361 518 c 0
 382 536 398.799804688 578.900390625 398.799804688 578.900390625 c 1
 398.799804688 626.099609375 293.200195312 646.700195312 245.200195312 646.700195312 c 0
 238.029296875 646.700195312 231.060546875 645.83203125 224.400390625 644.194335938 c 1
 224.400390625 766.462890625 l 1
EndSplineSet
EndChar

StartChar: uni0980
Encoding: 2432 2432 396
Width: 534
VWidth: 0
Flags: HW
HStem: 265 151<293.471 382> 629 150<293.591 381.625>
VStem: 382 152<3 266 416.026 628.974> 100 151<458.471 586.934>
LayerCount: 2
Fore
SplineSet
310 343 m 1
 310 265 l 1
 167 265 100 380 100 523 c 0
 100 665 215 780 358 780 c 0
 366 780 453 787 495 752 c 0
 533 720 534 631 534 631 c 1
 534 3 l 1
 382 3 l 1
 382 266 l 1
 376.247070312 265.28125 388.752929688 388.056640625 383 388 c 1
 382 419 l 1
 382 626 l 1
 374 628 366 629 358 629 c 0
 298 629 251 582 251 523 c 0
 251 463 250 416 310 416 c 0
 311.09375 416 308.90625 342.962890625 310 343 c 1
EndSplineSet
EndChar

StartChar: uni09BC
Encoding: 2492 2492 397
Width: 0
VWidth: 0
GlyphClass: 4
Flags: HW
HStem: -2 142<-26 126>
VStem: -26 152<-2 140>
LayerCount: 2
Fore
SplineSet
-410 -138 m 1
 -410 4 l 1
 -258 4 l 1
 -258 -138 l 1
 -410 -138 l 1
EndSplineSet
EndChar

StartChar: uni09BD
Encoding: 2493 2493 398
Width: 689
VWidth: 0
Flags: HW
LayerCount: 2
Fore
SplineSet
299 482.999023438 m 1
 299 467 l 1
 289.196289062 475.032226562 l 2
 288.168945312 474.111328125 287.151367188 473.169921875 286.141601562 472.20703125 c 2
 286.141601562 472.20703125 272.28125 485.926757812 254.485351562 503.469726562 c 2
 50 671 l 1
 50 803 l 1
 257.661132812 632.868164062 l 1
 352.690429688 675.614257812 466.420898438 658.53125 545.080078125 579.872070312 c 0
 646.706054688 478.24609375 644.452148438 316.5078125 542.18359375 213.525390625 c 0
 516.661132812 187.825195312 489.724609375 169.067382812 462.2578125 156.3515625 c 1
 643 -1 l 1
 484 -1 l 1
 275.735351562 153.26953125 l 1
 240.404296875 167.595703125 207.993164062 189.703125 180.920898438 217.127929688 c 1
 283.453125 319.66015625 l 1
 283.686523438 319.422851562 283.921875 319.186523438 284.158203125 318.950195312 c 0
 326.666992188 276.440429688 390.711914062 277.127929688 436.141601562 321.051757812 c 0
 479.873046875 366.353515625 480.990234375 430.416015625 438.306640625 473.099609375 c 0
 399.102539062 512.3046875 342.970703125 515.259765625 299 482.999023438 c 1
EndSplineSet
EndChar

StartChar: uni099A
Encoding: 2458 2458 399
Width: 530
VWidth: 0
Flags: HW
HStem: 367.571 151<252 340.529> 4.57143 150<252.375 340.409>
VStem: 100 152<517.571 780.571 154.597 367.545> 383 151<196.637 325.1>
LayerCount: 2
Fore
SplineSet
252 157.571289062 m 1
 260 155.571289062 268 154.571289062 276 154.571289062 c 0
 336 154.571289062 383 201.571289062 383 260.571289062 c 0
 383 320.571289062 336 367.571289062 276 367.571289062 c 0
 268 367.571289062 260 366.571289062 252 364.571289062 c 1
 252 157.571289062 l 1
580 803 m 1
 580 671 l 1
 252 671 l 1
 252 517.571289062 l 1
 260 518.571289062 268 518.571289062 276 518.571289062 c 0
 419 518.571289062 534 403.571289062 534 260.571289062 c 0
 534 118.571289062 419 3.5712890625 276 3.5712890625 c 0
 268 3.5712890625 181 -3.4287109375 139 31.5712890625 c 0
 101 63.5712890625 100 152.571289062 100 152.571289062 c 1
 100 671 l 1
 50 671 l 1
 50 803 l 1
 580 803 l 1
EndSplineSet
EndChar

StartChar: uni09CD
Encoding: 2509 2509 400
Width: 0
VWidth: 0
Flags: HW
LayerCount: 2
Fore
SplineSet
-54 -1 m 1
 90 -186 l 5
 -16 -247 l 5
 -160 -62 l 1
 -54 -1 l 1
EndSplineSet
EndChar

StartChar: uni09B8
Encoding: 2488 2488 401
Width: 512
VWidth: 0
Flags: HW
LayerCount: 2
Fore
SplineSet
105 95 m 1
 180 220 l 1
 186 215 192 210 202 205 c 0
 253 175 317 192 347 240 c 0
 379 296 329 344 277 353 c 1
 152.791992188 420.033203125 69.3974609375 532.73828125 147.517578125 671 c 1
 50 671 l 1
 50 803 l 1
 826 803 l 1
 826 671 l 1
 805 671 l 1
 805 0 l 1
 653.018554688 -0 l 1
 651 -2 l 1
 478.500976562 170.499023438 l 1
 478.006835938 169.66796875 477.506835938 168.834960938 477 168 c 0
 408 51 251 12 126 80 c 0
 120 86 112 89 105 95 c 1
495.565429688 325.6171875 m 1
 496 328 l 1
 653 194.877929688 l 1
 653 671 l 1
 405.704101562 671 l 1
 399.729492188 666.977539062 394.71875 664.640625 392 666 c 0
 388.315429688 668.022460938 384.744140625 669.681640625 381.276367188 671 c 2
 341.71875 671 l 1
 318.456054688 660.96484375 300.250976562 633.418945312 282 603 c 0
 249 548 282 467 346 456 c 1
 410.7421875 421.138671875 469.97265625 379.541992188 495.565429688 325.6171875 c 1
EndSplineSet
EndChar

StartChar: uni09AE
Encoding: 2478 2478 402
Width: 778
VWidth: 0
Flags: HW
LayerCount: 2
Fore
SplineSet
357.43359375 446.358398438 m 1025
820 803 m 1
 820 671 l 1
 799 671 l 1
 799 0 l 1
 647.018554688 -0 l 1
 645 -2 l 1
 529.301757812 113.698242188 l 1
 482.826171875 46.79296875 405.244140625 3 317 3 c 0
 315.956054688 3 314.92578125 3.001953125 313.90625 3.001953125 c 0
 313.603515625 3.001953125 313.301757812 3 313 3 c 0
 311.815429688 3 310.631835938 3.0078125 309.451171875 3.0234375 c 0
 304.662109375 3.0693359375 300.004882812 3.205078125 295.133789062 3.6025390625 c 0
 160.541992188 12.708984375 55 123.96484375 55 260 c 0
 55 339.491210938 90.5361328125 410.331054688 146.6640625 457.573242188 c 1
 105.15234375 517.244140625 95.046875 589.8515625 141.473632812 671 c 1
 44 671 l 1
 44 803 l 1
 820 803 l 1
314.955078125 366.982421875 m 0
 306.641601562 366.842773438 298.393554688 365.848632812 291 364 c 1
 291 364.828125 l 1
 241.8984375 354.9453125 206 312.4375 206 260 c 0
 206 208.436523438 241.8984375 166.0390625 291 156.169921875 c 1
 291 157 l 1
 298.393554688 155.151367188 306.641601562 154.157226562 314.955078125 154.017578125 c 0
 323.23046875 154.163085938 331.280273438 155.234375 339 157.131835938 c 1
 339 156.169921875 l 1
 388.1015625 166.0390625 424 208.436523438 424 260 c 0
 424 312.4375 388.1015625 354.9453125 339 364.828125 c 1
 339 363.864257812 l 1
 331.280273438 365.765625 323.23046875 366.836914062 314.955078125 366.982421875 c 0
647 194.877929688 m 1
 647 671 l 1
 399.704101562 671 l 1
 393.729492188 666.977539062 388.71875 664.640625 386 666 c 0
 382.315429688 668.022460938 378.744140625 669.681640625 375.276367188 671 c 2
 335.71875 671 l 1
 312.456054688 660.96484375 294.250976562 633.418945312 276 603 c 0
 259.8125 576.020507812 259.505859375 542.78515625 270.94921875 514.624023438 c 1
 278.890625 515.9140625 286.956054688 516.84375 295.12890625 517.397460938 c 0
 300.001953125 517.794921875 304.66015625 517.930664062 309.451171875 517.9765625 c 0
 310.631835938 517.9921875 311.815429688 518 313 518 c 0
 313.301757812 518 313.603515625 517.999023438 313.905273438 517.998046875 c 0
 314.92578125 518 315.956054688 518 317 518 c 0
 460 518 575 403 575 260 c 0
 575 258.6484375 574.989257812 257.299804688 574.96875 255.954101562 c 2
 647 194.877929688 l 1
EndSplineSet
EndChar

StartChar: uni0998
Encoding: 2456 2456 403
Width: 770
VWidth: 0
Flags: HW
LayerCount: 2
Fore
SplineSet
129.7421875 671.545898438 m 1
 44 671 l 1
 44 803 l 1
 820 803 l 1
 820 671 l 1
 799 671 l 1
 799 0 l 1
 409 19.3212890625 l 0
 237.732421875 19.3212890625 100 121.786132812 100 248.307617188 c 0
 100 311.702148438 128.467773438 368.918945312 174.689453125 410.4140625 c 1
 128.467773438 451.795898438 100 508.791015625 100 571.741210938 c 0
 100 607.5546875 110.669921875 641.396484375 129.7421875 671.545898438 c 1
647 671 m 1
 403 667.078125 l 1
 317.766601562 667.078125 251 625.200195312 251 571.741210938 c 0
 251 522.912109375 291.549804688 483.30859375 345.40234375 477.918945312 c 0
 349.576171875 478.095703125 353.775390625 478.186523438 358 478.186523438 c 0
 362.170898438 478.186523438 366.318359375 478.096679688 370.442382812 477.921875 c 0
 375.056640625 478.391601562 379.58203125 479.1171875 384 480.0859375 c 1
 384 477.030273438 l 1
 384 343.909179688 l 1
 384 340.850585938 l 1
 379.58203125 341.8203125 375.056640625 342.547851562 370.44140625 343.017578125 c 0
 366.318359375 342.841796875 362.170898438 342.75390625 358 342.75390625 c 0
 353.776367188 342.75390625 349.577148438 342.84375 345.404296875 343.020507812 c 0
 291.55078125 337.627929688 251 297.96484375 251 248.307617188 c 0
 251 195.740234375 320.40234375 153.861328125 409 153.861328125 c 5
 650 160 l 5
 647 671 l 1
EndSplineSet
EndChar

StartChar: uni0999
Encoding: 2457 2457 404
Width: 616
VWidth: 0
Flags: HW
HStem: 3.00156 151.016<293.473 423.671> 366 151.998<359 491> 671 132<50 359 491 666> 671 80<359 491>
VStem: 359 132<517.998 751>
LayerCount: 2
Fore
SplineSet
60 700 m 1
 180 796 l 1
 361.640625 690.890625 l 1
 367.836914062 752.955078125 418.28515625 802.319335938 481 807 c 0
 483 807 486 807 488 807 c 0
 489 807 489 807 490 807 c 0
 491 807 491 807 492 807 c 0
 564 807 621 750 621 678 c 0
 621 629.665039062 544.583007812 567.791992188 505 546 c 1
 453 448 l 1
 531.610351562 403.868164062 622.310546875 356.931640625 620 260 c 0
 616.541015625 114.885742188 502.287109375 2.7998046875 358.90625 3.001953125 c 0
 189.0390625 3.240234375 105.165039062 131.7890625 106.000976562 261 c 1
 251.00390625 261 l 1
 251.000976562 260.666992188 251 260.333984375 251 260 c 0
 251 199.8828125 296.772460938 155.08203125 359.955078125 154.017578125 c 0
 422.911132812 155.126953125 469 199.63671875 469 260 c 0
 469 316.657226562 429.734375 359.046875 373.932617188 366 c 1
 359 366 l 1
 368 517.624023438 l 2
 367.96875 517.87109375 367.9375 517.998046875 367.905273438 517.998046875 c 1
 367.9375 517.998046875 367.96875 517.998046875 368 517.998046875 c 2
 377 544 l 1
 371.180664062 566.630859375 l 1
 361.329101562 572.219726562 352.288085938 579.047851562 344.279296875 586.907226562 c 1
 60 700 l 1
491 732 m 0
 487 732 483 731 479 730 c 1
 479 731 l 1
 454 726 437 704 437 678 c 0
 437 660.083984375 445.072265625 644.54296875 458.270507812 634.973632812 c 2
 467.364257812 629.711914062 l 2
 471 628.075195312 474.891601562 626.821289062 479 626 c 1
 479 627 l 1
 483 626 487 625 491 625 c 0
 495 625 499 626 503 627 c 1
 503 626 l 1
 528 631 545 652 545 678 c 0
 545 704 528 726 503 731 c 1
 503 730 l 1
 499 731 495 732 491 732 c 0
EndSplineSet
EndChar

StartChar: uni09AA
Encoding: 2474 2474 405
Width: 619
VWidth: 0
Flags: HW
HStem: -39.1672 157<617.596 784.478> 586.833 161<617.596 784.478>
VStem: 330.569 153<256.132 451.033>
LayerCount: 2
Fore
SplineSet
274.63671875 575.595703125 m 1
 292.1640625 627.83984375 334.065429688 665.619140625 384.059570312 679.534179688 c 1
 340.935546875 703.227539062 286.286132812 704.090820312 239.953125 677.340820312 c 0
 198.598632812 653.46484375 172.9296875 613.219726562 166.84765625 570.13671875 c 1
 274.63671875 575.595703125 l 1
401.774414062 365.487304688 m 1
 396.47265625 366.354492188 391.165039062 367.4921875 385.869140625 368.911132812 c 0
 341.588867188 380.776367188 314.08984375 437.485351562 293.658203125 474.428710938 c 1
 192.545898438 467.296875 l 1
 198.809570312 458.700195312 205.913085938 450.994140625 213.681640625 444.22265625 c 1
 126.032226562 393.618164062 l 1
 116.100585938 404.936523438 107.140625 417.376953125 99.3388671875 430.891601562 c 0
 33.4013671875 545.09765625 75.2265625 692.654296875 193.22265625 760.779296875 c 0
 284.034179688 813.209960938 393.524414062 802.651367188 469 742.37890625 c 1
 469 845 l 1
 621 845 l 1
 621 801 l 1
 669 801 l 1
 669 669 l 1
 621 669 l 1
 621 -4 l 1
 469 -4 l 1
 469 486.981445312 l 1
 467 485 l 1
 468.055664062 591.0859375 l 1
 461.157226562 587.103515625 l 1
 459.939453125 582.561523438 l 1
 458.790039062 583.1953125 457.614257812 583.796875 456.416992188 584.368164062 c 2
 454.438476562 583.224609375 l 1
 454.291992188 583.973632812 454.137695312 584.720703125 453.977539062 585.46875 c 0
 451.025390625 586.733398438 447.9453125 587.8046875 444.750976562 588.659179688 c 0
 408.528320312 598.366210938 372.55078125 577.594726562 362.844726562 541.37109375 c 0
 353.30078125 505.751953125 374.073242188 469.77734375 410.294921875 460.071289062 c 0
 415.706054688 458.620117188 421.140625 457.868164062 426.497070312 457.755859375 c 1
 401.774414062 365.487304688 l 1
275.38671875 575.633789062 m 2
 275.694335938 577.6875 275.354492188 577.16796875 274.775390625 575.603515625 c 1
 275.38671875 575.633789062 l 2
EndSplineSet
EndChar

StartChar: uni09E7
Encoding: 2535 2535 406
Width: 555
VWidth: 0
Flags: HW
HStem: 616 157<101.091 267.973> -14 161<101.091 267.973>
VStem: 402 153<282.8 477.701>
LayerCount: 2
Fore
SplineSet
173 147 m 0
 300 147 402 252 402 381 c 0
 402 511 300 616 173 616 c 0
 147.4453125 616 122.903320312 611.749023438 100 603.897460938 c 1
 100 765.830078125 l 1
 123.62890625 770.536132812 148.034179688 773 173 773 c 0
 384 773 555 597 555 379 c 0
 555 162 384 -14 173 -14 c 0
 148.034179688 -14 123.62890625 -11.5361328125 100 -6.83203125 c 1
 100 159.09375 l 1
 122.903320312 151.250976562 147.4453125 147 173 147 c 0
EndSplineSet
EndChar

StartChar: uni09E8
Encoding: 2536 2536 407
Width: 783
VWidth: 0
Flags: HW
HStem: 10 152<351 783> 610 152<100 530>
LayerCount: 2
Fore
SplineSet
20.16015625 226.225585938 m 1
 96.16015625 357.861328125 l 1
 477.34375 446.08984375 l 1
 104.5859375 662.456054688 l 1
 180.586914062 794.092773438 l 1
 711.826171875 486.2265625 l 1
 635.826171875 354.58984375 l 1
 253.77734375 266.861328125 l 1
 598.455078125 67.861328125 l 1
 522.455078125 -63.775390625 l 1
 20.16015625 226.225585938 l 1
EndSplineSet
EndChar

StartChar: uni09A6
Encoding: 2470 2470 408
Width: 725
VWidth: 0
Flags: HW
HStem: 10 152<351 783> 610 152<100 530>
LayerCount: 2
Fore
SplineSet
712.5 582.5 m 1
 712.5 2.5 l 1
 560.5 2.5 l 1
 560.5 400.5 l 1
 293.5 113.5 l 1
 141.5 113.5 l 1
 140.591796875 671 l 1
 50 671 l 1
 50 803 l 1
 776 803 l 1
 776 671 l 1
 292.630859375 671 l 1
 293.5 296.5 l 1
 560.5 582.5 l 1
 712.5 582.5 l 1
EndSplineSet
EndChar

StartChar: uni09E9
Encoding: 2537 2537 409
Width: 726
VWidth: 75
Flags: HW
HStem: 4.7002 133.6<355.264 518.805> 513.479 120.821<445.987 517.023> 671 132<50 776>
VStem: 142.4 111.399<240.829 328.876> 620.2 133.399<240.829 414.049>
LayerCount: 2
Fore
SplineSet
439.780273438 513.478515625 m 1
 439.780273438 513.478515625 445.987304688 634.29296875 445.987304688 634.29296875 c 2
 446.657226562 634.297851562 447.328125 634.299804688 448 634.299804688 c 0
 616.799804688 634.299804688 753.599609375 493.5 753.599609375 319.900390625 c 0
 753.599609375 145.5 616.799804688 4.7001953125 448 4.7001953125 c 0
 279.200195312 4.7001953125 142.400390625 145.5 142.400390625 319.900390625 c 0
 142.400390625 320.77734375 253.86328125 330.658203125 253.870117188 331.533203125 c 1
 253.823242188 329.794921875 253.799804688 328.049804688 253.799804688 326.299804688 c 0
 253.799804688 222.299804688 335.400390625 138.299804688 437 138.299804688 c 0
 538.599609375 138.299804688 620.200195312 222.299804688 620.200195312 326.299804688 c 0
 620.200195312 428.556640625 540.084960938 511.962890625 439.780273438 513.478515625 c 1
EndSplineSet
EndChar

StartChar: uni099B
Encoding: 2459 2459 410
Width: 726
VWidth: 75
Flags: HW
LayerCount: 2
Fore
SplineSet
776 803 m 1
 776 671 l 1
 265 671 l 1
 265 571.400390625 l 1
 271.400390625 572.200195312 277.799804688 572.200195312 284.200195312 572.200195312 c 0
 353.5859375 572.200195312 414.731445312 538.356445312 452.107421875 486.198242188 c 1
 463.2421875 487.475585938 474.616210938 488.13671875 486.1796875 488.13671875 c 0
 621.220703125 488.13671875 730.66015625 398.0234375 730.66015625 286.920898438 c 0
 730.66015625 203.858398438 670.052734375 138.09375 583.390625 109.879882812 c 1
 759.459960938 111.560546875 l 1
 759.459960938 33.736328125 l 1
 437.540039062 30.6640625 l 1
 439.459960938 181.500976562 l 1
 454.118164062 177.48046875 469.825195312 175.3046875 486.1796875 175.3046875 c 0
 567.459960938 175.3046875 632.740234375 219.3359375 632.740234375 285.896484375 c 0
 632.740234375 351.78125 567.783203125 405.4375 486.783203125 405.703125 c 1
 489.288085938 392.80078125 490.599609375 379.459960938 490.599609375 365.799804688 c 0
 490.599609375 252.200195312 398.599609375 160.200195312 284.200195312 160.200195312 c 0
 277.799804688 160.200195312 271.400390625 160.200195312 265 161 c 2
 143.400390625 161 l 1
 143.400390625 671 l 1
 50 671 l 1
 50 803 l 1
 776 803 l 1
265 283.400390625 m 1
 271.400390625 281.799804688 277.799804688 281 284.200195312 281 c 0
 332.200195312 281 369.799804688 318.599609375 369.799804688 365.799804688 c 0
 369.799804688 413.799804688 332.200195312 451.400390625 284.200195312 451.400390625 c 0
 277.799804688 451.400390625 271.400390625 450.599609375 265 449 c 1
 265 283.400390625 l 1
EndSplineSet
EndChar

StartChar: uni09A0
Encoding: 2464 2464 411
Width: 726
VWidth: 75
Flags: HW
LayerCount: 2
Fore
SplineSet
424 536 m 1030
776 803 m 1
 776 671 l 1
 664.923828125 671 l 1
 775.252929688 576.844726562 827.63671875 421.422851562 786.516601562 267.9609375 c 0
 730.352539062 58.3544921875 519.626953125 -67.3896484375 315.81640625 -12.78125 c 0
 291.701171875 -6.3173828125 268.767578125 2.37890625 247.159179688 13.037109375 c 1
 286.892578125 161.319335938 l 1
 283.129882812 167.834960938 l 1
 285.1484375 168.418945312 287.159179688 169.067382812 289.159179688 169.77734375 c 2
 290.104492188 173.309570312 l 1
 291.118164062 172.627929688 292.137695312 171.956054688 293.1640625 171.290039062 c 0
 297.936523438 173.200195312 302.630859375 175.475585938 307.213867188 178.12109375 c 0
 359.17578125 208.119140625 328.616210938 603.452148438 298.615234375 655.413085938 c 0
 295.375976562 661.0234375 291.71875 666.224609375 287.706054688 671 c 1
 50 671 l 1
 50 803 l 1
 301.8359375 803 l 1
 286.87109375 817.96484375 l 2
 241.616210938 863.219726562 263.536132812 920.49609375 218.28125 965.750976562 c 0
 182.21875 1001.8125 95.2451171875 1009.59082031 95.2451171875 1009.59082031 c 1
 183.6328125 1097.97949219 l 1
 183.6328125 1097.97949219 268.486328125 1092.32226562 303.841796875 1056.96777344 c 0
 350.510742188 1010.29785156 331.418945312 951.608398438 378.087890625 904.939453125 c 0
 409.200195312 873.826171875 409.907226562 873.119140625 440.723632812 841.7109375 c 0
 467.475585938 815.282226562 510.520507812 805.987304688 544.153320312 803 c 2
 776 803 l 1
436 616 m 1
 475.278320312 537.065429688 519.508789062 216.275390625 478.690429688 143.971679688 c 1
 554.286132812 165.953125 617.08984375 226.806640625 639.24609375 309.491210938 c 0
 659.021484375 383.290039062 543.860351562 596.377929688 502 652 c 1
 436 616 l 1
EndSplineSet
EndChar

StartChar: uni09EA
Encoding: 2538 2538 412
Width: 616
VWidth: 0
Flags: HW
HStem: 366.983 92.0348<336.347 383.638>
VStem: 100 151<197.14 324.826 500.772 628.449> 469 151<195.844 324.826 500.772 629.753>
LayerCount: 2
Fore
SplineSet
359.037109375 3.201171875 m 0
 358.771484375 3.201171875 358.505859375 3.2001953125 358.240234375 3.2001953125 c 0
 357.197265625 3.2001953125 356.15625 3.2060546875 355.116210938 3.220703125 c 0
 350.90234375 3.2607421875 346.8046875 3.380859375 342.518554688 3.7294921875 c 0
 224.077148438 11.744140625 131.200195312 109.6484375 131.200195312 229.359375 c 0
 131.200195312 279.814453125 189.974609375 369.916992188 212.056640625 399.995117188 c 1
 189.974609375 429.971679688 176.959960938 466.998046875 176.959960938 507.078125 c 0
 176.959960938 603.520507812 251.259765625 681.87109375 346.010742188 688.286132812 c 0
 349.44140625 688.565429688 352.720703125 688.661132812 356.092773438 688.694335938 c 0
 356.924804688 688.706054688 357.7578125 688.709960938 358.591796875 688.709960938 c 0
 358.8046875 688.709960938 359.017578125 688.709960938 359.228515625 688.708984375 c 0
 359.947265625 688.709960938 360.672851562 688.709960938 361.408203125 688.709960938 c 0
 462.080078125 688.709960938 543.040039062 607.75 543.040039062 507.078125 c 0
 543.040039062 466.998046875 530.025390625 429.971679688 507.943359375 399.995117188 c 1
 530.025390625 369.916992188 588.799804688 279.814453125 588.799804688 229.359375 c 0
 588.799804688 104.400390625 487.599609375 3.2001953125 361.759765625 3.2001953125 c 0
 360.840820312 3.2001953125 359.934570312 3.201171875 359.037109375 3.201171875 c 0
359.967773438 582.393554688 m 0
 354.115234375 582.295898438 348.309570312 581.596679688 343.103515625 580.293945312 c 1
 343.103515625 580.877929688 l 1
 308.536132812 573.920898438 283.263671875 543.994140625 283.263671875 507.078125 c 0
 283.263671875 470.778320312 308.536132812 440.930664062 343.103515625 433.982421875 c 1
 343.103515625 434.56640625 l 1
 348.309570312 433.264648438 354.115234375 432.565429688 359.967773438 432.467773438 c 0
 365.793945312 432.569335938 371.461914062 433.323242188 376.896484375 434.659179688 c 1
 376.896484375 433.982421875 l 1
 411.463867188 440.930664062 436.736328125 470.778320312 436.736328125 507.078125 c 0
 436.736328125 543.994140625 411.463867188 573.920898438 376.896484375 580.877929688 c 1
 376.896484375 580.198242188 l 1
 371.461914062 581.538085938 365.793945312 582.291992188 359.967773438 582.393554688 c 0
359.959960938 323.504882812 m 0
 352.64453125 323.381835938 345.38671875 322.505859375 338.879882812 320.879882812 c 1
 338.879882812 321.609375 l 1
 295.669921875 312.912109375 264.080078125 275.504882812 264.080078125 229.359375 c 0
 264.080078125 183.984375 295.669921875 146.673828125 338.879882812 137.990234375 c 1
 338.879882812 138.720703125 l 1
 345.38671875 137.09375 352.64453125 136.21875 359.959960938 136.094726562 c 0
 367.243164062 136.223632812 374.327148438 137.166015625 381.120117188 138.8359375 c 1
 381.120117188 137.990234375 l 1
 424.330078125 146.673828125 455.919921875 183.984375 455.919921875 229.359375 c 0
 455.919921875 275.504882812 424.330078125 312.912109375 381.120117188 321.609375 c 1
 381.120117188 320.760742188 l 1
 374.327148438 322.434570312 367.243164062 323.375976562 359.959960938 323.504882812 c 0
EndSplineSet
EndChar

StartChar: uni09E6
Encoding: 2534 2534 413
Width: 864
VWidth: 0
Flags: HW
HStem: 25.35 141.3<406.32 558.56> 588.75 144.9<406.32 558.56>
VStem: 176.5 122<282.263 475.349> 665.5 122<279.999 477.603>
LayerCount: 2
Fore
SplineSet
665.5 378.150390625 m 0
 665.5 494.25 584.5 588.75 482.5 588.75 c 0
 380.5 588.75 298.5 494.25 298.5 378.150390625 c 0
 298.5 261.150390625 380.5 166.650390625 482.5 166.650390625 c 0
 584.5 166.650390625 665.5 261.150390625 665.5 378.150390625 c 0
787.5 379.950195312 m 0
 787.5 183.75 651.5 25.349609375 482.5 25.349609375 c 0
 313.5 25.349609375 176.5 183.75 176.5 379.950195312 c 0
 176.5 575.25 313.5 733.650390625 482.5 733.650390625 c 0
 651.5 733.650390625 787.5 575.25 787.5 379.950195312 c 0
EndSplineSet
EndChar

StartChar: uni25CC
Encoding: 9676 9676 414
Width: 864
VWidth: 0
Flags: HW
HStem: -14 157<387.027 576.973> 612 161<387.027 576.973>
VStem: 100 153<278.712 478.774> 711 153<278.712 478.774>
LayerCount: 2
Fore
SplineSet
120 244 m 0
 120 293 159 332 208 332 c 0
 257 332 296 293 296 244 c 0
 296 195 257 156 208 156 c 0
 159 156 120 195 120 244 c 0
293 90 m 0
 293 139 332 178 381 178 c 0
 430 178 469 139 469 90 c 0
 469 41 430 2 381 2 c 0
 332 2 293 41 293 90 c 0
659 225 m 0
 659 274 698 313 747 313 c 0
 796 313 835 274 835 225 c 0
 835 176 796 137 747 137 c 0
 698 137 659 176 659 225 c 0
514 88 m 0
 514 137 553 176 602 176 c 0
 651 176 690 137 690 88 c 0
 690 39 651 0 602 0 c 0
 553 0 514 39 514 88 c 0
687 434 m 0
 687 483 726 522 775 522 c 0
 824 522 863 483 863 434 c 0
 863 385 824 346 775 346 c 0
 726 346 687 385 687 434 c 0
98 462 m 0
 98 511 137 550 186 550 c 0
 235 550 274 511 274 462 c 0
 274 413 235 374 186 374 c 0
 137 374 98 413 98 462 c 0
215 634 m 0
 215 683 254 722 303 722 c 0
 352 722 391 683 391 634 c 0
 391 585 352 546 303 546 c 0
 254 546 215 585 215 634 c 0
602 608 m 0
 602 657 641 696 690 696 c 0
 739 696 778 657 778 608 c 0
 778 559 739 520 690 520 c 0
 641 520 602 559 602 608 c 0
409 692 m 0
 409 741 448 780 497 780 c 0
 546 780 585 741 585 692 c 0
 585 643 546 604 497 604 c 0
 448 604 409 643 409 692 c 0
EndSplineSet
EndChar

StartChar: Euro
Encoding: 8364 8364 415
Width: 555
VWidth: 0
Flags: HW
HStem: -14 157<387.027 553.909> 612 161<387.027 553.909>
VStem: 100 153<281.299 476.2>
LayerCount: 2
Fore
SplineSet
65 358 m 2
 473 358 l 2
 481 358 488 351 488 343 c 2
 488 287 l 2
 488 279 481 272 473 272 c 2
 65 272 l 2
 57 272 50 279 50 287 c 2
 50 343 l 2
 50 351 57 358 65 358 c 2
65 533 m 6
 473 533 l 6
 481 533 488 526 488 518 c 6
 488 462 l 6
 488 454 481 447 473 447 c 6
 65 447 l 6
 57 447 50 454 50 462 c 6
 50 518 l 6
 50 526 57 533 65 533 c 6
482 612 m 0
 355 612 253 507 253 378 c 0
 253 248 355 143 482 143 c 0
 507.5546875 143 532.096679688 147.250976562 555 155.102539062 c 1
 555 -6.830078125 l 1
 531.37109375 -11.5361328125 506.965820312 -14 482 -14 c 0
 271 -14 100 162 100 380 c 0
 100 597 271 773 482 773 c 0
 506.965820312 773 531.37109375 770.536132812 555 765.83203125 c 1
 555 599.90625 l 1
 532.096679688 607.749023438 507.5546875 612 482 612 c 0
EndSplineSet
EndChar

StartChar: uni20B9
Encoding: 8377 8377 416
Width: 826
VWidth: 75
Flags: HW
LayerCount: 2
Fore
SplineSet
826 803 m 1
 826 671 l 1
 487.1171875 671 l 1
 589.01953125 643.420898438 665.443359375 555.403320312 675.80078125 448 c 1
 811 448 l 2
 819 448 826 441 826 433 c 2
 826 385 l 2
 826 377 819 370 811 370 c 2
 671.603515625 370 l 1
 655.0234375 289.890625 601.556640625 223.643554688 529.596679688 189.649414062 c 1
 766.348632812 -37.0107421875 l 1
 673.010742188 -130.348632812 l 1
 297.651367188 229.010742188 l 1
 390.989257812 322.348632812 l 1
 394.788085938 318.711914062 l 1
 402.5703125 316.935546875 410.67578125 316 419 316 c 0
 459.588867188 316 494.228515625 337.508789062 512.393554688 370 c 1
 247 370 l 2
 239 370 232 377 232 385 c 2
 232 433 l 2
 232 441 239 448 247 448 c 2
 523.091796875 448 l 1
 511.978515625 494.739257812 470.227539062 529 419 529 c 0
 410.036132812 529 401.326171875 527.915039062 393 525.868164062 c 1
 393 671 l 1
 100 671 l 1
 100 803 l 1
 826 803 l 1
EndSplineSet
EndChar

StartChar: uni09F0
Encoding: 2544 2544 417
Width: 723
VWidth: 0
Flags: HW
HStem: 671 132<50 574 720 773> 671 106<574 720>
VStem: 574 146<1 73.5 225.5 473.5 625.5 777> 574 57.5<73.5 225.5 473.5 473.5>
LayerCount: 2
Fore
SplineSet
773 803 m 1
 773 671 l 1
 720 671 l 1
 720 1 l 1
 576 1 l 1
 576 0 l 1
 574.334960938 1 l 1
 574 1 l 1
 574 1.201171875 l 1
 120.5 273.5 l 1
 120.5 425.5 l 1
 574 602.995117188 l 1
 574 671 l 1
 50 671 l 1
 50 803 l 1
 773 803 l 1
574 155.254882812 m 1
 574 238.194335938 l 1
 392.198242188 392.645507812 l 1
 264.5 349.5 l 1
 574 155.254882812 l 1
574 348.447265625 m 1
 574 454.072265625 l 1
 487.383789062 424.806640625 l 1
 574 348.447265625 l 1
EndSplineSet
EndChar

StartChar: uni09F1
Encoding: 2545 2545 418
Width: 723
VWidth: 0
Flags: HW
HStem: 671 132<50 574 720 773> 671 106<574 720>
VStem: 574 146<1 73.5 225.5 473.5 625.5 777> 574 57.5<73.5 225.5 473.5 473.5>
LayerCount: 2
Fore
SplineSet
773 803 m 1
 773 671 l 1
 720 671 l 1
 720 1 l 1
 574 1 l 1
 430.336914062 99.3369140625 270.356445312 181.356445312 120.5 273.5 c 1
 120.5 425.5 l 1
 574 602.995117188 l 1
 574 671 l 1
 50 671 l 1
 50 803 l 1
 773 803 l 1
94 196 m 1
 526 -44 l 1
 464 -137 l 1
 50 90 l 1
 94 196 l 1
574 159.11328125 m 1
 574 454.072265625 l 1
 264.5 349.5 l 1
 574 159.11328125 l 1
EndSplineSet
EndChar

StartChar: uni09BF
Encoding: 2495 2495 419
Width: 275
VWidth: 0
Flags: HW
LayerCount: 2
Fore
SplineSet
322 803 m 1
 322 671 l 1
 277 671 l 1
 277 -2 l 1
 125 -2 l 1
 125 671 l 1
 50 671 l 1
 50 803 l 1
 125 803 l 1
 126.926757812 803 l 1
 126.3125 810.25390625 126 817.590820312 126 825 c 0
 126 968 241 1083 383 1083 c 0
 526 1083 641 968 641 825 c 0
 641 816.2265625 640.560546875 807.553710938 639.704101562 799 c 1
 486.864257812 799 l 1
 488.915039062 807.326171875 490 816.036132812 490 825 c 0
 490 885 443 932 383 932 c 0
 324 932 277 885 277 825 c 0
 277 817.4609375 277.767578125 810.102539062 279.228515625 803 c 1
 322 803 l 1
EndSplineSet
EndChar

StartChar: uni09C0
Encoding: 2496 2496 420
Width: 246
VWidth: 0
Flags: HW
LayerCount: 2
Fore
SplineSet
296 803 m 1
 296 671 l 1
 251 671 l 1
 251 -2 l 1
 99 -2 l 1
 99 671 l 1
 49 671 l 1
 49 803 l 1
 99 803 l 1
 99.5126953125 803 l 1
 101.143554688 811.529296875 102 824.033203125 102 832 c 0
 102 892 55 939 -5 939 c 0
 -64 939 -111 892 -111 832 c 0
 -111 823.036132812 -109.915039062 814.326171875 -107.868164062 806 c 1
 -260.704101562 806 l 1
 -261.561523438 814.553710938 -262 823.2265625 -262 832 c 0
 -262 975 -147 1090 -5 1090 c 0
 138 1090 253 975 253 832 c 0
 253 824.182617188 252.651367188 811.682617188 251.969726562 803 c 1
 296 803 l 1
EndSplineSet
EndChar

StartChar: uni09C1
Encoding: 2497 2497 421
Width: 0
VWidth: 0
Flags: HW
LayerCount: 2
Fore
SplineSet
-105.935546875 -117.4140625 m 0
 -112.5859375 -117.525390625 -119.185546875 -118.321289062 -125.099609375 -119.799804688 c 1
 -125.099609375 -119.137695312 l 1
 -164.380859375 -127.043945312 -193.099609375 -161.049804688 -193.099609375 -203 c 0
 -193.099609375 -244.250976562 -164.380859375 -278.168945312 -125.099609375 -286.064453125 c 1
 -125.099609375 -285.400390625 l 1
 -119.185546875 -286.87890625 -112.5859375 -287.673828125 -105.935546875 -287.786132812 c 0
 -99.314453125 -287.669921875 -92.875 -286.8125 -86.69921875 -285.294921875 c 1
 -86.69921875 -286.064453125 l 1
 -47.41796875 -278.168945312 -18.69921875 -244.250976562 -18.69921875 -203 c 0
 -18.69921875 -161.049804688 -47.41796875 -127.043945312 -86.69921875 -119.137695312 c 1
 -86.69921875 -119.908203125 l 1
 -92.875 -118.387695312 -99.314453125 -117.530273438 -105.935546875 -117.4140625 c 0
-106.775390625 -408.598632812 m 0
 -107.017578125 -408.598632812 -107.2578125 -408.599609375 -107.5 -408.599609375 c 0
 -108.447265625 -408.599609375 -109.39453125 -408.59375 -110.33984375 -408.581054688 c 0
 -114.169921875 -408.543945312 -117.896484375 -408.436523438 -121.79296875 -408.118164062 c 0
 -229.466796875 -400.833007812 -313.900390625 -311.828125 -313.900390625 -203 c 0
 -313.900390625 -93.4072265625 -229.46875 -4.37109375 -121.796875 2.91796875 c 0
 -117.8984375 3.236328125 -114.171875 3.3447265625 -110.33984375 3.380859375 c 0
 -109.39453125 3.3935546875 -108.447265625 3.400390625 -107.5 3.400390625 c 0
 -107.2578125 3.400390625 -107.017578125 3.3994140625 -106.775390625 3.3984375 c 0
 -105.958984375 3.400390625 -105.134765625 3.400390625 -104.30078125 3.400390625 c 0
 -17.8798828125 3.400390625 55.7578125 -49.1005859375 86.6083984375 -124.098632812 c 1
 413.900390625 4 l 1
 413.900390625 -117.599609375 l 1
 120.30078125 -216.799804688 l 1
 413.900390625 -316 l 1
 413.900390625 -437.599609375 l 1
 75.060546875 -304.981445312 l 1
 39.5869140625 -366.899414062 -27.2802734375 -408.599609375 -104.30078125 -408.599609375 c 0
 -105.134765625 -408.599609375 -105.958984375 -408.598632812 -106.775390625 -408.598632812 c 0
EndSplineSet
EndChar

StartChar: uni09C2
Encoding: 2498 2498 422
Width: 0
VWidth: 0
Flags: HW
HStem: 3 151<489.817 580.346> 367 151<489.817 580.346>
VStem: 296.346 151<196.066 324.529>
LayerCount: 2
Fore
SplineSet
72.677734375 15.6162109375 m 1
 453.4609375 -177.920898438 l 1
 392.163085938 -283.748046875 l 1
 151.260742188 -161.307617188 l 1
 111.858398438 -295.822265625 -26.9072265625 -374.293945312 -162.094726562 -338.071289062 c 0
 -300.22265625 -301.059570312 -381.540039062 -160.213867188 -344.528320312 -22.0869140625 c 0
 -342.2578125 -13.6123046875 -339.588867188 -5.3486328125 -336.547851562 2.69140625 c 1
 -188.915039062 -36.8662109375 l 1
 -193.051757812 -44.3779296875 -196.353515625 -52.509765625 -198.673828125 -61.1689453125 c 0
 -214.203125 -119.124023438 -180.96875 -176.6875 -123.013671875 -192.215820312 c 0
 -66.0234375 -207.486328125 -8.4609375 -174.252929688 7.068359375 -116.296875 c 0
 9.388671875 -107.638671875 10.5947265625 -98.9443359375 10.7724609375 -90.3720703125 c 1
 12.7216796875 -90.89453125 l 1
 11.37890625 -90.2119140625 l 1
 72.677734375 15.6162109375 l 1
EndSplineSet
EndChar

StartChar: uni09C3
Encoding: 2499 2499 423
Width: 0
VWidth: 0
Flags: HW
LayerCount: 2
Fore
SplineSet
254.400390625 4 m 257
 254.400390625 -117.599609375 l 257
 -39.19921875 -216.799804688 l 257
 254.400390625 -316 l 257
 254.400390625 -437.599609375 l 257
 -154.400390625 -277.599609375 l 257
 -154.400390625 -156 l 257
 254.400390625 4 l 257
EndSplineSet
EndChar

StartChar: uni09C4
Encoding: 2500 2500 424
Width: 0
VWidth: 0
Flags: HW
LayerCount: 2
Fore
SplineSet
254.400390625 4 m 1
 254.400390625 -117.599609375 l 1
 207.932617188 -133.299804688 l 1
 254.400390625 -149 l 1
 254.400390625 -270.599609375 l 1
 44.599609375 -188.486328125 l 1
 -39.19921875 -216.799804688 l 1
 254.400390625 -316 l 1
 254.400390625 -437.599609375 l 1
 -154.400390625 -277.599609375 l 1
 -154.400390625 -156 l 1
 -96.4013671875 -133.299804688 l 1
 -154.400390625 -110.599609375 l 1
 -154.400390625 11 l 1
 254.400390625 171 l 1
 254.400390625 49.400390625 l 1
 -39.19921875 -49.7998046875 l 1
 44.599609375 -78.11328125 l 1
 254.400390625 4 l 1
EndSplineSet
EndChar

StartChar: uni09C7
Encoding: 2503 2503 425
Width: 624
VWidth: 75
Flags: HW
LayerCount: 2
Fore
SplineSet
671 803 m 5
 671 671 l 5
 504.5 671 l 5
 438.799804688 661 l 4
 324.5 661 232.700195312 472.5 232.700195312 356.400390625 c 4
 232.700195312 239.400390625 324.5 144.900390625 438.799804688 144.900390625 c 4
 461.798828125 144.900390625 483.88671875 148.725585938 504.5 155.791992188 c 5
 504.5 10.052734375 l 5
 483.234375 5.8173828125 461.26953125 3.599609375 438.799804688 3.599609375 c 4
 248.900390625 3.599609375 95 162 95 358.200195312 c 4
 95 461.798828125 138.305664062 581.463867188 207.317382812 671 c 5
 50 671 l 5
 50 803 l 5
 671 803 l 5
EndSplineSet
EndChar

StartChar: uni09C8
Encoding: 2504 2504 426
Width: 624
VWidth: 75
Flags: HW
LayerCount: 2
Fore
SplineSet
671 803 m 1
 671 671 l 1
 504.5 671 l 1
 438.799804688 661 l 1
 324.5 661 232.700195312 472.5 232.700195312 356.400390625 c 0
 232.700195312 239.400390625 324.5 144.900390625 438.799804688 144.900390625 c 0
 461.798828125 144.900390625 483.88671875 148.725585938 504.5 155.791992188 c 1
 504.5 10.052734375 l 1
 483.234375 5.8173828125 461.26953125 3.599609375 438.799804688 3.599609375 c 0
 248.900390625 3.599609375 95 162 95 358.200195312 c 0
 95 461.798828125 138.305664062 581.463867188 207.317382812 671 c 1
 50 671 l 1
 50 803 l 1
 383.489257812 803 l 1
 377.990234375 828.393554688 367.922851562 854.420898438 349.7890625 872.776367188 c 0
 318.380859375 903.592773438 317.673828125 904.299804688 286.560546875 935.412109375 c 0
 239.891601562 982.081054688 181.202148438 962.989257812 134.532226562 1009.65820312 c 0
 99.177734375 1045.01367188 93.5205078125 1129.8671875 93.5205078125 1129.8671875 c 1
 181.909179688 1218.25488281 l 1
 181.909179688 1218.25488281 189.6875 1131.28125 225.749023438 1095.21875 c 0
 271.00390625 1049.96386719 328.280273438 1071.88378906 373.53515625 1026.62890625 c 0
 407.475585938 992.688476562 410.3046875 989.859375 444.245117188 955.918945312 c 0
 494.2734375 905.890625 474.794921875 808.1796875 477.479492188 808.1328125 c 1
 472.346679688 803 l 1
 671 803 l 1
EndSplineSet
EndChar

StartChar: uni09D7
Encoding: 2519 2519 427
Width: 254
VWidth: 0
Flags: HW
LayerCount: 2
Fore
SplineSet
305 803 m 1
 305 671 l 1
 260 671 l 1
 260 -2 l 1
 108 -2 l 1
 108 671 l 1
 50 671 l 1
 50 803 l 1
 108 803 l 1
 118.172851562 803 l 1
 112.372070312 817.458007812 104.483398438 830.951171875 93.7890625 841.776367188 c 0
 62.380859375 872.592773438 61.673828125 873.299804688 30.560546875 904.412109375 c 0
 -16.1083984375 951.081054688 -74.7978515625 931.989257812 -121.467773438 978.658203125 c 0
 -156.822265625 1014.01367188 -162.479492188 1098.8671875 -162.479492188 1098.8671875 c 1
 -74.0908203125 1187.25488281 l 1
 -74.0908203125 1187.25488281 -66.3125 1100.28125 -30.2509765625 1064.21875 c 0
 15.00390625 1018.96386719 72.2802734375 1040.88378906 117.53515625 995.62890625 c 0
 151.475585938 961.688476562 154.3046875 958.859375 188.245117188 924.918945312 c 0
 222.061523438 891.102539062 224.120117188 835.5 222.732421875 803 c 1
 260 803 l 1
 305 803 l 1
EndSplineSet
EndChar

StartChar: uni09E1
Encoding: 2529 2529 433
Width: 779
VWidth: 0
Flags: HW
HStem: 616 157<101.091 267.973> -14 161<101.091 267.973>
VStem: 402 153<282.8 477.701>
LayerCount: 2
Fore
SplineSet
358.26171875 -146.48828125 m 5
 357.918945312 -143.067382812 357.744140625 -139.59765625 357.744140625 -136.088867188 c 4
 357.744140625 -78.888671875 403.744140625 -32.888671875 460.543945312 -32.888671875 c 4
 498.513671875 -32.888671875 531.547851562 -53.1572265625 549.467773438 -83.517578125 c 5
 556.973632812 -52.9345703125 548.454101562 -19.0068359375 524.2421875 5.205078125 c 4
 487.47265625 41.974609375 428.923828125 42.8232421875 393.002929688 6.90234375 c 4
 385.775390625 -0.326171875 380.036132812 -8.4697265625 375.778320312 -17.16796875 c 5
 329.977539062 28.6328125 l 5
 335.329101562 36.6474609375 341.53515625 44.2470703125 348.596679688 51.30859375 c 4
 408.276367188 110.98828125 506.422851562 109.57421875 568.083007812 47.9140625 c 4
 629.458984375 -13.462890625 630.874023438 -111.609375 571.194335938 -171.2890625 c 4
 564.1328125 -178.349609375 556.533203125 -184.555664062 548.51953125 -189.908203125 c 5
 505.099609375 -146.48828125 l 5
 502.08984375 -146.48828125 l 5
 502.291015625 -145.671875 502.46875 -144.846679688 502.623046875 -144.01171875 c 6
 501.587890625 -142.977539062 l 5
 502.02734375 -142.762695312 502.463867188 -142.543945312 502.900390625 -142.322265625 c 4
 503.192382812 -140.286132812 503.34375 -138.205078125 503.34375 -136.088867188 c 4
 503.34375 -112.088867188 484.543945312 -93.2880859375 460.543945312 -93.2890625 c 4
 436.943359375 -93.2880859375 418.143554688 -112.088867188 418.14453125 -136.088867188 c 4
 418.143554688 -139.673828125 418.578125 -143.158203125 419.396484375 -146.48828125 c 5
 358.26171875 -146.48828125 l 5
148.155273438 103.778320312 m 1
 147.297851562 112.33203125 146.859375 121.004882812 146.859375 129.778320312 c 0
 146.859375 272.778320312 261.859375 387.779296875 403.859375 387.779296875 c 0
 498.783203125 387.779296875 581.369140625 337.10546875 626.170898438 261.20703125 c 1
 644.932617188 337.665039062 623.635742188 422.482421875 563.10546875 483.012695312 c 0
 471.181640625 574.936523438 324.810546875 577.05859375 235.0078125 487.255859375 c 0
 216.9375 469.185546875 202.58984375 448.826171875 191.946289062 427.079101562 c 1
 77.443359375 541.583007812 l 1
 90.8232421875 561.619140625 106.337890625 580.618164062 123.9921875 598.271484375 c 0
 273.19140625 747.470703125 518.557617188 743.935546875 672.70703125 589.786132812 c 0
 826.1484375 436.34375 829.684570312 190.977539062 680.485351562 41.7783203125 c 0
 662.831054688 24.125 643.83203125 8.6103515625 623.797851562 -4.771484375 c 1
 515.248046875 103.778320312 l 1
 507.724609375 103.778320312 l 1
 508.227539062 105.819335938 508.671875 107.883789062 509.056640625 109.969726562 c 2
 506.470703125 112.555664062 l 1
 507.567382812 113.092773438 508.66015625 113.639648438 509.75 114.1953125 c 0
 510.481445312 119.283203125 510.860351562 124.486328125 510.859375 129.778320312 c 0
 510.860351562 189.778320312 463.859375 236.779296875 403.859375 236.778320312 c 0
 344.859375 236.779296875 297.859375 189.778320312 297.860351562 129.778320312 c 0
 297.859375 120.814453125 298.9453125 112.104492188 300.991210938 103.778320312 c 1
 148.155273438 103.778320312 l 1
EndSplineSet
EndChar

StartChar: uni09E0
Encoding: 2528 2528 434
Width: 1344
Flags: HW
LayerCount: 2
Fore
SplineSet
972 777 m 1
 1118 777 l 1
 1118 285.5 l 1
 1192.5 211 l 1
 1194.5 795 l 1
 1394.5 795 l 1
 1394.5 663 l 1
 1344.5 663 l 1
 1344.5 0 l 1
 1342 -0 l 1
 1342 -89 l 1
 1048.40039062 -188.200195312 l 1
 1342 -287.400390625 l 1
 1342 -409 l 1
 933.19921875 -249 l 1
 933.19921875 -127.400390625 l 1
 1258.70800781 -0 l 1
 1192.51855469 -0 l 1
 1190.5 -2 l 1
 1118 70.5 l 1
 1118 1 l 1
 971 1 l 1
 971 2.6953125 l 1
 518.5 179.5 l 1
 518.5 331.5 l 1
 764.940429688 561.51171875 l 1
 775.203125 629.375976562 l 1
 748.943359375 553.631835938 677.708007812 500 594 500 c 0
 532.708984375 500 478.502929688 527.698242188 443.081054688 571.395507812 c 1
 407.87109375 527.698242188 354.15625 500 294 500 c 0
 186 500 100 586 100 694 c 0
 100 700 100 707 100 713 c 1
 216 713 l 1
 214 707 213 700 213 694 c 0
 213 649 249 613 294 613 c 0
 339 613 373 649 373 694 c 0
 373 700 372 707 370 713 c 1
 400 713 l 1
 486 713 l 1
 516 713 l 1
 514 707 513 700 513 694 c 0
 513 649 549 613 594 613 c 0
 639 613 673 649 673 694 c 0
 673 700 672 770 670 776 c 1
 972 777 l 1
971 159.684570312 m 1
 971 709.262695312 l 1
 804 444 l 1
 803.189453125 445.12109375 l 1
 662.5 273.5 l 1
 971 159.684570312 l 1
EndSplineSet
EndChar

StartChar: uni09E2
Encoding: 2530 2530 435
Width: 0
VWidth: 0
Flags: HW
LayerCount: 2
Fore
SplineSet
-64.251953125 -146.48828125 m 5
 -64.5947265625 -143.067382812 -64.76953125 -139.59765625 -64.76953125 -136.088867188 c 4
 -64.76953125 -78.888671875 -18.76953125 -32.888671875 38.0302734375 -32.888671875 c 4
 76 -32.888671875 109.034179688 -53.1572265625 126.954101562 -83.517578125 c 5
 134.459960938 -52.9345703125 125.940429688 -19.0068359375 101.728515625 5.205078125 c 4
 64.958984375 41.974609375 6.41015625 42.8232421875 -29.5107421875 6.90234375 c 4
 -36.73828125 -0.326171875 -42.4775390625 -8.4697265625 -46.7353515625 -17.16796875 c 5
 -92.5361328125 28.6328125 l 5
 -87.1845703125 36.6474609375 -80.978515625 44.2470703125 -73.9169921875 51.30859375 c 4
 -14.2373046875 110.98828125 83.9091796875 109.57421875 145.569335938 47.9140625 c 4
 206.9453125 -13.462890625 208.360351562 -111.609375 148.680664062 -171.2890625 c 4
 141.619140625 -178.349609375 134.01953125 -184.555664062 126.005859375 -189.908203125 c 5
 82.5859375 -146.48828125 l 5
 79.576171875 -146.48828125 l 5
 79.77734375 -145.671875 79.955078125 -144.846679688 80.109375 -144.01171875 c 6
 79.07421875 -142.977539062 l 5
 79.513671875 -142.762695312 79.9501953125 -142.543945312 80.38671875 -142.322265625 c 4
 80.6787109375 -140.286132812 80.830078125 -138.205078125 80.830078125 -136.088867188 c 4
 80.830078125 -112.088867188 62.0302734375 -93.2880859375 38.0302734375 -93.2890625 c 4
 14.4296875 -93.2880859375 -4.3701171875 -112.088867188 -4.369140625 -136.088867188 c 4
 -4.3701171875 -139.673828125 -3.935546875 -143.158203125 -3.1171875 -146.48828125 c 5
 -64.251953125 -146.48828125 l 5
EndSplineSet
EndChar

StartChar: uni09E3
Encoding: 2531 2531 436
Width: 0
VWidth: 0
Flags: HW
LayerCount: 2
Fore
SplineSet
91.7421875 -294.580078125 m 5
 91.3994140625 -291.159179688 91.224609375 -287.689453125 91.224609375 -284.180664062 c 4
 91.224609375 -226.98046875 137.224609375 -180.98046875 194.024414062 -180.98046875 c 4
 231.994140625 -180.98046875 265.028320312 -201.249023438 282.948242188 -231.609375 c 5
 290.454101562 -201.026367188 281.934570312 -167.098632812 257.72265625 -142.88671875 c 4
 220.953125 -106.1171875 162.404296875 -105.268554688 126.483398438 -141.189453125 c 4
 119.255859375 -148.41796875 113.516601562 -156.561523438 109.258789062 -165.259765625 c 5
 63.4580078125 -119.458984375 l 5
 68.8095703125 -111.444335938 75.015625 -103.844726562 82.0771484375 -96.783203125 c 4
 141.756835938 -37.103515625 239.903320312 -38.517578125 301.563476562 -100.177734375 c 4
 362.939453125 -161.5546875 364.354492188 -259.701171875 304.674804688 -319.380859375 c 4
 297.61328125 -326.44140625 290.013671875 -332.647460938 282 -338 c 5
 238.580078125 -294.580078125 l 5
 235.5703125 -294.580078125 l 5
 235.771484375 -293.763671875 235.94921875 -292.938476562 236.103515625 -292.103515625 c 6
 235.068359375 -291.069335938 l 5
 235.5078125 -290.854492188 235.944335938 -290.635742188 236.380859375 -290.4140625 c 4
 236.672851562 -288.377929688 236.82421875 -286.296875 236.82421875 -284.180664062 c 4
 236.82421875 -260.180664062 218.024414062 -241.379882812 194.024414062 -241.380859375 c 4
 170.423828125 -241.379882812 151.624023438 -260.180664062 151.625 -284.180664062 c 4
 151.624023438 -287.765625 152.05859375 -291.25 152.876953125 -294.580078125 c 5
 91.7421875 -294.580078125 l 5
-93.2578125 -158.580078125 m 1
 -93.6005859375 -155.159179688 -93.775390625 -151.689453125 -93.775390625 -148.180664062 c 0
 -93.775390625 -90.98046875 -47.775390625 -44.98046875 9.0244140625 -44.98046875 c 0
 46.994140625 -44.98046875 80.0283203125 -65.2490234375 97.9482421875 -95.609375 c 1
 105.454101562 -65.0263671875 96.9345703125 -31.0986328125 72.72265625 -6.88671875 c 0
 35.953125 29.8828125 -22.595703125 30.7314453125 -58.5166015625 -5.189453125 c 0
 -65.744140625 -12.41796875 -71.4833984375 -20.5615234375 -75.7412109375 -29.259765625 c 1
 -121.541992188 16.541015625 l 1
 -116.190429688 24.5556640625 -109.984375 32.1552734375 -102.922851562 39.216796875 c 0
 -43.2431640625 98.896484375 54.9033203125 97.482421875 116.563476562 35.822265625 c 0
 177.939453125 -25.5546875 179.354492188 -123.701171875 119.674804688 -183.380859375 c 0
 112.61328125 -190.44140625 105.013671875 -196.647460938 97 -202 c 1
 53.580078125 -158.580078125 l 1
 50.5703125 -158.580078125 l 1
 50.771484375 -157.763671875 50.94921875 -156.938476562 51.103515625 -156.103515625 c 2
 50.068359375 -155.069335938 l 1
 50.5078125 -154.854492188 50.9443359375 -154.635742188 51.380859375 -154.4140625 c 0
 51.6728515625 -152.377929688 51.82421875 -150.296875 51.82421875 -148.180664062 c 0
 51.82421875 -124.180664062 33.0244140625 -105.379882812 9.0244140625 -105.380859375 c 0
 -14.576171875 -105.379882812 -33.3759765625 -124.180664062 -33.375 -148.180664062 c 0
 -33.3759765625 -151.765625 -32.94140625 -155.25 -32.123046875 -158.580078125 c 1
 -93.2578125 -158.580078125 l 1
EndSplineSet
EndChar

StartChar: uni09F2
Encoding: 2546 2546 437
Width: 445
VWidth: 0
Flags: HW
LayerCount: 2
Fore
SplineSet
208 427 m 5
 441 69 l 5
 335 8 l 5
 102 366 l 5
 208 427 l 5
EndSplineSet
EndChar

StartChar: uni09F3
Encoding: 2547 2547 438
Width: 806
VWidth: 0
Flags: HW
HStem: 671 132<50 100 267 689> 671 90<100 267>
VStem: 103 164<172.77 761> 502 164<172.95 373>
LayerCount: 2
Fore
SplineSet
266 772 m 25
 266 772 297 869 280 928 c 24
 272 956 237 941 212 956 c 24
 188 970 156 1002 156 1002 c 25
 170 1094 l 25
 170 1094 255 1095 302 1074 c 24
 365 1046 420 1034 444 970 c 24
 474 890 422 752 422 752 c 25
 266 772 l 25
824 184 m 1
 755.931640625 -55.4130859375 330.236328125 -59.4453125 261 184 c 1
 258.467773438 671 l 1
 82 671 l 5
 82 803 l 5
 689 803 l 1
 689 671 l 1
 425 671 l 1
 425 185 l 1
 463.237304688 141.02734375 622.430664062 139.916992188 660 185 c 1
 660 373 l 1
 827 373 l 1
 824 184 l 1
EndSplineSet
EndChar

StartChar: uni09F4
Encoding: 2548 2548 439
Width: 445
VWidth: 0
Flags: HW
LayerCount: 2
Fore
SplineSet
340 467 m 1
 446 406 l 1
 213 48 l 1
 107 109 l 1
 340 467 l 1
EndSplineSet
EndChar

StartChar: uni09F5
Encoding: 2549 2549 440
Width: 1011
VWidth: 0
Flags: HW
HStem: 616 157<101.091 267.973> -14 161<101.091 267.973>
VStem: 402 153<282.8 477.701>
LayerCount: 2
Fore
SplineSet
186.034179688 637.158203125 m 1
 194.587890625 638.015625 203.260742188 638.454101562 212.034179688 638.454101562 c 0
 355.034179688 638.454101562 470.03515625 523.454101562 470.03515625 381.454101562 c 0
 470.03515625 286.530273438 419.361328125 203.944335938 343.462890625 159.142578125 c 1
 419.920898438 140.380859375 504.73828125 161.677734375 565.268554688 222.208007812 c 0
 868 510 l 1
 1046 434 l 1
 732.203125 120.736328125 l 0
 578.760742188 -32.705078125 273.229492188 -44.375 124.034179688 104.828125 c 0
 106.380859375 122.482421875 90.8662109375 141.481445312 77.484375 161.515625 c 1
 186.034179688 270.065429688 l 1
 186.034179688 277.588867188 l 1
 188.075195312 277.0859375 190.139648438 276.641601562 192.225585938 276.256835938 c 2
 194.811523438 278.842773438 l 1
 195.348632812 277.74609375 195.895507812 276.653320312 196.451171875 275.563476562 c 0
 201.5390625 274.83203125 206.7421875 274.454101562 212.034179688 274.454101562 c 0
 272.034179688 274.453125 319.03515625 321.454101562 319.034179688 381.454101562 c 0
 319.03515625 440.454101562 272.034179688 487.454101562 212.034179688 487.453125 c 0
 203.0703125 487.454101562 194.360351562 486.368164062 186.034179688 484.322265625 c 1
 186.034179688 637.158203125 l 1
EndSplineSet
EndChar

